<svg width="147" height="124" fill="none" xmlns="http://www.w3.org/2000/svg"><path d="M158.7 72.2c-3.7-4.6-9.1-7.9-15-10.5 5.3-3.1 10.7-6.2 16-9.3 8.3-4.8 4.6-17.9-4.1-19.5-9.7-1.8-19.4-3.2-29.1-4.6-4.6-.7-9.6-.6-14.4-.8-.4-1.4-.8-2.7-1.4-4.1C103.6 8 83.4 3.2 68 8.8c-1.9-3.5-6-5.8-9.9-5.6-9.6.6-21.6-7.2-30.1-.3-3.1 2.5-3.7 6.2-5.3 9.5-3.2 6.7-8.4 11.1-15.3 13.7-4.3 1.6-8 7.4-5.7 11.9 3.1 6.2 6.4 11.4 11.9 15.7 1.6 1.2 3.7 1.6 5.6 1.3 2.5 1.4 5.6 1.6 8.9.2-1 7.5-1.9 14.9-2.8 22.4-1.3 11.1-.7 27 14.9 26.1 7.2-.4 10.7-4.9 12.6-10.8 2.7 2.5 6.4 3.5 10.1 1.7 7.9 5.1 16.3 9.6 25.2 12.6 1.6.5 3.1.7 4.4.5 19.5 13.6 52.4 20.1 66.9-3.2 6.2-9.8 6.7-23-.7-32.3zM57 65.2c1.5-8.8 3.2-17.6 5.3-26.3 5.4-.9 14.8-4.1 15.8 4.1 1.1 8.4-12.8 17.7-21.1 22.2zm81.6 29.9c-10.4 8.2-27.5-.8-36.1-7.2-3.4-2.5-7-2.8-10.1-1.8-3.8-2.4-7.6-4.6-11.5-6.8 6.7-6.2 13.3-12.6 19.3-19.4 4-4.5 7.7-9.5 10.1-15 4.1 1.5 8.4 2.8 12.8 3.8-4.2 2.4-8.4 4.9-12.6 7.3-8.8 5-4.3 17.6 4.2 19.7 6.6 1.7 37.9 8.3 23.9 19.4z" fill="#F5F5F5"/><path d="M162.2 80.3c-6.5-10.3-18-13.8-29.3-15.8 7.1-3.2 14.2-6.4 21.2-9.9.1 0 .1-.1.2-.1.9.4 2 .3 2.4-.7 2.3-6.1 3.8-12.3 4.9-18.6.2-1.1-.5-2.2-1.6-2.4-8.7-1.6-17.5-3.3-26.2-4.9-6.7-1.3-14.3-3.9-21.1-3.4-.7 0-1.3.5-1.6 1.1-.7-1.6-1.8-3.2-3.3-4.8C96.1 8.2 72.6 6.9 61.6 19.5c.3-1.6.5-3.2.8-4.8 1-1 .8-3.2-1-3.5-6-1.3-12-2.7-18-3.8-3.3-.6-5.1-1.5-7.8.6-3.6 2.9-5.8 8.8-8.6 12.4-3.8 5-8.1 9.5-12.7 13.8-.3.3-.4.6-.4 1-.1.2-.2.4-.2.7-.7 5.8 1.7 12.8 5.1 17.6.2 1.4 1.8 2.6 3.4 1.7 4.5-2.5 9-5.1 13.4-7.6-2.9 14-7.3 29.5-6.5 43.4-1.3 1-1.2 3.5.9 3.9 6.6 1.1 12.9 2.7 19.3 4.8 1.5.5 2.5-1.1 2.6-2.3.1-1.4.2-2.8.3-4.1.2.2.3.3.6.5 10.8 6 22 11.4 33 17 .8.4 2 .2 2.6-.5.8-1.2 2.4-2.9 4.1-4.9 13.7 22.6 48.7 23.3 66.1 4.2 7.3-8.4 9.6-19.8 3.6-29.3zM31.4 90.5c5.9-14.1 6.7-32 9.4-46.9.4-2-1.8-3.1-3.4-2.2-5.4 3.1-10.9 6.2-16.3 9.3-.8-1.9-1.6-3.8-2.2-5.8-.8-3-.9-6-1.4-8.9 0-.2-.1-.3-.2-.5C23.6 30 29.4 23.9 34.2 17c.7-.9 1.2-1.9 1.9-2.8 3.5-4.4 3.6-3.5 7.9-2.6 5 1.1 10.1 2.2 15.1 3.3-7.1 25.8-10 52.9-11.4 79.6-5.3-1.7-10.7-3-16.3-4zm58.1 10.4c-2.3 3.2-2.6 4.4-6.4 3.4-3-.8-6.2-3.2-9-4.6-6.5-3.3-12.9-6.8-19.6-9.9-.9-.4-1.7-.2-2.2.3 1.2-17.5 3.6-34.8 6.3-52 4.3-2.6 8.5-6.2 13.5-7.4 7.2-1.7 10.7 2.5 9 9.4-.6 2.3-3.4 5.2-4.9 6.9-5.7 7-12.7 12.2-20.4 16.8-1.3.8-.2 3.1 1.3 2.4 7.4-3.2 14-7.9 19.6-13.7 4-4.2 10.9-11.3 10.1-17.7-.6-5-5.5-8.5-10.2-8.9-6.3-.6-11.9 3.1-17.1 6.5.3-1.9.6-3.8.9-5.8 5.6-8.3 14.8-12.9 25.3-11.9 13.3 1.3 26.5 10.7 19 24.9C97 54.3 79.8 67.3 67.2 77.2c-2.2 1.7.3 5.3 2.5 3.6l.1-.1c5.3 2.7 10.8 5 16.3 7.3 1 .4 9.1 2.9 9.4 4.1.4 1.7-4.9 7.4-6 8.8zm-1.8-16.1c-5.2-2-10.4-4.1-15.6-5.9 12.2-9.8 24.2-20.7 33.8-33.1.6-.8 1.2-1.7 1.8-2.5-.1.5-.1 1.1-.2 1.6-.2 1.6 1.7 2.2 2.5 1.2 5.5.5 10.7 1.6 15.8 3.6-5.5 2.8-11.4 4.6-17.5 5.8-1.2.2-1.4 1.6-.8 2.3-.6 1.9-1 3.9-1.4 5.8-.6 2.7-1.4 5.4-1.8 8.1-.1.9.7 1.5 1.5 1.5.3.5.9.8 1.5.8 5.9.3 11.5 1.1 17.1 3.2 5.5 2.1 16.6 7.5 10.4 14.4-8.1 9.1-20.9 1.5-28.5-4.4-.2-.6-.7-1-1.2-1l-.1-.1c-1.2-.9-2.5.6-1.6 1.7-.9 1.2-1.8 2.4-2.9 3.5-.2.2-.4.4-.7.6-.1-.7-.2-1.4-.6-2.1-1.9-3-8.4-3.8-11.5-5zm62.3 26c-17.3 12.1-42.8 10.3-54.3-8.5-.2-.3-.4-.5-.6-.6 1.7-2.2 3.2-4.5 4-6.6 2.3-1.4 4.4-3.6 6-5.6 9.1 8.1 28.1 16 34.8 1.1 6.7-15-22.9-20.5-32.5-20.6.5-1.6 1-3.3 1.5-4.9.7-2.4 1.8-5 2.1-7.5 7.1-1 13.8-3.4 20.2-6.7 1.3-.7.9-2.7-.2-3.3-6.2-3.2-13.1-5.1-20.1-5.5.5-3.6 1-8.3 2.4-10.3 3.8-5.1 11-1.7 16-.8l27.9 5.3c-1 5.2-2.4 10.3-3.7 15.4-.1 0-.3 0-.5.1-9.6 3.6-18.9 7.7-28.4 11.7-1.8.8-1.9 3.8.3 4.1 9.7 1.4 20.4 2.7 28.2 9.1 12.2 9.8 9 25.6-3.1 34.1z" fill="#1D1D1C"/></svg>