<svg width="57" height="76" fill="none" xmlns="http://www.w3.org/2000/svg"><path d="M53.832 1.999c-4.004.005-7.03 4.153-8.937 8.001-4.542 1.484-8.64 5.12-11.71 8.611-3.16 3.65-5.971 7.608-9.165 11.134-4.057 4.29-8.465 6.273-13.712 8.613-1.801.75-2.306 2.354-1.939 3.724-.393 4.51 2.36 8.312 5.853 11.38.65 1.429 1.889 2.565 3.9 3.094.157.092.44.15.564.116.474.274.981.672 1.455.945 7.39 4.161 15.83 5.77 24.023 7.447 2.26.463 5.049-1.086 4.88-3.71-.602-9.718 6.524-17.501 10.102-26.07 2.195-5.26 3.573-12.571 1.382-18.259.273-.473.547-.947.63-1.637.766-4.61-.914-13.372-7.326-13.39z" fill="#FEC708"/><path d="M58.72 6.296c-3.45-2.413-8.264-.455-9.198 3.533-5.848.098-11.475 4.009-15.125 8.324-3.467 4-6.078 8.704-9.545 12.704-4.172 4.856-9.459 8.542-15.104 11.39-.125.033-.216.19-.307.349-.124.033-.34.224-.273.474.767 2.864 2.88 5.769 5.623 7.036.158.092.158.092.283.058-.272 2.476.745 5.274 3.047 6.393 1.613 1.036 3.582.909 5.259.193 7.364 4.568 15.368 8.03 23.669 10.612.44.149.747-.2.805-.483.25-.067.59-.291.456-.79-.564-13.065 6.884-22.136 11.539-33.663 2.252-5.543 2.966-13.343-.745-18.223 1.28-.209 1.75-1.937 1.824-3.158.189-1.787-.686-3.555-2.207-4.749zM12.105 46.555c-.765-.863-1.248-1.669-1.764-2.598a175.97 175.97 0 017.627 1.56c-1.552.684-2.373 2.105-2.878 3.709-1.014-.797-2.153-1.56-2.985-2.671zm9.131 9.167c-6.12.572-6.322-7.65-1.698-9.824 3.017.794 5.942 1.745 8.842 3.104-.818 3.423-3.49 6.408-7.144 6.72zm3.108.636c2.573-1.357 4.53-4.017 5.3-6.626l.79.456c6.35 3.771 11.506 9.065 15.21 15.415-7.271-2.725-14.236-5.798-21.3-9.245zm28.69-14.496c-3.64 6.85-6.455 14.278-6.512 22.037-7.265-11.67-22.022-22.401-36.348-20.565l-.25.067-.033-.125.125-.033c7.92-3.324 14.085-8.714 19.16-15.68 5.45-7.067 14.354-20.667 25.242-14.907 11.803 6.182 2.925 21.377-1.385 29.206zm2.961-30.297l-.631-.364c-.79-.456-1.67-.754-2.518-.928.456-.79 1.26-1.272 2.142-.974.88.298 1.305 1.386 1.007 2.267zm3.597-.029c-.116.565-.763 1.14-.471 1.729-.258-.465-.881-.298-1.063.017-.35-.306-.732-.738-1.206-1.011.663-1.513.004-3.473-1.6-3.977-1.446-.414-2.931.518-3.378 1.84-.565-.116-.972-.14-1.537-.256 1.118-2.302 3.343-3.966 6.076-3.23 1.288.322 2.494 1.334 2.985 2.67.325.715.276 1.529.194 2.218z" fill="#1D1D1C"/></svg>