<svg width="53" height="56" fill="none" xmlns="http://www.w3.org/2000/svg"><path d="M17.707 55.426c-6.753-.892-12.614-3.44-16.946-7.645-9.301-8.92-9.556-26.248-.637-35.804C5.985 5.734 15.67 2.676 25.352 3.822c2.294.255 4.587.892 6.753 1.657.638.255.638.764.638 1.147-.128.51-.51.892-1.02.764h-.255l-.254-.127-.255-.128c-1.784-.637-3.568-1.019-5.48-1.274C14.268 4.46.507 9.43-3.188 21.28-5.355 28.285-5.099 38.225.634 44.85c3.95 4.715 10.066 7.773 17.073 8.665.255 0 .51 0 .765.127 11.722 1.147 26.885-2.548 30.962-16.819 2.548-8.919 1.402-19.112-2.676-25.993-2.803-4.714-6.88-7.645-11.977-8.791-.637-.128-.892-.765-.764-1.275.127-.382.51-.764 1.02-.764 12.868 2.803 18.22 16.437 17.837 27.904-.51 13.251-7.008 22.68-18.093 25.993-5.606 1.784-11.595 2.294-17.073 1.529z" fill="#8BCBB7"/><path d="M37.202 33.383s-.127 0 0 0l-.127-.127c.127-.637.255-1.147.382-1.784h.637c1.147.128 2.166.255 3.313.382a.7.7 0 01.637.383c.127.255.127.382.127.764 0 .51-.51.892-1.019.892l-3.44-.382-.51-.128zm-5.861-.509c-.637-.128-.892-.638-.892-1.147 0-.51.51-.892 1.02-.892l4.204.382c0 .765-.127 1.274-.255 1.911-1.401 0-2.675-.127-4.077-.254z" fill="#8BCBB7"/><path d="M35.8 31.472l-.127-.128c.255-.892.382-1.91.637-3.058.128-.637.637-.892 1.147-.892a.7.7 0 01.637.383c.127.255.255.382.127.637a21.582 21.582 0 01-.637 3.058h-1.783zm-.51 7.39a.7.7 0 01-.636-.383c-.128-.255-.255-.382-.128-.764A43.457 43.457 0 0135.546 33h1.02l.891.128v.382c-.382 1.402-.764 2.93-.892 4.46-.255.764-.892 1.019-1.274.892z" fill="#8BCBB7"/><path d="M35.418 33.256l-.127-.127c.127-.383.255-.892.255-1.275l.127-.382h1.02l.891.128c0 .764-.127 1.274-.254 1.91h-1.147l-.765-.254z" fill="#8BCBB7"/><path d="M23.823 14.398c-3.185 4.714-6.37 9.429-9.556 14.016 1.274-1.274 2.803-2.421 4.46-3.058 1.656-.637 3.695-.765 5.351-.128 2.549 1.02 3.95 3.95 3.695 6.626-.255 2.676-2.038 5.097-4.332 6.498-2.293 1.402-5.096 1.911-7.772 1.784-2.039 0-4.078-.382-5.989-1.02" stroke="#8BCBB7" stroke-width="2.234" stroke-miterlimit="10" stroke-linecap="round" stroke-linejoin="round"/><path d="M22.04 14.78c5.733-.255 11.34-.382 17.073-.637l-17.073.637z" fill="#097273"/><path d="M22.04 14.78c5.733-.255 11.34-.382 17.073-.637" stroke="#8BCBB7" stroke-width="2.234" stroke-miterlimit="10" stroke-linecap="round" stroke-linejoin="round"/></svg>