<svg width="125" height="133" fill="none" xmlns="http://www.w3.org/2000/svg"><path d="M3.82 62.056c-.527-.132-.79-.527-.922-1.054s.132-1.054.527-1.449c.395-.263.79-.395 1.317-.132l1.186.396c-.659.922-1.317 1.58-1.844 2.24H3.82zm15.281-1.054c-.658-.263-1.054-.922-.922-1.713.132-.395.395-.658.79-.922.396-.131.791-.131 1.054 0 .264.132.396.264.527.396l.132.263v.132c-.395-.132-.79.131-1.054.395-.263.395-.395.79-.131 1.186 0 0 0 .131-.132.131-.132.264-.264.264-.264.132z" fill="#8BCBB7"/><path d="M21.21 60.08l-.396-.396-.264-.395s0-.132.132-.132h.264c.263.132.658.264.922.264v.131l-.132.132-.395.264c0 .131 0 .131-.132.131z" fill="#8BCBB7"/><path d="M19.233 61.133s-.132-.132 0 0c-.263-.527-.263-1.185.132-1.58.395-.396.79-.66 1.317-.527l.395.395.264.395-1.054 1.054a1.024 1.024 0 01-1.054.263zM1.054 64.69A1.43 1.43 0 010 63.636c0-.395 0-.79.263-1.185 2.503-3.557 5.928-6.324 9.09-8.563.395-.264.922-.395 1.317-.264.132 0 .264.132.396.132 0 0 .131.132 0 .132 0 .132-.132.132-.132.132-.395 0-.659 0-.922.131-.264.132-.264.396-.395.79l-.132 2.108c-1.45 1.186-2.371 1.977-3.294 2.899l-.658-.132-.527-.264c-.659-.263-1.186.132-1.45.66-.13.526-.13 1.185.66 1.448l.131.132v.132c-.658.658-1.185 1.449-1.712 2.107-.396.659-1.054.922-1.581.659zm8.036 2.503c-.527-.263-.923-.79-.79-1.449.13-.79.263-1.58.394-2.371.66 0 1.186.132 1.713.132.395 0 .659-.132.922-.396 0 0 .132-.131.132 0l.132.132-.396 2.766c-.131.396-.395.79-.658 1.054-.527.264-1.054.264-1.45.132z" fill="#8BCBB7"/><path d="M11.593 62.056c-.132 0-.132-.132 0 0-.264-.395-.396-.527-.66-.659h-.262c-.527-.131-1.054-.131-1.581-.263 0-1.45 0-2.635.131-3.82.527-.528 1.186-.923 1.713-1.318.263-.263.395-.527.395-.79 0-.396-.263-.659-.527-.922 0 0 0-.132.132-.132h.263c.66.263.923.79.923 1.317v1.054c-.132 1.713-.264 3.557-.396 5.401 0 0 0 .132-.131.132z" fill="#8BCBB7"/><path d="M9.353 57.313s-.132 0 0 0c-.132 0-.132 0-.132-.132v-2.107c0-.395.132-.79.396-.922.263-.264.658-.396 1.185-.264.395.264.659.79.659 1.186 0 .263-.132.658-.527 1.054l-1.58 1.185zm-5.269 4.742s-.132 0 0 0c-.132-.131-.132-.263-.132-.263l1.976-1.976c1.054.263 2.108.659 3.293.922 0 1.054 0 1.844-.131 2.635-1.976-.132-3.689-.79-5.006-1.318zm7.246 1.318l-.133-.132c0-.395 0-.659.132-1.054v-.395s0-.132.132-.132h.131s.132 0 .132.132c.264.527.132 1.185-.132 1.58 0 0-.131.132-.263 0z" fill="#8BCBB7"/><path d="M8.826 63.505l-.132-.132c.132-.79.132-1.712.264-2.503.659 0 1.185.132 1.712.132.132 0 .264 0 .264.132.263.131.527.395.659.658v.395c0 .396-.132.79-.132 1.186-.264.395-.659.659-1.186.527a21.615 21.615 0 00-1.449-.395c0 .131 0 0 0 0zm58.094 53.352a1.81 1.81 0 01-.526-.396L18.443 60.606c-.264-.395-.396-.79-.264-1.185 0-.132.132-.132.132-.132.132 0 .132.132.132.132-.132.527.263 1.054.79 1.317l.264.132c.131.263.263.395.526.527l2.108.659 1.976.658 2.898 3.293 40.179 46.766-.132.79-.395 1.449c-.132.659.264 1.186.79 1.449.132 0 .264.132.264.132v.132c-.395.132-.659.132-.79.132z" fill="#8BCBB7"/><path d="M18.18 59.552c-.133 0-.133-.131-.133-.131.132-.264.264-.527.527-.79 7.773-6.06 15.677-11.989 23.58-17.916C59.149 27.805 76.802 14.367 93.268.404c.395-.263.922-.395 1.318-.263.131 0 .131.131.131.263s0 .132-.131.132c-.396-.132-.79-.132-1.054.131-.264.132-.527.396-.527.79l-.395 1.977-.396 1.317c-15.808 13.305-32.538 26.083-48.61 38.335L21.869 59.684l-.659-.132-.527-.131h-.263l-.264-.264-.395-.395a.84.84 0 00-.79 0 1.588 1.588 0 00-.659.659c.132.131 0 .131-.132.131zm89.446 30.299c0-.263-.132-.659-.658-.79l-1.318-.396-.658-.395-1.713-11.329-3.162-23.185-3.293-23.185.264-.395c.131-.132.263-.395.131-.659 0-.263-.263-.527-.395-.527s-.263-.132-.263-.132l-.132-.79-.264-1.45.264-.263a3.99 3.99 0 01.922-.658c.264-.132.264-.395.264-.527 0-.264-.264-.527-.527-.527-.132 0-.396-.132-.66.132 0 0-.263.131-.394.131h-.264v-1.185l-.263-2.371.395-.66.527-.658c.132-.131.132-.395.132-.527 0-.263-.264-.395-.396-.527-.263-.131-.527 0-.658.132h-.132s-.132 0-.132-.132l-.263-1.712-.132-.527.395-.79c.264-.396.527-.79.79-1.318.132-.263.132-.395.132-.527-.131-.263-.263-.395-.395-.527-.132 0-.395-.132-.658.264l-.264.263s-.132.132-.263.132h-.132l-.264-1.976-.526-3.82.79-3.557.79-3.425c0-.132.132-.264.132-.264h.132l6.323 44.263 6.191 44.262-.395.132z" fill="#8BCBB7"/><path d="M68.37 116.462c-.132-.132-.132-.132-.132-.264s.132-.132.132-.395l.79-3.293 8.695-5.665L98.273 93.54l5.269-3.425 1.318.395 1.185.395c.396.132.791 0 .923-.131.263-.264.526-.527.526-.922 0-.132.132-.132.132-.132l.132.132c0 .526-.132.922-.527 1.185l-19.496 12.646L68.5 116.462s0 .131-.131 0z" fill="#8BCBB7"/><path d="M67.448 116.856l-.132-.131c0-.132.132-.132.132-.132.263 0 .527-.132.79-.263 0 0 .263-.132.263 0l.132.131c-.263.395-.79.527-1.185.395zm.263-2.898c-.132 0-.132 0 0 0l-.527-.527-.395-.527A3920.145 3920.145 0 0091.95 4.751l.263-.395.79-.659.791 3.82.132.923c-.79 3.425-1.449 6.85-2.24 10.275l-1.975 2.766c-.132.264-.132.395-.132.527 0 .264.263.395.395.527s.395 0 .527 0h.132s.131.132 0 .132l-.395 1.976-.396 2.108-.527.79c-.79 1.054-1.58 2.108-2.37 3.293v.527c0 .264.263.395.394.527.132 0 .527.132.659-.263l.263-.395.396-.527s.131-.132.131 0c.132 0 .132.131.132.131l-.263.922-.264 1.054c-.658.79-1.185 1.581-1.712 2.372-.659.79-1.186 1.58-1.845 2.37-.131.133-.131.396-.131.528 0 .263.263.395.395.527.132 0 .527.131.79-.264.395-.527.79-.922 1.054-1.449l.264-.263s.131-.132.131 0l.132.131-.395 1.845-.659.79-2.371 2.503c-.132.132-.132.263-.132.527 0 .132.264.395.395.527.264.132.527 0 .79-.132l.923-1.054h.132l.132.132c-2.767 12.383-5.797 24.898-8.695 37.28l-1.054-.131c-.659-.264-1.185.131-1.449.658-.132.527-.132 1.054.527 1.318l1.186.395c-2.371 10.539-5.006 20.946-7.51 31.353l-1.053.658-.79.527h.263z" fill="#8BCBB7"/><path d="M67.184 116.856c-.659-.263-1.186-.922-.922-1.844l.132-.79.395-1.449s0-.132.132-.132h.131l.922 1.054.66-.527.921-.659h.132s.132.132 0 .132l-.79 3.293c0 .264-.132.396-.264.396l-.263.131c-.264.132-.527.264-.922.264-.132.131-.264.131-.264.131zm.395-2.898l-.395.396v.131l.659.132h.395l-.659-.659z" fill="#8BCBB7"/><path d="M66.657 114.617c-.132 0-.132 0 0 0-.132-.132-.132-.264 0-.264l.659-.395.395-.263.922.922v.132l-.132.131-.922-.131-.922-.132zm33.724-25.161c-.132 0-.132 0 0 0-.922-.395-1.054-1.054-.79-1.713.263-.658.922-1.185 1.844-.922.79.264 1.712.527 2.503.79l1.317.396.132.527.132.79c0 .132 0 .264-.132.264s-.132.131-.264.131l-1.054.527-.395.264c-1.185-.395-2.239-.659-3.293-1.054z" fill="#8BCBB7"/><path d="M103.674 90.51c-.131 0-.131 0 0 0-.131-.132-.131-.264 0-.264l.791-.526.395-.264c.132-.132.263-.132.263-.132v-.395l-.131-.659c.922 0 1.449.264 2.239.396.659.263.922.658.922 1.185 0 .659-.263 1.054-.658 1.318-.396.263-.791.263-1.186.131l-1.449-.395-1.186-.395z" fill="#8BCBB7"/><path d="M105.387 89.983c-.132 0-.264-.263-.264-.527.264-.263.527-.263.527-.263.132.132.264.263.132.527 0 0-.132.263-.264.263h-.131zM88.13 85.504c-.922-.395-1.054-1.186-.79-1.713.263-.658.921-1.185 1.844-.922 2.37.79 4.742 1.58 7.245 2.371.922.395 1.054 1.054.79 1.713-.263.659-.922 1.185-1.844.922-2.503-.79-4.874-1.58-7.245-2.371zm-11.066-3.82c-.132 0-.132-.132-.132-.132l.659-2.503c2.503.659 4.874 1.581 7.245 2.371.922.396 1.054 1.186.79 1.713-.263.659-.921 1.186-1.844.922l-6.718-2.371z" fill="#8BCBB7"/><path d="M75.879 81.289c-.923-.395-1.054-1.186-.79-1.713.263-.658.921-1.185 1.843-.922l.79.264-.131 1.449-.263 1.185-.923-.131-.526-.132zm-10.012-3.557c-.922-.395-1.054-1.186-.79-1.713.263-.658.922-1.185 1.844-.922l1.976.659 3.688 1.317c.922.395 1.054 1.186.79 1.713-.263.658-.921 1.185-1.844.922l-5.664-1.976zm-11.461-4.084c-.922-.395-1.054-1.186-.79-1.713.263-.658.922-1.185 1.844-.922l6.982 2.503c1.053.395 1.185 1.186.922 1.844-.264.659-.922 1.186-1.844.922l-3.557-1.317-3.557-1.317zm-11.329-3.952s-.132 0 0 0c-.922-.395-1.054-1.186-.79-1.713.263-.659.922-1.186 1.844-.922l7.113 2.503c.922.395 1.054 1.186.79 1.713-.263.658-.922 1.185-1.844.922l-7.113-2.503zm-11.461-3.952c-.922-.395-1.054-1.186-.79-1.713.263-.658.922-1.185 1.844-.922 2.108.79 4.215 1.45 6.455 2.24.922.395 1.054 1.185.79 1.712-.263.659-.922 1.186-1.844.922-2.24-.79-4.347-1.58-6.455-2.239zm-7.772-2.634c0-.132-.132-.132 0 0l-2.635-3.03v-.132l.132-.132.263-.263 4.61 1.449 2.109.79c.922.395 1.053 1.186.79 1.713-.263.658-.922 1.185-1.844.922l-1.845-.659-1.58-.659z" fill="#8BCBB7"/><path d="M19.892 61.66a1.349 1.349 0 01-.79-.658v-.132h.131c.264.132.659 0 .922-.264l.527-.395.527-.395 1.45 1.449 1.317 1.45v.13s-.132.133-.132 0l-3.952-1.185zm38.729 69.819l-.395-.395c.132.263.264.395.395.395zm-.658-1.976c-.132 0-.132-.131 0 0-.395-3.293 0-5.532 1.054-7.113.131-.264.263-.395.526-.395h.132v.131c-.131.527.132 1.054.659 1.318a.402.402 0 00.527 0h.263l.264.131c0 .264-.132.396-.264.527-.131.264-.263.396-.395.659-.659.132-1.054.659-1.185 1.186 0 .395.131.79.658.922 0 1.185.132 2.239.264 3.03 0 0 0 .131-.132.131h-.132c-.263-.131-.395-.263-.658-.527l-.396-.395c-.527-.131-1.054.132-1.317.395h.132z" fill="#8BCBB7"/><path d="M59.939 132.533c-.527-.263-1.054-.527-1.45-.79v-.132h.264c.395.132.922.132 1.186-.132.263-.263.395-.527.395-1.054v-.395l.132-.263c.131.131.263.131.395.263.79.264 1.449.132 2.108-.395.131-.132.263-.395.263-.527-.132-.527-.922-1.054-2.24-1.581-.263-.132-.526-.263-.658-.263-.132-1.186 0-1.976.263-2.635 0 0 .264-.132.396-.132.922 0 1.317-.263 1.317-.527 0-.131-.132-.263-.264-.263-.131 0-.395-.132-.79-.132 0-.79-.395-1.317-.922-1.449a.838.838 0 00-.79 0h-.132s-.132-.132 0-.132c.132-.658.527-1.054 1.185-1.185.923-.132 1.845-.132 2.767.263 1.317.527 1.976 1.449 1.976 2.767 0 .922-.395 1.712-1.054 2.239.79.395 1.844 1.317 1.976 2.635.132.79-.263 1.581-.922 2.371-1.45 1.581-3.425 2.108-5.401 1.449zm1.712-7.64l-.395-.132-.132 1.185-.263 1.186c1.054-.132 2.371-.527 3.161-1.186-.658-.263-1.449-.79-2.37-1.053z" fill="#8BCBB7"/><path d="M60.73 127.132s-.133 0 0 0c-.133 0-.133-.132-.133-.132l.264-1.185.263-1.186h.659c.79.263 1.712.79 2.371 1.317-.79.922-2.107 1.186-3.425 1.186zm-2.504 4.084c-.132 0-.132-.132 0 0l-.263-.264a1.384 1.384 0 010-1.712s.131-.132.131 0l.132.131c0 .396.132.923.132 1.318 0 .132 0 .263.132.395 0 .132 0 .132-.132.132h-.132zM60.334 127c-.527-.264-.922-.659-.79-1.317 0-.527.527-1.186 1.317-1.318-.132.791-.264 1.581-.264 2.503 0 0 0 .132-.131.132 0 0-.132.132-.132 0zm0-3.425c-.659-.264-.922-.922-.79-1.581.395-.263.79-.263 1.053-.132.527.264 1.054.923.923 1.713 0 .132-.132.132-.264.132-.527 0-.79 0-.922-.132z" fill="#8BCBB7"/><path d="M58.753 131.742l-.263-.131-.396-.395c-.131-.264-.263-.396-.263-.527 0-.396-.132-.791-.132-1.186.395-.79 1.054-1.054 1.581-.79.264.131.395.263.527.527.132.263.395.395.527.526l.132.396c.131.658-.132 1.185-.395 1.449-.132.263-.79.263-1.318.131zm59.017-31.747c-2.371-.922-3.689-2.24-4.084-3.952-.395-2.24 1.054-4.084 1.976-5.006 1.713-1.58 4.611-2.898 6.718-2.107 1.054.395 1.845 1.317 2.108 2.766.132.527 0 .922-.395 1.186-.395.395-1.054.395-1.581.263-.395-.132-.79-.527-.922-1.054-.132-.395-.263-.527-.527-.658-.922-.396-2.898.922-3.688 1.712-.659.659-1.186 1.713-.923 2.371.264.79.923 1.318 2.108 1.713.527.263 1.054.395 1.581.527.922.395 1.054 1.054.79 1.58-.263.66-.922 1.318-1.844 1.054-.263 0-.79-.131-1.317-.395zM90.633 22.8c-.132 0-.132-.132-.132-.132l.395-2.108.395-1.845c1.054-1.58 2.108-3.03 3.03-4.61l.132-.132s.132 0 .132.132l.395 2.503a64.646 64.646 0 01-4.084 5.796l-.263.264c.131.131.131.131 0 .131z" fill="#8BCBB7"/><path d="M89.974 22.8a1.587 1.587 0 01-.659-.66c-.131-.263 0-.526.132-.79.527-.658 1.054-1.317 1.45-1.976l.394-.658s.132-.132.132 0c.132 0 .132.131.132.131l-.527 2.503-.132 1.318c-.395.263-.659.263-.922.131zm-1.054 8.035c-.132 0-.132-.132-.132-.132l.527-2.371.396-1.713 1.58-2.108c1.318-1.712 2.503-3.556 3.82-5.269 0 0 .132-.132.264-.132h.132l.263 1.45.132.922-2.371 3.161c-1.45 2.108-3.03 4.084-4.48 6.192h-.13z" fill="#8BCBB7"/><path d="M95.638 21.481c-.131 0-.131 0 0 0l-.263-1.58-.132-.922c.264-.396.659-.396 1.054-.264.264.132.527.395.659.659.132.263 0 .527-.132.79l-.79.922-.264.395h-.132zM87.34 32.02a1.588 1.588 0 01-.66-.658c-.131-.264 0-.527.132-.79.79-1.186 1.581-2.24 2.372-3.426l.526-.658s.132-.132.132 0l.132.131-.395 1.713-.527 2.371-.395.659-.264.395c-.263.395-.659.527-1.054.264zm.131 4.874c-.132 0-.132-.131-.132-.131l.395-1.45.527-2.37c2.108-2.767 4.611-5.797 7.641-8.168l.263.527.264 1.449c-3.293 2.766-5.928 6.323-8.431 9.748l-.395.527c0-.132 0-.132-.132-.132z" fill="#8BCBB7"/><path d="M96.297 26.62c-.132 0-.132 0 0 0l-.263-1.845s.131-.264.263-.264l.264-.131c.263-.132.658-.264.922-.132.395.132.658.527.658.79 0 .264-.131.659-.395.79a4.003 4.003 0 01-.922.66s-.132.131-.263.131h-.264zM85.231 38.87a1.587 1.587 0 01-.658-.658c-.132-.264 0-.528.132-.79.658-.791 1.185-1.582 1.844-2.372.527-.79 1.185-1.58 1.712-2.371 0 0 .132-.132.132 0l.132.131-.527 2.372-.395 1.58-.264.396c-.395.526-.658.922-1.054 1.449a1.023 1.023 0 01-1.053.263zm1.054 3.03c-.131 0-.131-.132-.131-.132l.263-1.317.395-1.844c3.294-3.689 6.06-6.719 9.09-9.617.132-.132.395-.263.659-.263l.263 1.053.132.923c-3.03 3.161-6.06 6.323-8.826 9.484l-1.713 1.845c0-.132 0 0-.132-.132z" fill="#8BCBB7"/><path d="M96.824 30.703l-.132-.527-.131-1.318.131-.131h.264c.263.131.527.395.659.79.131.395 0 .659-.264.922l-.263.264h-.264c.132 0 0 0 0 0zM84.441 43.218a1.587 1.587 0 01-.659-.659c0-.263 0-.527.264-.79l3.03-3.293h.132l.131.131-.395 1.713-.395 1.58-.527.528-.527.527a1.025 1.025 0 01-1.054.263z" fill="#8BCBB7"/></svg>