<svg width="94" height="82" fill="none" xmlns="http://www.w3.org/2000/svg"><path d="M20.688 24.471l-3.734-2.715c.34-.678.68-.848 1.018-.848l92.143-18.496 7.466-1.528c.509-.17 1.018 0 1.527.34a2.21 2.21 0 01.849 2.206c-.17.848-.849 1.357-1.697 1.527L66.674 15.308l-.51-.509c0-.17-.169-.34-.339-.509l-.339-.34c-.679-.508-1.358-.339-1.867 0-.509.34-.848 1.019-.678 1.698l-42.084 8.654c0 .17 0 .17-.17.17z" fill="#8BCBB7"/><path d="M92.127 81.148L.834 14.46c-1.018-.849-1.018-2.037-.34-2.885.68-.849 1.697-1.188 2.885-.51l14.084 10.352c-.339.679-.509 1.188-.509 1.697 0 .509.17.848.51 1.188.339.17.678.339 1.187.17l1.188-.17 1.018-.17 32.75 23.757c-.339 1.018 0 2.036.68 2.375.508.51 1.357.34 1.866 0 0 0 .509-.34.509-.17l38.01 27.83c1.019.848 1.019 2.036.34 2.885-.679.678-1.866 1.018-2.885.34z" fill="#8BCBB7"/><path d="M17.294 24.641c-.51-.34-.68-.848-.849-1.527 0-.679.17-1.358.51-1.697l3.902 2.715.17.17c0 .17-.17.17-.17.17l-2.206.508c-.509 0-1.018 0-1.357-.339zm39.029 25.623l-3.055-2.206c0-.51.17-.679.51-.848 4.92-3.734 10.69-12.049 11.708-20.194.51-4.242-.34-7.805-2.545-10.52-.17-.17-.34-.34-.34-.51l3.903-1.018c7.467 11.03-1.018 28.339-10.012 35.466 0 0-.17 0-.17-.17z" fill="#8BCBB7"/><path d="M62.77 15.986c-.169 0-.169 0 0 0-.339-.848 0-1.866.68-2.375.678-.51 1.697-.51 2.375 0 .17.17.34.17.51.34.169.169.339.508.508.678l.17.34v.339l-3.733.678c-.51.17-.51 0-.51 0zm-8.823 34.618c-.849-.51-1.188-1.697-.679-2.715l3.224 2.036v.34s-.17.169-.17.339c-.848.509-1.696.509-2.375 0zm15.273.509c-.34-.34-.68-.848-.68-1.357 0-.51.34-1.019.68-1.188.848-.51 1.866-1.018 2.884-1.527h.17v.339c-.34.34-.34 1.018.17 1.357l.678.51c-1.018.848-2.036 1.357-2.885 1.866-.17.34-.678.34-1.018 0zm4.072-4.243c-.17 0-.17 0 0 0-.17-.17 0-.34 0-.34l2.715-1.357 6.109-3.054h.17v.339c-.17.17-.17.17-.17.34l-.849 2.884c-1.697 1.018-3.224 1.697-4.92 2.545l-.51.17-2.036-1.357c-.17 0-.34-.17-.51-.17zm9.333-4.75s0-.17 0 0c-.17-.17 0-.34 0-.34.34-.17.678 0 1.018.17.17.17.34.339.509.678 0 .17 0 .17-.17.34h-.17c0-.17-.17-.34-.339-.34-.17-.509-.509-.509-.848-.509.17 0 0 0 0 0z" fill="#8BCBB7"/><path d="M82.794 41.95c-.17 0-.509.17-.678.34.17 0 .34-.17.34-.17.169-.17.169-.17.338-.17zm-4.751 15.611c-.51-.34-.679-1.018-.51-1.527l.85-2.715.848.17c.509.339 1.018.17 1.357-.17.34-.34.34-1.018-.17-1.358l-1.018-.848c.34-1.697.849-3.224 1.358-4.752l.34-.848c.848-.51 1.696-1.018 2.545-1.358.509-.339.509-.848.509-1.357 0-.17 0-.17.17-.34h.17c.169.34.169.68.169 1.019-1.188 4.412-2.715 8.654-4.073 13.066-.17.679-.509 1.018-.848 1.018-.679.34-1.188.17-1.697 0z" fill="#8BCBB7"/><path d="M80.928 45.683s-.17-.17 0-.17l.17-.679c.17-.678.508-1.357.678-2.206 0-.17.17-.34.34-.509 0 0 .678-.34.848-.34.34 0 .679.17 1.018.34l.51.51c.169.678.169 1.357-.68 1.866-.848.509-1.697.848-2.375 1.357-.34-.17-.51-.17-.51-.17zm-2.376 7.805l-5.26-3.903c.848-.848 1.697-1.188 2.375-1.527l3.903 2.715-.34 1.527-.338 1.188s0 .17-.17.17c0-.17-.17-.17-.17-.17zm-6.448-6.109c-.17-.17-.17-.17 0-.34.34-.339.679-.678 1.188-.678h.17l.17.17c0 .17 0 .17-.17.17l-.51.508-.508.34c-.17-.17-.17-.17-.34-.17z" fill="#8BCBB7"/><path d="M73.122 49.585l-.679-.509a1.381 1.381 0 01-.339-1.867l.679-.339.509-.34c.34 0 .679 0 .848.17l1.697 1.358c-.848.848-1.697 1.188-2.375 1.527h-.34zm5.77 4.242l-.34-.339.679-2.715 1.358.679c.678.509.678 1.357.339 2.036-.51.51-1.188.849-2.036.34zm10.351-1.017c-1.358-1.019-1.867-2.716-1.527-4.582.17-1.188.848-2.037 1.697-2.715 1.018-.679 2.206-.849 3.393-.51h.34c.34.17.848.34 1.188.68 1.527 1.187 2.036 2.884 1.187 4.581-.848 1.867-2.884 3.564-4.92 3.054-.34 0-.85-.339-1.358-.508zm2.885-5.091c-.849-.17-1.358.34-1.528.678-.339.68-.17 1.697.34 2.037.17.17.34.17.509.17.679 0 1.527-.849 1.697-1.528.17-.509 0-.848-.34-1.188-.17 0-.509-.17-.678-.17zm.678-2.376s-.17 0 0 0c-.509 0-1.018.34-1.018.679-.17.34-.17.848.17 1.018h.34c.508.17 1.017-.17 1.187-.679.17-.34.17-.848-.17-1.018l-.17-.17h-.169l-.17.17z" fill="#8BCBB7"/><path d="M91.618 47.38c-.509-.34-.678-1.019-.34-1.698.34-.509.85-1.018 1.698-.848.17 0 .34.17.509.17.509.34.509 1.018.34 1.527-.34.51-.85 1.018-1.698.848-.17.17-.34.17-.509 0z" fill="#8BCBB7"/></svg>