<svg width="141" height="245" fill="none" xmlns="http://www.w3.org/2000/svg"><path d="M13.73 243c58.283 0 105.53-47.247 105.53-105.53S72.013 31.94 13.73 31.94-91.8 79.187-91.8 137.47-44.553 243 13.73 243z" stroke="#FEC707" stroke-width="2.407" stroke-miterlimit="10"/><path d="M126.926 9.199c-6.133 0-10.477 4.088-12.01 9.454-.766.767-1.533 1.278-2.3 2.3a21.534 21.534 0 00-5.365 8.943c0 .511-.256 1.022-.256 1.278-11.498-5.877-25.552 9.965-14.565 20.441 5.11 4.855 8.944 9.966 16.865 9.966 7.41 0 13.798-5.366 17.886-10.988 1.533-2.3 2.811-4.855 3.577-7.41.511-1.533.767-3.322 1.022-4.855v-.255l.256-.256c.511-.255.767-.766 1.278-1.022 1.277-1.277 2.299-2.3 3.321-3.833 2.3-3.321 3.322-6.899 3.578-10.987 0-6.9-6.644-12.776-13.287-12.776z" fill="#E7393B"/><path d="M98.052 50.338c3.066 2.555 6.132 4.855 8.943 7.41 3.577-3.322 4.344-7.921 3.066-12.776-.255-.511 0-1.278.511-1.533 7.155-5.622 12.521-13.032 18.398-19.931l.511-.511-2.3-3.066c-1.277-1.533.767-3.578 2.044-2.044 1.022 1.022 1.789 2.3 2.555 3.321 2.811 4.344 5.366-2.3 2.556-5.366-1.789-2.044-3.578-4.088-5.622-5.877-3.322-3.066-12.265-10.731-15.331-4.599 4.599 1.533 8.432 5.366 12.009 8.432 1.789 1.533-.511 3.577-1.788 2.3-3.066-2.81-6.133-5.877-9.965-7.41 0 0 0 .255-.256.255-6.132 6.388-12.52 13.032-17.886 20.186-.256.511-.767.767-1.278.767-4.088-.511-8.943-.511-12.01 2.81-2.81 3.067-1.788 2.3.767 4.856 4.855 4.599 9.965 8.687 15.076 12.776zm9.454-31.174c0-.255.256-.51.256-.766s.255-.511.511-.767c.255-.511.766-1.022 1.022-1.533.511-.511 1.022-1.022 1.533-1.278.255-.255.511-.51.766-.51.256-.256.511-.256.767-.256.766-.511 1.533-.511 1.533-.511s-.255.766-.767 1.533c-.255.255-.255.51-.511.766-.255.256-.255.511-.511.767a3.074 3.074 0 01-1.277 1.277c-.511.512-.767 1.023-1.278 1.278-.255.256-.511.256-.511.511l-.511.511c-.766.767-1.277 1.022-1.277 1.022s0-1.022.255-2.044zm-4.855 6.388l.767-.766c.255-.256.511-.256.766-.256h1.022v1.533c0 .256-.255.511-.255.511-.256.511-.767.767-1.278 1.022-.511.256-.766.256-.766.256s-.256-.511-.256-1.022c-.511-.256-.255-.767 0-1.278z" fill="#E7393B"/><path d="M76.588 64.391c5.877-4.344 12.01-8.688 18.142-13.032-2.3-1.788-4.6-3.577-6.9-5.621-3.832 6.388-7.665 12.52-11.242 18.653z" fill="#fff"/><path d="M134.08 10.476l-.511-.51C129.992 6.131 122.582 0 116.705 0c-3.322 0-5.622 2.044-6.644 6.132-.255.512 0 1.023.511 1.278l-.766.767c-5.622 5.877-11.243 11.754-16.098 18.397 0 0-.511.256-2.3.256H87.32c-1.788.255-3.832 1.277-5.365 2.555-2.044 1.788-3.577 3.577-4.6 5.621-.255.511 0 1.278.512 1.789 2.3 2.3 4.599 4.6 7.92 7.154l-5.365 8.688-10.477 17.12a1.629 1.629 0 000 1.533c.256.511 1.023.767 1.534.767.51 0 .766-.256 1.277-.511 7.41-5.877 15.587-11.499 23.253-16.865l1.533-1.277c3.321 2.81 6.132 4.855 8.943 7.41.255.255.767.51 1.278.51s.766-.255 1.277-.51c4.6-3.577 6.388-8.943 5.366-15.331-.255-1.278 4.088-5.11 6.644-7.41 1.022-1.023 1.788-1.79 2.299-2.045 1.789-1.788 3.322-3.832 4.855-5.877l3.833-4.599.256-.255c.766.766 1.533 1.022 2.555 1.022 1.277 0 2.555-.767 4.088-2.045 1.278-1.277 1.789-2.555 2.044-4.088-1.022-3.577-4.344-7.155-6.899-9.71zM85.787 49.571l2.044-3.577c2.3 1.788 4.344 3.577 6.644 5.366-5.622 3.832-11.499 7.92-17.12 12.265l8.432-14.054zm49.571-28.107c-.256.766-.767 1.277-1.278 1.277s-1.277-.51-1.788-1.277c-.767-1.278-1.789-2.3-2.811-3.578-.256-.255-.767-.51-1.022-.51-.767 0-1.278.51-1.533 1.021-.256.512-.256 1.278.255 1.79.767.766 1.278 1.532 1.789 2.299l.511.51c-.256 0-.256.256-.511.256-1.278 1.534-2.555 3.067-4.089 4.855-4.343 5.366-8.943 10.732-14.564 15.331-.511.511-.511 1.278-.511 1.79 1.277 4.854.511 8.942-2.811 12.52-3.066-2.556-6.133-4.855-8.943-7.41-4.855-3.833-9.966-8.177-14.82-12.521-.511-.511-1.022-1.022-1.534-1.278-.51-.51-1.022-.766-1.022-1.022 0-.51.511-1.022 1.534-2.3 2.044-2.043 4.599-3.066 8.432-3.066 1.022 0 2.3 0 3.577.256.511 0 1.022-.511 1.278-.767 4.343-6.132 9.709-11.754 15.075-17.12l3.067-3.321c3.321 1.022 5.876 3.577 8.687 5.877l1.278 1.022c.255.255.766.51 1.022.51.766 0 1.533-.51 1.789-1.277.255-.51 0-1.277-.511-1.788l-1.023-.767c-3.321-3.066-6.643-6.132-10.987-7.41.767-1.278 1.789-2.044 3.322-2.044 4.088 0 9.71 5.11 11.754 6.899 1.533 1.533 3.066 3.066 4.344 4.6l1.022 1.277c1.533 1.533 1.533 4.088 1.022 5.366z" fill="#1D1D1C"/><path d="M112.105 13.543c-.255 0-.511.255-.511.255-.255 0-.511.255-.766.511-.767.511-1.278 1.022-1.533 1.533-.511.511-.767 1.022-1.278 1.789-.255.255-.255.51-.255.766s-.256.511-.256.767c-.511 1.022-.511 1.789-.511 1.789v.255s.767-.51 1.533-1.277l.511-.512.256-.255.255-.256 1.278-1.277c.511-.511.766-1.022 1.277-1.278l.256-.255.255-.256c0-.255.256-.255.511-.766.512-.767.767-1.534.511-1.789.256-.256-.511-.256-1.533.255zm-7.665 10.731h-.256c-.255 0-.511 0-.766.256l-.767.766c-.255.511-.511 1.023-.511 1.534 0 .51.256 1.022.256 1.022h.255s.511 0 1.022-.256c.511-.255 1.022-.511 1.278-1.022.255-.256.255-.256.255-1.022v-.511c.256-.511 0-1.022 0-1.022-.255.51-.511.255-.766.255z" fill="#1D1D1C"/></svg>