<svg width="185" height="280" fill="none" xmlns="http://www.w3.org/2000/svg"><path d="M222.4 70.6c0 37.9-30.7 68.6-68.6 68.6-37.9 0-68.6-30.7-68.6-68.6C85.2 32.7 115.9 2 153.8 2c37.9 0 68.6 30.7 68.6 68.6z" stroke="#FEC707" stroke-width="4" stroke-miterlimit="10"/><path d="M87.9 238c0 22.8-18.5 41.3-41.3 41.3-22.8 0-41.2-18.5-41.2-41.3 0-22.8 18.5-41.3 41.3-41.3 22.8 0 41.2 18.6 41.2 41.3z" fill="#FBB921"/><path d="M66.3 209.1c4.2-5 24.5-10.1 31-9.9 3.9.1 8.1.1 11.8-1.1 4.8-1.6 7.5-6.5 11-10.2 5-5.3 12.1-8.1 19.2-9.6s14.4-2 21.6-3.2c4.7-.8 9.8-2.2 12.4-6.2 3.3-5.1 1.1-11.7-1.1-17.4-1.7-4.2-3.4-8.5-16.8-41.8-1.3-3.3-2.7-6.8-5.3-9.3-5.7-5.7-15.4-5.1-22.8-1.7-8.6 4-15.6 10.9-21 18.7-5.4 7.8-9.4 16.4-13.4 25l-21.1 45.7c-1.1 2.3-2.2 4.7-2.3 7.3-.2 2.6.8 5.4 3.1 6.6" fill="#C6C6C6"/><path d="M27.1 135.9c6-3.9 13.3-8 20.5-9 1.8-.2 1.6-3-.1-2.8-7.7 1-15.5 5.3-21.9 9.5-1.5 1 0 3.3 1.5 2.3z" fill="#432918"/><path d="M106.1 190.2c-.2.4-.6.6-.9.7-.2.1-.4.1-.6 0-6.3-.9-12.5-.4-18.6 1.2-5.8 2.2-11.4 5.6-15.7 8.3C62 205.7 52.9 212 46.7 220c3.5-3.2 7.5-6.1 11.3-8.7 7.3-5 14.9-9.6 22.8-13.5 3.6-1.8 7.2-3.6 11.1-4.7 1.1-.3 2.1-.6 3.2-.7 1.7-.2 3.5 2.3 5.4 2.5 5.2.5 12-3.8 13-9.3.8-4.4 6.5-7.7 10.1-9.9 4.2-2.5 8.5-4.5 13.1-5.9-12.8 3.1-24.7 9-30.6 20.4zm58-24.3c-2.2.1-4.5.3-6.9.5 2.3 0 4.9 0 6.9-.5zM46.4 211.6c7.5-6.3 16-12.6 25.2-17.1-8.1 3.1-16.2 6.9-23.3 12-.8.5-1.8.1-2.1-.7-8.5-24.6-20.6-48.4-32.7-71.4-.8.5-1.6 1-2.2 1.6-2.1 1.7-1.4 1.3-.2 3.2 2 3.2 3.9 6.5 5.7 9.8 4.3 7.8 8.3 15.8 12.2 23.9 6 12.8 12 25.6 17.4 38.7z" fill="#C6C6C6"/><path d="M109.8 155.5c6.9-4 14.5-6.8 22-9.4-1.5-6.5-4.6-12.9-7.3-19-9.6 2.7-19.1 6.9-27.3 12.7 2.8 6.2 5.6 12.3 8.3 18.5 1.4-1.1 3-2 4.3-2.8z" fill="#E40135"/><path d="M149.9 158.7c-9.3-20.4-16.2-42.2-22.9-63.6-.7-2.4-1.5-4.7-2.2-7.1-.3-1.1-.7-2.2-1-3.3-.4-1.4 0-1.1-.8-1-8 1.2-15.7 4.1-22.8 8-10 5.6-19.8 12.6-27.5 21.3.3.1.5.4.7.7 10.9 23.2 20.7 47 31.7 70.2 7.1-16.8 27.6-23.8 44.8-25.2zm-66.5-43.2c8.4-10.2 23.1-18 36.3-19.1 1.8-.1 1.9 2.6.1 2.8-12.5 1-26.4 8.5-34.4 18.2-1.1 1.4-3.2-.5-2-1.9zm3.1 6.5c8.4-10.1 23-16.9 36.1-18 1.8-.1 1.9 2.6.1 2.8-12.3 1-26.2 7.5-34.1 17-1.2 1.4-3.3-.5-2.1-1.8zm3.4 7.6c9.3-9.3 21-13.8 33.6-16.5 1.7-.4 2.6 2.3.8 2.6-12.1 2.6-23.4 6.8-32.4 15.7-1.1 1.3-3.2-.5-2-1.8zm4.3 10.1c-.3-.7 0-1.2.5-1.5l.1-.1c9-6.5 19.5-11.2 30.1-14 .8-.2 1.4.2 1.8.9 3 6.9 6.7 14.1 8.2 21.6.1.7-.1 1.5-.9 1.8-7.7 2.6-15.6 5.3-22.6 9.5-1.8 1-3.8 2.1-5.2 3.7-.8.9-1.9.4-2.4-.5-3.2-7.2-6.4-14.3-9.6-21.4z" fill="#fff"/><path d="M67 121.9c-3.8-.1-8.2.1-11.4 2.2 1.3 4.7 2.9 9.4 4.5 14 3.7-1 7.3-2 11-3-1.4-4.4-2.7-8.8-4.1-13.2z" fill="#FFE700"/><path d="M153.3 159.6c.4.8-.4 1.8-1.3 1.8-14.1.7-31.7 5.4-40.8 17.3 12.1-10.8 29.6-15.6 45.6-16.1-10.4-25.1-20.7-51-27.2-77.4-.9.2-1.8.2-2.8.3 3.5 12.1 7.6 24 11.8 35.8 4.6 12.8 9 25.9 14.7 38.3z" fill="#C6C6C6"/><path d="M74.6 190.5c9-3.1 18.8-5.5 28.4-4.7-11.2-23.5-21.1-47.7-32.2-71.3-.1-.1-.1-.3-.1-.4-.1 0-.2 0-.2-.1-10.5-4.1-23.7-.9-33.7 3.1-5.7 2.3-11.3 5-16.2 8.7-3 2.2-6.5 3.5-4.5 7.3 1.5 3 3.1 5.9 4.6 8.9 10 19.8 20.3 40.1 27.7 61.1 7.9-5.3 17.1-9.5 26.2-12.6zm-21.7-67.7c.1-.2.2-.3.4-.4 3.9-3.2 9.9-3.4 14.7-3.2.6 0 1.2.3 1.4 1 1.6 5.2 3.2 10.3 4.8 15.5.2.7-.2 1.5-.9 1.8-4.5 1.2-9.1 2.5-13.6 3.7-.7.2-1.5-.2-1.8-.9-1.8-5.4-3.8-10.7-5.2-16.2-.1-.6 0-1 .2-1.3zm-27.3 10.8c6.5-4.1 14.2-8.4 21.9-9.5 1.8-.2 1.9 2.5.1 2.8-7.2 1-14.5 5.2-20.5 9-1.5 1-3-1.3-1.5-2.3zm3.2 7.4c6.3-4 13.7-7.6 21.1-8.8 1.8-.3 1.9 2.5.1 2.8-6.8 1.1-13.9 4.6-19.7 8.3-1.5 1-3-1.3-1.5-2.3zm3.3 6.9c5.8-3.7 12.7-7.5 19.5-8.9 1.7-.4 2.6 2.3.8 2.7-6.7 1.4-13.2 4.9-18.9 8.6-1.3.9-2.9-1.4-1.4-2.4zm4.7 11.2c11.4-8.6 27.1-13.3 41.3-13.7 1.8-.1 1.9 2.7.1 2.8-13.7.5-28.8 5-39.9 13.3-1.4 1-2.9-1.3-1.5-2.4zm3.4 7.9c11.4-8.6 27.1-13.3 41.3-13.7 1.8-.1 1.9 2.7.1 2.8-13.7.5-28.8 5-39.9 13.3-1.4 1-2.9-1.3-1.5-2.4zm3.3 7.9c11.4-8.6 27.1-13.3 41.3-13.7 1.8-.1 1.9 2.7.1 2.8-13.7.5-28.8 5-39.9 13.3-1.4 1-2.9-1.3-1.5-2.4zm2.8 7.1c11.4-8.6 27.1-13.3 41.3-13.7 1.8-.1 1.9 2.7.1 2.8-13.7.5-28.8 5-39.9 13.3-1.5 1-3-1.3-1.5-2.4zm2.6 7.6c11.4-8.6 27.1-13.3 41.3-13.7 1.8-.1 1.9 2.7.1 2.8-13.7.5-28.8 5-39.9 13.3-1.4 1-2.9-1.3-1.5-2.4z" fill="#fff"/><path d="M46.9 214.8c-.8.7-1.9.6-2.4-.5-10.1-24.8-21.3-50.3-35.6-73.1-.7.8-1.4 1.5-2.2 2.2 8 11.5 14.2 24.7 20.4 37.2 6.2 12.4 12.5 25 17.2 38.1 1.6-2.1 3.4-4.1 5.3-6-1 .7-1.9 1.4-2.7 2.1zm-4.4 7.2c-5-14.7-12.1-28.8-19-42.6C17.7 168 12 156.1 4.8 145.5c-1.7 1.6-2 1.3-.8 3.2.7 1.1 1.4 2.3 2.1 3.4 1.8 2.9 3.5 5.9 5.1 8.9 4.4 8 8.6 16 12.8 24.1 6.5 12.8 13.3 25.7 18.5 39.2.4-.5.8-.9 1.2-1.4-.5 0-1-.2-1.2-.9zm98.2-120.4c-1.1-3.2-2.2-6.5-3.2-9.7-.3-1.1-.7-2.2-1-3.3-.5-1.8-.1-1.6-2.6-.8-.3.1-.5.1-.8 0 6.7 25.8 16.9 51 27.1 75.5.8-.1 1.7-.1 2.5-.2-4.4-12.5-9.1-25-13.6-37.5-2.8-7.9-5.6-15.9-8.4-24zm-.8-11.3c3.4 12.1 8.2 24 12.4 35.8 4.5 12.7 9.3 25.3 13.7 38 .2.5 0 1-.3 1.4 1.3-.5 2.1-1.4 2-2.7-.7-6.6-2.9-13.1-4.9-19.4-2.7-8.8-5.7-17.6-8.8-26.3-2.6-7.3-5.2-14.5-7.8-21.7-.7-1.8-1.3-3.5-2-5.3l-3.6.3c-.3 0-.5 0-.7-.1z" fill="#C6C6C6"/><path d="M145.1 87.3c-1.5.1-3.1.2-4.6.4-.5 0-.9.3-1.1.7-.2-.8-.5-1.7-.7-2.5-.2-.6-.8-.9-1.4-1-1.5-.1-2.7-.1-4.2.3-.2.1-.4.2-.5.3l-.6-2.4c-.2-.8-1.1-1.1-1.8-.9-1.4.3-2.8.4-4.2.5-.1-.3-.2-.6-.2-.9-.2-.6-.8-1-1.4-1-11.9 1.4-22.8 6.4-32.8 12.8-4.6 2.9-9 6.3-13.1 9.9-1.1 1-7.9 7.8-7.9 7.8-9-3.5-20-1.3-28.9 1.3-11 3.2-21.7 8.9-29.9 17-.5.5-.4 1.2-.1 1.7.1.2.3.5.4.7-1.9 1.2-3.8 2.5-5.1 4.4-.4.5-.5 1.1-.1 1.7.2.2.3.5.5.7l-.1.1c-1 1.2-2 2.3-3.3 3-.5.3-.7.8-.6 1.3-.2.1-.3.2-.5.3-.9.9-1.7 1.9-2.5 3-.4.5-.5 1.2-.1 1.7 8.5 11.9 14.9 25.6 21.5 38.5 6.8 13.3 13.9 26.8 19.2 40.9.3.9 1.7 1.4 2.4.5 5.7-8.1 14.9-13.8 23.1-18.9 8.2-5.2 17.1-10.4 26.4-13.4 3.1-1 5.3 2 8.7 2 4.1 0 7.5-1.8 10.5-4.5 2.3-2 4.4-5.2 4.6-8.3.1-2 6.9-5.8 8.7-7 3.2-2.1 6.8-3.7 10.4-5.1 9.1-3.4 18.6-3.4 28.2-4.3 3.7-.3 7-1.3 6.8-5.5-.3-5.9-2.5-12-4.2-17.6-2.6-8.8-5.6-17.4-8.6-26-3.6-10.4-7.4-20.8-11.3-31.2-.4-.7-1-1.1-1.6-1zm-15.4-2.2c6.5 26.4 16.8 52.3 27.2 77.4-16 .6-33.5 5.3-45.6 16.1 9-11.8 26.7-16.5 40.8-17.3.8 0 1.6-1 1.3-1.8-5.8-12.4-10.2-25.5-14.7-38.3-4.1-11.8-8.3-23.7-11.8-35.8.9-.1 1.8-.1 2.8-.3zm-57 27.9c7.7-8.6 17.4-15.7 27.4-21.3 7.1-3.9 14.8-6.7 22.8-8 .8-.1.4-.4.8 1 .3 1.1.7 2.2 1 3.3.7 2.4 1.5 4.7 2.2 7.1 6.8 21.3 13.6 43.2 22.9 63.6-17.2 1.3-37.7 8.3-44.8 25.2-11.1-23.2-20.8-47-31.7-70.2-.1-.3-.3-.5-.6-.7zm-52.2 29.1c-1.5-3-3-5.9-4.6-8.9-2-3.8 1.5-5.1 4.5-7.3 4.9-3.7 10.5-6.4 16.2-8.7 10.1-4 23.2-7.2 33.7-3.1.1 0 .2 0 .2.1s0 .3.1.4c11.1 23.6 21 47.7 32.2 71.3-9.6-.9-19.3 1.6-28.4 4.7-9.1 3.1-18.3 7.3-26.4 12.7-7.2-21.1-17.4-41.4-27.5-61.2zm-3.9 6.9c-1.8-3.3-3.7-6.6-5.7-9.8-1.2-2-1.8-1.5.2-3.2.7-.6 1.5-1.1 2.2-1.6 12.2 23 24.3 46.8 32.7 71.4.3.8 1.3 1.3 2.1.7 7.1-5.1 15.2-8.8 23.3-12-9.2 4.5-17.8 10.7-25.2 17.1-5.4-13.1-11.4-26-17.6-38.8-3.7-8-7.7-16-12-23.8zm26 75.3c-5.2-13.4-12.1-26.4-18.5-39.2-4.1-8.1-8.3-16.2-12.8-24.1-1.7-3-3.4-5.9-5.1-8.9-.7-1.1-1.4-2.3-2.1-3.4-1.2-1.9-1-1.6.8-3.2 7.3 10.6 12.9 22.5 18.7 33.9 6.9 13.8 14.1 27.9 19 42.6.2.7.7.9 1.3.9-.5.5-.9.9-1.3 1.4zM27 180.5c-6.2-12.5-12.3-25.7-20.4-37.2.8-.6 1.5-1.4 2.2-2.2 14.3 22.8 25.5 48.3 35.6 73.2.4 1.1 1.6 1.2 2.4.5.9-.7 1.7-1.5 2.6-2.2-1.9 1.9-3.7 3.9-5.3 6-4.6-13.1-10.9-25.7-17.1-38.1zm96.6-4.9c-3.6 2.2-9.3 5.5-10.1 9.9-1 5.4-7.8 9.8-13 9.3-2-.2-3.7-2.7-5.4-2.5-1.1.1-2.2.4-3.2.7-3.8 1.1-7.5 3-11.1 4.7-7.9 3.9-15.5 8.5-22.8 13.5-3.8 2.6-7.8 5.4-11.3 8.7 6.1-8 15.3-14.3 23.6-19.6 4.3-2.8 9.9-6.1 15.7-8.3 6.1-1.6 12.3-2.1 18.6-1.1h.6c.4-.1.7-.3.9-.7 5.9-11.3 17.8-17.3 30.6-20.5-4.6 1.4-9 3.3-13.1 5.9zm33.7-9.2c2.4-.2 4.7-.3 6.9-.5-2.1.5-4.7.5-6.9.5zm3-3c-10.2-24.5-20.4-49.8-27.1-75.5.2.1.5.1.8 0 2.5-.8 2.1-1 2.6.8.3 1.1.6 2.2 1 3.3 1 3.3 2.1 6.5 3.2 9.7 2.7 8.1 5.6 16.1 8.5 24.1 4.5 12.5 9.1 24.9 13.6 37.5-1 0-1.8 0-2.6.1zm-14.1-68c2.7 7.2 5.3 14.5 7.8 21.7 3.1 8.7 6 17.4 8.8 26.3 1.9 6.3 4.2 12.8 4.9 19.4.1 1.3-.7 2.2-2 2.7.3-.4.5-.9.3-1.4-4.4-12.7-9.2-25.3-13.7-38-4.2-11.8-9-23.7-12.4-35.8.2.1.4.1.7.1l3.6-.3c.7 1.8 1.3 3.5 2 5.3z" fill="#1D1D1C"/><path d="M59.7 141.1c4.5-1.2 9.1-2.5 13.6-3.7.7-.2 1.1-1.1.9-1.8-1.6-5.2-3.2-10.3-4.8-15.5-.2-.6-.8-.9-1.4-1-4.8-.2-10.8 0-14.7 3.2-.2.1-.3.3-.4.4-.2.3-.3.7-.2 1.2 1.4 5.5 3.3 10.9 5.2 16.2.3.8 1 1.2 1.8 1zm-4.1-17c3.2-2.1 7.6-2.3 11.4-2.2 1.4 4.4 2.7 8.8 4.1 13.2-3.7 1-7.3 2-11 3-1.6-4.7-3.2-9.3-4.5-14zm-25.2 19.3c5.8-3.7 12.8-7.2 19.7-8.3 1.8-.3 1.6-3.1-.1-2.8-7.3 1.2-14.8 4.8-21.1 8.8-1.6.9-.1 3.2 1.5 2.3zm3.3 6.9c5.7-3.6 12.2-7.2 18.9-8.6 1.8-.4.9-3-.8-2.7-6.8 1.4-13.7 5.1-19.5 8.9-1.7 1-.1 3.3 1.4 2.4zm4.6 11.1c11-8.3 26.2-12.8 39.9-13.3 1.8-.1 1.6-2.8-.1-2.8-14.2.5-29.8 5.1-41.3 13.7-1.4 1.2.1 3.5 1.5 2.4zm3.4 7.9c11-8.3 26.2-12.8 39.9-13.3 1.8-.1 1.6-2.8-.1-2.8-14.2.5-29.8 5.2-41.3 13.7-1.4 1.2.1 3.5 1.5 2.4zm3.4 7.9c11-8.3 26.2-12.8 39.9-13.3 1.8-.1 1.7-2.8-.1-2.8-14.2.5-29.8 5.2-41.3 13.7-1.5 1.2 0 3.5 1.5 2.4zm2.7 7.1c11-8.3 26.2-12.8 39.9-13.3 1.8-.1 1.6-2.8-.1-2.8-14.2.5-29.8 5.1-41.3 13.7-1.5 1.2 0 3.5 1.5 2.4zm2.7 7.7c11-8.3 26.2-12.8 39.9-13.3 1.8-.1 1.6-2.8-.1-2.8-14.2.5-29.8 5.1-41.3 13.7-1.5 1.1 0 3.4 1.5 2.4zm34.9-74.6c8-9.6 21.9-17.1 34.4-18.2 1.8-.1 1.6-2.9-.1-2.8-13.2 1.1-27.9 8.9-36.3 19.1-1.2 1.4.9 3.3 2 1.9z" fill="#432918"/><path d="M88.5 123.8c7.9-9.6 21.8-16.1 34.1-17 1.8-.1 1.6-2.9-.1-2.8-13 1-27.6 7.9-36.1 18-1.1 1.3 1 3.2 2.1 1.8zm3.5 7.7c8.9-8.9 20.3-13.1 32.4-15.7 1.8-.4.9-3-.8-2.6-12.6 2.7-24.3 7.2-33.6 16.5-1.3 1.2.8 3 2 1.8zm14.2 30c1.4-1.6 3.4-2.7 5.2-3.7 7-4.2 14.9-6.9 22.6-9.5.8-.3 1-1 .9-1.8-1.4-7.5-5.1-14.7-8.2-21.6-.3-.7-1-1.1-1.8-.9-10.6 2.9-21.2 7.6-30.1 14l-.1.1c-.5.3-.8.8-.5 1.5l9.6 21.3c.5 1.1 1.6 1.5 2.4.6zm-8.9-21.7c8.2-5.8 17.7-10 27.3-12.7 2.7 6.1 5.8 12.5 7.3 19-7.6 2.5-15.1 5.4-22 9.4-1.4.8-2.9 1.7-4.2 2.8-2.9-6.2-5.6-12.4-8.4-18.5z" fill="#432918"/></svg>