<svg xmlns="http://www.w3.org/2000/svg" xmlns:xlink="http://www.w3.org/1999/xlink"><defs><symbol viewBox="0 0 8 9" fill="none" id="ss-icons-arrow-down"><path fill="currentColor" d="M3.646 8.354a.5.5 0 00.708 0l3.182-3.182a.5.5 0 10-.708-.708L4 7.293 1.172 4.464a.5.5 0 10-.708.708l3.182 3.182zM3.5 0v8h1V0h-1z"/></symbol><symbol viewBox="0 0 9 8" fill="none" id="ss-icons-arrow-left"><path fill="currentColor" transform="rotate(180 4.5 4)" d="M8.354 4.354a.5.5 0 000-.708L5.172.464a.5.5 0 10-.708.708L7.293 4 4.464 6.828a.5.5 0 10.708.708l3.182-3.182zM0 4.5h8v-1H0v1z"/></symbol><symbol viewBox="0 0 9 8" fill="none" id="ss-icons-arrow-right"><path fill="currentColor" d="M8.354 4.354a.5.5 0 000-.708L5.172.464a.5.5 0 10-.708.708L7.293 4 4.464 6.828a.5.5 0 10.708.708l3.182-3.182zM0 4.5h8v-1H0v1z"/></symbol><symbol viewBox="0 0 8 9" fill="none" id="ss-icons-arrow-up"><path transform="rotate(180 4 4.5)" fill="currentColor" d="M3.646 8.354a.5.5 0 00.708 0l3.182-3.182a.5.5 0 10-.708-.708L4 7.293 1.172 4.464a.5.5 0 10-.708.708l3.182 3.182zM3.5 0v8h1V0h-1z"/></symbol><symbol viewBox="0 0 512 512" id="ss-icons-calendar"><g fill="currentColor"><path d="M452 40h-24V0h-40v40H124V0H84v40H60C26.916 40 0 66.916 0 100v352c0 33.084 26.916 60 60 60h392c33.084 0 60-26.916 60-60V100c0-33.084-26.916-60-60-60zm20 412c0 11.028-8.972 20-20 20H60c-11.028 0-20-8.972-20-20V188h432v264zm0-304H40v-48c0-11.028 8.972-20 20-20h24v40h40V80h264v40h40V80h24c11.028 0 20 8.972 20 20v48z"/><path d="M76 230h40v40H76zm80 0h40v40h-40zm80 0h40v40h-40zm80 0h40v40h-40zm80 0h40v40h-40zM76 310h40v40H76zm80 0h40v40h-40zm80 0h40v40h-40zm80 0h40v40h-40zM76 390h40v40H76zm80 0h40v40h-40zm80 0h40v40h-40zm80 0h40v40h-40zm80-80h40v40h-40z"/></g></symbol><symbol viewBox="0 0 24 24" fill="none" id="ss-icons-calendar-check"><g stroke="#333" stroke-miterlimit="10" stroke-linecap="round"><path d="M15.5 4.5h4v15h-15v-15h2m2-1.5v3m7-3v3m-7-1.5h5"/><path d="M8.5 13.5l3 3 5-5.5m-10-2.5h11"/></g></symbol><symbol viewBox="0 0 424.449 424.449" id="ss-icons-cart"><g fill="currentColor"><circle cx="170.241" cy="374.273" r="50.176"/><path d="M316.673 324.098c-27.711 0-50.176 22.465-50.176 50.176s22.465 50.176 50.176 50.176c27.711 0 50.176-22.465 50.176-50.176s-22.465-50.176-50.176-50.176zm85.504-51.201H140.545l-5.12-29.696h215.04a15.36 15.36 0 0014.336-9.728l51.2-129.024c3.111-7.892-.766-16.812-8.658-19.922a15.349 15.349 0 00-5.678-1.07H108.801L96.513 12.801a15.36 15.36 0 00-15.36-12.8h-58.88c-8.483 0-15.36 6.877-15.36 15.36s6.877 15.36 15.36 15.36h46.08l44.032 260.096a15.36 15.36 0 0015.36 12.8h274.432c8.483 0 15.36-6.877 15.36-15.36s-6.877-15.36-15.36-15.36z"/></g></symbol><symbol viewBox="0 0 17 18" fill="none" id="ss-icons-cart-new"><path d="M16.619.736c-.015.264-.177.476-.384.529l-2.814.634c-.221.053-.383.282-.383.546l-.074 7.347c0 .616-.34 1.145-.84 1.321l-8.12 2.854c-.59.211-1.223-.176-1.43-.88L.6 6.18c-.25-.846.235-1.744.987-1.832 1.725-.18-1.206.207 9.874-1.075.25-.017.427-.264.427-.564V1.564c0-.264.162-.51.383-.564l.781-.176L16.06.137c.309-.053.589.23.56.6zM7.48 17.68a1.828 1.828 0 100-3.656 1.828 1.828 0 000 3.657zm5.85-3.655a1.097 1.097 0 100-2.194 1.097 1.097 0 000 2.194z" fill="currentColor"/></symbol><symbol viewBox="0 0 22 22" fill="currentColor" id="ss-icons-chat"><path d="M5.37 21.91a.682.682 0 01-.308-.074.814.814 0 01-.436-.731V17.63h-2.52c-1.008 0-1.833-.877-1.833-1.95V2.871C.273 1.787 1.098.91 2.106.91H19.44c1.008 0 1.833.878 1.833 1.962v12.822c0 1.073-.825 1.95-1.833 1.95h-8.96a.33.33 0 00-.229.098l-4.387 3.985a.753.753 0 01-.493.183zM2.107 2.127c-.378 0-.688.33-.688.743v12.822c0 .403.31.732.688.732h2.75c.492 0 .893.426.893.95v2.84l3.746-3.4a1.48 1.48 0 01.974-.39h8.96c.377 0 .687-.33.687-.732V2.871c0-.402-.31-.743-.688-.743H2.106z"/><path d="M17.15 8.551H4.716c-.32 0-.572-.268-.572-.61 0-.34.252-.608.572-.608h12.436c.32 0 .572.268.572.609 0 .341-.252.61-.572.61zm-5.816 3.011H4.715c-.32 0-.572-.269-.572-.61 0-.341.252-.61.572-.61h6.619c.32 0 .572.269.572.61 0 .341-.263.61-.572.61z"/></symbol><symbol viewBox="0 0 20 20" fill="none" id="ss-icons-chat-mobile"><path d="M9.954 0h.032c5.423 0 9.833 4.41 9.833 9.833a9.766 9.766 0 01-2.138 6.093l1.431 3.327a.533.533 0 01-.279.702.544.544 0 01-.305.038l-5.246-.922a9.452 9.452 0 01-3.269.568C4.59 19.64.18 15.23.18 9.806.17 4.4 4.547.006 9.954 0zM9.56 7.856H6.666a.537.537 0 00-.536.536c0 .294.242.535.536.535H9.56a.537.537 0 00.536-.535.537.537 0 00-.536-.536zm-2.885 3.75h6.644a.537.537 0 00.536-.535.537.537 0 00-.536-.536H6.675a.537.537 0 00-.536.536c0 .295.241.536.536.536z" fill="#FD7400"/></symbol><symbol viewBox="0 0 20 20" fill="none" id="ss-icons-chat-mobile-reverse"><path d="M9.954 0h.032c5.423 0 9.833 4.41 9.833 9.833a9.766 9.766 0 01-2.138 6.093l1.431 3.327a.533.533 0 01-.279.702.544.544 0 01-.305.038l-5.246-.922a9.452 9.452 0 01-3.269.568C4.59 19.64.18 15.23.18 9.806.17 4.4 4.547.006 9.954 0zM9.56 7.856H6.666a.537.537 0 00-.536.536c0 .294.242.535.536.535H9.56a.537.537 0 00.536-.535.537.537 0 00-.536-.536zm-2.885 3.75h6.644a.537.537 0 00.536-.535.537.537 0 00-.536-.536H6.675a.537.537 0 00-.536.536c0 .295.241.536.536.536z" fill="#fff"/></symbol><symbol viewBox="0 0 21 20" fill="none" id="ss-icons-chat-white"><path d="M5.05 20c-.116 0-.23 0-.345-.116-.23-.117-.46-.35-.46-.698v-3.372H1.837C.803 15.93 0 15.116 0 14.07V1.86C0 .814.803 0 1.836 0h17.328C20.197 0 21 .814 21 1.86v12.21c0 1.046-.803 1.86-1.836 1.86h-8.95c-.116 0-.116 0-.23.117l-4.361 3.837C5.508 20 5.279 20 5.049 20z" fill="#fff"/><path d="M16.87 7.325H4.475c-.345 0-.574-.232-.574-.581s.23-.581.574-.581h12.508c.344 0 .574.232.574.581s-.345.581-.689.581zm-5.739 2.791H4.476c-.345 0-.574-.232-.574-.581s.23-.581.574-.581h6.655c.345 0 .574.232.574.581s-.344.581-.574.581z" fill="#FD7400"/></symbol><symbol viewBox="0 0 15 14" fill="none" id="ss-icons-check-round"><path d="M13 7a6 6 0 11-2.35-4.762M3.77 6.23l2.986 3.077 7.167-7.384" stroke="currentColor" stroke-linecap="round" stroke-linejoin="round"/></symbol><symbol viewBox="0 0 8 13" id="ss-icons-chevron-left"><path d="M7 1L2 6.5 7 12" stroke="currentColor" fill="none" stroke-width="2"/></symbol><symbol viewBox="0 0 8 13" fill="none" id="ss-icons-chevron-right"><path d="M1 1l5 5.5L1 12" stroke="currentColor" stroke-width="2"/></symbol><symbol viewBox="0 0 16 17" fill="none" id="ss-icons-chevron-right-circle"><path fill-rule="evenodd" clip-rule="evenodd" d="M8 16.5a8 8 0 100-16 8 8 0 000 16zM5.653 4.365L9.329 8.5l-3.676 4.135 1.494 1.329 4.267-4.8.59-.664-.59-.665-4.267-4.8-1.494 1.329z" fill="currentColor"/></symbol><symbol viewBox="0 0 13 8" fill="none" id="ss-icons-chevron-up"><path d="M12 7L6.5 2 1 7" stroke="currentColor" stroke-width="2"/></symbol><symbol viewBox="0 0 512 512" id="ss-icons-clock"><g fill="currentColor"><path d="M256 0C114.845 0 0 114.839 0 256s114.845 256 256 256c141.161 0 256-114.839 256-256S397.155 0 256 0zm0 474.628C135.45 474.628 37.372 376.55 37.372 256S135.45 37.372 256 37.372s218.628 98.077 218.628 218.622c0 120.556-98.078 218.634-218.628 218.634z"/><path d="M343.202 256h-80.973V143.883c0-10.321-8.365-18.686-18.686-18.686s-18.686 8.365-18.686 18.686v130.803c0 10.321 8.365 18.686 18.686 18.686h99.659c10.321 0 18.686-8.365 18.686-18.686S353.523 256 343.202 256z"/></g></symbol><symbol viewBox="0 0 20 20" fill="none" id="ss-icons-close"><path d="M17 4.415L15.585 3 10 8.585 4.415 3 3 4.415 8.585 10 3 15.585 4.415 17 10 11.415 15.585 17 17 15.585 11.415 10 17 4.415z" fill="currentColor"/></symbol><symbol viewBox="0 0 24 24" fill="none" id="ss-icons-compare"><path d="M19.5 17.5V4h-4v13.5m0-8h-4v8m-4 0v-10h4v1.595M3.5 19.5h16M7 11.5H3.5v6" stroke="currentColor" stroke-miterlimit="10" stroke-linecap="round"/></symbol><symbol viewBox="0 0 511.058 511.058" id="ss-icons-cross"><path fill="currentColor" d="M511.058 60.811L450.247 0 255.529 194.718 60.811 0 0 60.811l194.718 194.718L0 450.247l60.811 60.811L255.529 316.34l194.718 194.718 60.811-60.811L316.34 255.529z"/></symbol><symbol viewBox="0 0 22 16" fill="none" id="ss-icons-delivery"><path d="M1.582.003C.803.003 0 .733 0 1.733v.613h7.522c.3-.005.547.234.553.53a.543.543 0 01-.537.545H0v2.1h5.414c.3-.006.547.233.553.529a.543.543 0 01-.537.546H0v2.09h3.82c.3-.005.548.234.554.53a.542.542 0 01-.537.546H0v.62c0 .968.863 1.731 1.582 1.731h.929c-.011.097-.008.194-.008.293 0 1.433 1.06 2.597 2.374 2.597 1.316 0 2.383-1.161 2.383-2.597 0-.1-.008-.199-.016-.293h6.392a2.59 2.59 0 00-.017.293c0 1.433 1.068 2.597 2.383 2.597 1.316 0 2.383-1.161 2.383-2.597 0-.1-.008-.199-.016-.293h1.217c.869 0 1.59-.822 1.59-1.73V8.367L15.883 0h-14.3v.003zm11.185 2.343h2.17a.55.55 0 01.46.245l2.648 4.04a.536.536 0 01-.158.744.567.567 0 01-.303.089h-4.76a.543.543 0 01-.545-.538v-4.04c0-.276.21-.51.488-.54z" fill="currentColor"/></symbol><symbol viewBox="0 0 24 24" fill="none" id="ss-icons-edit"><path d="M14.232 5.774a2.5 2.5 0 013.539-.003v0a2.5 2.5 0 01.003 3.532l-8.213 8.243H6.025v-3.535l8.207-8.237zM15 8l2 2" stroke="currentColor" stroke-miterlimit="10" stroke-linecap="round"/></symbol><symbol viewBox="0 0 12 7" fill="none" id="ss-icons-expand"><path d="M1 1l5 5 5-5" stroke="currentColor" stroke-linecap="round"/></symbol><symbol viewBox="0 0 512 512" id="ss-icons-faq"><g fill="currentColor"><circle cx="256" cy="378.5" r="25"/><path d="M256 0C114.516 0 0 114.497 0 256c0 141.484 114.497 256 256 256 141.484 0 256-114.497 256-256C512 114.516 397.503 0 256 0zm0 472c-119.377 0-216-96.607-216-216 0-119.377 96.607-216 216-216 119.377 0 216 96.607 216 216 0 119.377-96.607 216-216 216z"/><path d="M256 128.5c-44.112 0-80 35.888-80 80 0 11.046 8.954 20 20 20s20-8.954 20-20c0-22.056 17.944-40 40-40s40 17.944 40 40-17.944 40-40 40c-11.046 0-20 8.954-20 20v50c0 11.046 8.954 20 20 20s20-8.954 20-20v-32.531c34.466-8.903 60-40.26 60-77.469 0-44.112-35.888-80-80-80z"/></g></symbol><symbol viewBox="0 0 24 24" id="ss-icons-gift"><path d="M18.5 14.738v5.76h-14v-5.76m4-.238h-5v-4h5m6 4h5v-4h-5m-2 8V9m-2 0v9.5m2-9.503c0-5.499 4.5-4.5 4.5-2.5s-1.5 2-2.5 2m-4 .5c0-5.499-4.5-4.5-4.5-2.5s1.5 2 2.5 2" fill="none" stroke="currentColor" stroke-miterlimit="10" stroke-linecap="round"/></symbol><symbol viewBox="0 0 20 20" fill="none" id="ss-icons-grid-view"><path d="M4.5 4.5h4v4h-4zm0 7h4v4h-4zm7-7h4v4h-4zm0 7h4v4h-4z" stroke="currentColor"/></symbol><symbol viewBox="0 0 24 24" fill="none" id="ss-icons-heart"><path d="M11.986 8c3.014-3.5 8.533-.703 6.572 3.9-1.038 2.435-4.044 4.575-6.572 6.1-2.528-1.525-5.588-3.665-6.573-6.1C3.91 8.179 7.127 5.54 10 6.5" stroke="currentColor" stroke-miterlimit="10" stroke-linecap="round"/></symbol><symbol viewBox="0 0 20 20" fill="none" id="ss-icons-list-view"><path d="M15 4H4v3h12V4h-1zm0 1H5v1h10V5zm1 3.5H4v3h12v-3zm-1 1H5v1h10v-1zm0 3.5H4v3h12v-3h-1zm0 1H5v1h10v-1z" fill-rule="evenodd" clip-rule="evenodd" fill="currentColor"/></symbol><symbol viewBox="0 0 18 18" fill="none" id="ss-icons-live"><path d="M18 13.57l-4.5-2.25v2.18H0v-9h13.5v2.18L18 4.43v9.14zm-5.625-7.945H1.125v6.75h11.25v-6.75zm4.5.624L13.5 7.945v2.11l3.375 1.696V6.249z" fill="currentColor"/></symbol><symbol viewBox="0 0 24 24" id="ss-icons-location"><g fill="none" stroke="currentColor" stroke-miterlimit="10" stroke-linecap="round"><path d="M11.5 17.5l-4.63-7.49c-1.72-3.45.79-7.51 4.64-7.51 3.86 0 6.36 4.06 4.64 7.51L11.5 17.5z"/><path d="M11.5 9.5a2 2 0 100-4 2 2 0 000 4z"/></g></symbol><symbol viewBox="0 0 14 18" fill="none" id="ss-icons-location-new"><path d="M11.33 1.941A6.633 6.633 0 006.637 0 6.636 6.636 0 001.94 1.941 6.646 6.646 0 00.63 9.456c.099.2.198.398.314.598.033.05.05.099.083.149l4.413 7.133c.548.88 1.825.88 2.356 0l4.38-7.05.149-.232a6.596 6.596 0 00.946-3.418 6.634 6.634 0 00-1.941-4.695zM6.288 3.998a2.73 2.73 0 013.07 3.07A2.729 2.729 0 017 9.422a2.73 2.73 0 01-3.07-3.07c.15-1.21 1.129-2.189 2.356-2.355z" fill="currentColor"/></symbol><symbol viewBox="0 0 512 512" id="ss-icons-logout"><path fill="currentColor" d="M255.15 468.625H63.787c-11.737 0-21.262-9.526-21.262-21.262V64.638c0-11.737 9.526-21.262 21.262-21.262H255.15c11.758 0 21.262-9.504 21.262-21.262S266.908.85 255.15.85H63.787C28.619.85 0 29.47 0 64.638v382.724c0 35.168 28.619 63.787 63.787 63.787H255.15c11.758 0 21.262-9.504 21.262-21.262 0-11.758-9.504-21.262-21.262-21.262z"/><path fill="currentColor" d="M505.664 240.861L376.388 113.286c-8.335-8.25-21.815-8.143-30.065.213s-8.165 21.815.213 30.065l92.385 91.173H191.362c-11.758 0-21.262 9.504-21.262 21.262 0 11.758 9.504 21.263 21.262 21.263h247.559l-92.385 91.173c-8.377 8.25-8.441 21.709-.213 30.065a21.255 21.255 0 0015.139 6.336c5.401 0 10.801-2.041 14.926-6.124l129.276-127.575A21.303 21.303 0 00512 255.998c0-5.696-2.275-11.118-6.336-15.137z"/></symbol><symbol viewBox="0 0 22 16" fill="currentColor" id="ss-icons-mail"><path d="M20.249.545H1.297C.733.545.273.967.273 1.483v12.663c0 .516.46.938 1.024.938h18.952c.564 0 1.024-.421 1.024-.938V1.483C21.26.967 20.8.545 20.249.545zM19.156 1.6l-8.377 6.69L2.39 1.6h16.765zM1.434 14.019V2.232L10.1 9.153c.195.147.437.22.678.22a1.1 1.1 0 00.668-.22L20.11 2.23v11.79H1.435z"/></symbol><symbol viewBox="0 0 20 20" fill="none" id="ss-icons-mail-mobile"><path d="M10 20c5.523 0 10-4.477 10-10S15.523 0 10 0 0 4.477 0 10s4.477 10 10 10z" fill="#FD7400"/><path d="M15.415 6H4.585C4.263 6 4 6.24 4 6.536v7.236c0 .295.263.536.585.536h10.83c.322 0 .585-.241.585-.536V6.536C15.993 6.24 15.73 6 15.415 6zm-.625.602l-4.787 3.823L5.21 6.602h9.58zM4.664 13.7V6.963l4.951 3.955a.645.645 0 00.77 0l4.95-3.955V13.7H4.666z" fill="#fff" stroke="#fff" stroke-width=".5"/></symbol><symbol viewBox="0 0 20 20" fill="none" id="ss-icons-mail-mobile-reverse"><path d="M10 20c5.523 0 10-4.477 10-10S15.523 0 10 0 0 4.477 0 10s4.477 10 10 10z" fill="#fff"/><path d="M15.415 6H4.585C4.263 6 4 6.24 4 6.536v7.236c0 .295.263.536.585.536h10.83c.322 0 .585-.241.585-.536V6.536C15.993 6.24 15.73 6 15.415 6zm-.625.602l-4.787 3.823L5.21 6.602h9.58zM4.664 13.7V6.963l4.951 3.955a.645.645 0 00.77 0l4.95-3.955V13.7H4.666z" fill="#FD7400" stroke="#FD7400" stroke-width=".5"/></symbol><symbol viewBox="0 0 13 15" fill="none" id="ss-icons-notice"><path fill="currentColor" fill-rule="evenodd" clip-rule="evenodd" d="M6.408.094a1.894 1.894 0 00-1.891 1.892v.298a4.998 4.998 0 00-3.05 4.61v2.775L.078 11.83a.49.49 0 00.412.753h3.675a2.303 2.303 0 002.228 1.73h.032a2.304 2.304 0 002.228-1.73h3.675a.489.489 0 00.412-.753l-1.39-2.162V6.894a4.998 4.998 0 00-3.05-4.61v-.298A1.894 1.894 0 006.408.094zm.914 1.895v-.003a.914.914 0 00-1.827 0v.003a4.901 4.901 0 011.827 0zm.294 10.595H5.2c.213.444.667.75 1.19.75h.033c.525 0 .978-.306 1.192-.75zm-5.248-2.507l-.983 1.529h10.046l-.983-1.53a.49.49 0 01-.077-.264V6.894c0-2.212-1.778-4.012-3.963-4.012s-3.962 1.8-3.962 4.012v2.918a.489.489 0 01-.078.265z"/></symbol><symbol viewBox="-42 0 512 512.002" id="ss-icons-person"><path fill="currentColor" d="M210.352 246.633c33.882 0 63.222-12.153 87.195-36.13 23.973-23.972 36.125-53.304 36.125-87.19 0-33.876-12.152-63.211-36.129-87.192C273.566 12.152 244.23 0 210.352 0c-33.887 0-63.22 12.152-87.192 36.125s-36.129 53.309-36.129 87.188c0 33.886 12.156 63.222 36.133 87.195 23.977 23.969 53.313 36.125 87.188 36.125zm215.777 147.07c-.692-9.976-2.09-20.86-4.149-32.351-2.078-11.579-4.753-22.524-7.957-32.528-3.308-10.34-7.808-20.55-13.37-30.336-5.774-10.156-12.555-19-20.165-26.277-7.957-7.613-17.699-13.734-28.965-18.2-11.226-4.44-23.668-6.69-36.976-6.69-5.227 0-10.281 2.144-20.043 8.5a2711.03 2711.03 0 01-20.879 13.46c-6.707 4.274-15.793 8.278-27.016 11.903-10.949 3.543-22.066 5.34-33.039 5.34-10.972 0-22.086-1.797-33.047-5.34-11.21-3.622-20.296-7.625-26.996-11.899a2853.13 2853.13 0 01-20.898-13.469c-9.75-6.355-14.809-8.5-20.035-8.5-13.313 0-25.75 2.254-36.973 6.7-11.258 4.457-21.004 10.578-28.969 18.199-7.605 7.281-14.39 16.12-20.156 26.273-5.558 9.785-10.058 19.992-13.371 30.34-3.2 10.004-5.875 20.945-7.953 32.524-2.059 11.476-3.457 22.363-4.149 32.363A438.821 438.821 0 000 423.949c0 26.727 8.496 48.363 25.25 64.32 16.547 15.747 38.441 23.735 65.066 23.735h246.532c26.625 0 48.511-7.984 65.062-23.734 16.758-15.946 25.254-37.586 25.254-64.325-.004-10.316-.351-20.492-1.035-30.242zm0 0"/></symbol><symbol viewBox="0 0 21 16" fill="none" id="ss-icons-pickup"><path d="M13.517 5.679L7.572 3.405c-.065-.025-.108.025-.108.101v9.423c0 .05.022.076.065.101l5.944 2.274c.044.025.109-.025.109-.101V5.78a.352.352 0 00-.065-.101zm5.835-3.158L14.06.5h-.044L8.722 2.521c-.087.025-.087.152 0 .177l5.293 2.02h.044l5.293-2.02c.065 0 .065-.126 0-.177zm1.151.884L14.56 5.679c-.044.025-.066.05-.066.1v9.424c0 .076.066.1.109.1l5.945-2.273c.043-.025.065-.05.065-.1V3.505c0-.076-.065-.126-.109-.101zM4.881 3.379H.607c-.325 0-.607.303-.607.707 0 .38.26.708.607.708h4.274c.326 0 .608-.304.608-.708-.022-.379-.282-.707-.608-.707zm0 3.916H.607c-.325 0-.607.303-.607.707 0 .38.26.708.607.708h4.274c.326 0 .608-.304.608-.708-.022-.379-.282-.707-.608-.707zm0 3.941H.607c-.325 0-.607.303-.607.708 0 .404.26.707.607.707h4.274c.326 0 .608-.303.608-.707 0-.405-.282-.708-.608-.708z" fill="currentColor"/></symbol><symbol viewBox="0 0 17 16" fill="none" id="ss-icons-picture"><path d="M13.727.568h-11.1A2.526 2.526 0 00.104 3.09v8.83a2.526 2.526 0 002.523 2.523H8.62a.63.63 0 00.499-1.017l-1.65-2.132 4.572-5.816 2.949 3.518v1.064a.63.63 0 101.261 0V3.09A2.526 2.526 0 0013.727.568zm-1.219 3.505a.63.63 0 00-.98.015l-4.856 6.178-1.654-2.138a.63.63 0 00-.999.001L2.631 9.935a.63.63 0 001 .77l.89-1.157 2.812 3.635H2.627a1.263 1.263 0 01-1.261-1.262V3.09c0-.695.566-1.261 1.261-1.261h11.1c.696 0 1.262.566 1.262 1.261v3.943l-2.481-2.96zM4.519 2.838A1.894 1.894 0 002.627 4.73c0 1.044.849 1.892 1.892 1.892A1.894 1.894 0 006.411 4.73 1.894 1.894 0 004.52 2.838zm0 2.523a.631.631 0 11.002-1.263.631.631 0 01-.002 1.263zm11.731 7.221a.63.63 0 01-.63.631h-1.735v1.735a.63.63 0 11-1.261 0v-1.735h-1.735a.63.63 0 110-1.261h1.735v-1.735a.63.63 0 111.261 0v1.735h1.735a.63.63 0 01.63.63z" fill="currentColor"/></symbol><symbol viewBox="0 0 426.667 426.667" id="ss-icons-playlist"><path d="M0 64h256v42.667H0zm0 85.333h256V192H0zm0 85.334h170.667v42.667H0zm341.333 0v-85.334h-42.666v85.334h-85.334v42.666h85.334v85.334h42.666v-85.334h85.334v-42.666z" fill="currentColor"/></symbol><symbol viewBox="0 0 24 24" fill="none" id="ss-icons-remove"><path stroke="currentColor" stroke-miterlimit="10" stroke-linecap="round" d="M6.5 10L8 18.5h8l1.5-8.5M5 7.5h4m10 0H9m0 0C9 5 10.75 4 12 4s3 1 3 3.5"/></symbol><symbol viewBox="0 0 15 21" fill="none" id="ss-icons-repeat"><g stroke="currentColor"><path d="M12.355 15.236A6.5 6.5 0 007.397 4.415m-5.006 2.48a6.5 6.5 0 004.81 10.512"/><path d="M10.841 1.67L7.156 3.99l2.32 3.686M3.687 19.464l3.88-1.979-1.98-3.878"/></g></symbol><symbol viewBox="0 0 18 18" fill="none" id="ss-icons-search"><path fill-rule="evenodd" clip-rule="evenodd" d="M13.245 10.58a7 7 0 10-2.436 2.436l3.805 3.806a1 1 0 001.414 0L17.05 15.8a1 1 0 000-1.414l-3.805-3.805zm-3.119-6.478a4.098 4.098 0 11-5.795 5.796 4.098 4.098 0 015.795-5.796z" fill="currentColor"/></symbol><symbol viewBox="0 0 12 12" fill="none" id="ss-icons-search-new"><path fill-rule="evenodd" clip-rule="evenodd" d="M2 5.5a3.5 3.5 0 117 0 3.5 3.5 0 01-7 0zM5.5 0a5.5 5.5 0 103.118 10.032l1.675 1.675a1 1 0 001.414-1.414l-1.675-1.675A5.5 5.5 0 005.5 0z" fill="currentColor"/></symbol><symbol viewBox="0 0 24 24" fill="none" id="ss-icons-share"><path d="M14 17.5l6-5.5-6-6v3c-3.667-.167-10 2-10 10.5m0 0c3-5 6-5.5 10-5.5" stroke="#333" stroke-miterlimit="10" stroke-linecap="round"/></symbol><symbol viewBox="0 0 24 24" fill="none" id="ss-icons-shop-placement"><g stroke="#333" stroke-miterlimit="10" stroke-linecap="round"><path d="M11.5 17.5l-4.63-7.49c-1.72-3.45.79-7.51 4.64-7.51 3.86 0 6.36 4.06 4.64 7.51L11.5 17.5z"/><path d="M11.5 9.5a2 2 0 100-4 2 2 0 000 4zm7 5.24v5.76h-14v-5.76m3-.24h-4v-4h1.308m10.692 4h4v-4H18"/></g></symbol><symbol viewBox="0 0 15 14" fill="none" id="ss-icons-star"><path fill="currentColor" d="M7.5 0l2.116 4.588 5.017.594-3.71 3.43.985 4.956L7.5 11.1l-4.408 2.468.984-4.956-3.709-3.43 5.017-.594L7.5 0z"/></symbol><symbol viewBox="0 0 25 25" fill="none" id="ss-icons-telegram"><path d="M12.5 25C19.404 25 25 19.404 25 12.5S19.404 0 12.5 0 0 5.596 0 12.5 5.596 25 12.5 25z" fill="#039BE5"/><path d="M5.72 12.23l12.052-4.648c.56-.202 1.048.137.867.983v-.001l-2.052 9.667c-.152.686-.559.852-1.129.53l-3.125-2.304-1.507 1.452c-.167.167-.307.308-.63.308l.222-3.18 5.791-5.233c.253-.222-.056-.347-.388-.126l-7.157 4.506-3.086-.962c-.67-.213-.684-.67.142-.993z" fill="#fff"/></symbol><symbol viewBox="0 0 20 20" fill="none" id="ss-icons-telegram-reverse"><path d="M10 20c5.523 0 10-4.477 10-10S15.523 0 10 0 0 4.477 0 10s4.477 10 10 10z" fill="#fff"/><path d="M4.577 9.783l9.641-3.717c.448-.162.838.109.694.786V6.85l-1.641 7.734c-.122.548-.448.681-.904.423l-2.5-1.842-1.205 1.161c-.134.134-.246.246-.505.246l.178-2.544 4.633-4.186c.202-.177-.045-.277-.31-.1l-5.726 3.604-2.469-.77c-.536-.17-.547-.536.114-.794z" fill="#039BE5"/></symbol><symbol viewBox="0 0 14 14" fill="none" id="ss-icons-unavailable"><g fill="currentColor"><path d="M4.354 3.646a.5.5 0 10-.708.708l.708-.708zm5.292 6.708a.5.5 0 00.708-.708l-.708.708zm-6-6l6 6 .708-.708-6-6-.708.708z"/><path d="M10.354 4.354a.5.5 0 00-.708-.708l.708.708zM3.646 9.646a.5.5 0 00.708.708l-.708-.708zm6-6l-6 6 .708.708 6-6-.708-.708z"/></g><circle cx="7" cy="7" r="6" stroke="currentColor"/></symbol><symbol viewBox="0 0 14 18" fill="none" id="ss-icons-user"><path d="M11.975 17.422H2.767c-1.587 0-2.483-1.549-2.222-3.056C.99 11.79 2.84 10.2 5.275 9.39c.293-.103.5-.361.5-.671v-.07a.708.708 0 00-.397-.637A4.215 4.215 0 013.065 4.24 4.204 4.204 0 017.14.003 4.176 4.176 0 019.642.71c.052.017 1.197.557 2.333.557-.183.634-.352 1.156-.635 1.584.294.569.184.7.184 1.39a4.21 4.21 0 01-2.33 3.771.72.72 0 00-.38.655c0 .31.207.585.518.689 2.52.792 3.922 2.365 4.549 5.011.347 1.469-.635 3.056-1.906 3.056z" fill="currentColor"/></symbol><symbol viewBox="0 0 25 27" fill="none" id="ss-icons-viber"><g clip-path="url(#ss-icons-viber_clip0)"><path d="M15 0h-5C5.176 0 1.25 4.113 1.25 9.167v3.928c0 3.55 1.953 6.768 5 8.287v4.374c0 .378.454.578.713.307l3.628-3.801H15c4.824 0 8.75-4.113 8.75-9.167V9.167C23.75 4.113 19.824 0 15 0z" fill="#665CAC"/><path d="M18.794 16.272l-.376-2.128a.428.428 0 00-.327-.348l-2.945-.619a.4.4 0 00-.376.118l-1.196 1.253c-2.016-.947-3.134-2.123-4.12-4.328l1.19-1.248a.444.444 0 00.113-.394l-.591-3.084a.427.427 0 00-.332-.343l-2.031-.394a.364.364 0 00-.166.005 2.873 2.873 0 00-1.416.819c-.674.706-.933 1.734-.747 2.977.312 2.087 1.289 4.992 3.09 6.885l.025.026c1.806 1.887 4.58 2.91 6.572 3.238.25.04.493.061.723.061.864 0 1.587-.286 2.119-.844.39-.41.66-.92.781-1.483a.391.391 0 00.01-.17zm-5.459-8.85a.425.425 0 00-.415.435c0 .24.185.435.415.435.918 0 1.665.783 1.665 1.744 0 .236.19.435.415.435.225 0 .415-.2.415-.435.005-1.437-1.118-2.614-2.495-2.614z" fill="#fff"/><path d="M13.335 5.673c-.156 0-.308.01-.464.025a.425.425 0 00-.366.481c.03.24.23.415.459.384.122-.015.249-.02.371-.02 1.836 0 3.335 1.565 3.335 3.493 0 .128-.005.261-.02.389-.024.235.142.455.367.48a.425.425 0 00.459-.383 5.53 5.53 0 00.024-.486c0-2.404-1.87-4.363-4.165-4.363z" fill="#fff"/><path d="M13.335 3.929a6.7 6.7 0 00-.45.015c-.229.02-.4.23-.385.47.02.241.22.42.45.405.126-.01.258-.016.385-.016 2.759 0 5 2.348 5 5.238 0 .41-.044.814-.132 1.208-.049.225.083.46.293.521a.419.419 0 00.518-.322c.102-.46.156-.936.156-1.412 0-3.365-2.617-6.107-5.835-6.107z" fill="#fff"/></g></symbol><symbol viewBox="0 0 25 25" fill="none" id="ss-icons-whatsapp"><path d="M12.503 0h-.006C5.605 0 0 5.606 0 12.5c0 2.734.881 5.269 2.38 7.327L.822 24.47l4.805-1.536A12.392 12.392 0 0012.503 25C19.395 25 25 19.392 25 12.5S19.395 0 12.503 0z" fill="#4CAF50"/><path d="M19.777 17.652c-.302.851-1.499 1.557-2.454 1.764-.653.139-1.506.25-4.378-.94-3.673-1.523-6.039-5.256-6.223-5.498-.177-.242-1.484-1.976-1.484-3.77s.91-2.667 1.278-3.042c.301-.308.8-.449 1.278-.449.154 0 .294.008.419.014.367.016.551.038.793.618.302.726 1.036 2.52 1.124 2.704.089.185.178.435.053.677-.117.25-.22.36-.405.573-.184.213-.36.375-.544.603-.168.199-.359.411-.146.778.212.36.946 1.558 2.028 2.52 1.395 1.243 2.526 1.64 2.93 1.809.303.125.662.095.882-.14.28-.301.625-.801.977-1.293.25-.353.565-.397.897-.272.337.117 2.123 1 2.49 1.183.367.184.61.272.699.426.087.155.087.882-.214 1.735z" fill="#FAFAFA"/></symbol><symbol viewBox="0 0 24 24" fill="none" id="ss-icons-whatsapp-reverse"><path d="M12.003 0h-.006C5.38 0 0 5.382 0 12c0 2.625.846 5.058 2.284 7.034L.79 23.49l4.613-1.474a11.896 11.896 0 006.6 1.984C18.619 24 24 18.616 24 12c0-6.617-5.38-12-11.997-12z" fill="#fff"/><path d="M18.985 16.946c-.29.817-1.438 1.495-2.355 1.693-.627.134-1.446.24-4.203-.903-3.526-1.46-5.797-5.044-5.974-5.277-.17-.232-1.425-1.897-1.425-3.62 0-1.721.874-2.56 1.227-2.92.29-.295.768-.43 1.227-.43.148 0 .282.007.402.013.352.015.53.036.762.593.29.697.994 2.42 1.078 2.596.086.177.171.417.051.65-.112.24-.211.346-.388.55-.177.204-.345.36-.522.58-.162.19-.345.394-.141.746.204.345.909 1.496 1.947 2.42 1.34 1.192 2.425 1.573 2.814 1.735.29.12.634.092.846-.133.268-.29.6-.77.937-1.242.24-.34.543-.381.861-.261.324.112 2.039.96 2.391 1.135.353.177.585.261.67.41.085.148.085.846-.205 1.665z" fill="#4CAF50"/></symbol><clipPath id="ss-icons-viber_clip0"><path fill="#fff" d="M0 0h25v26.191H0z"/></clipPath><style>.sprite-symbol-usage{display:none}.sprite-symbol-usage:target{display:inline}</style></defs><use id="ss-icons-arrow-down-usage" xlink:href="#ss-icons-arrow-down" class="sprite-symbol-usage"/><use id="ss-icons-arrow-left-usage" xlink:href="#ss-icons-arrow-left" class="sprite-symbol-usage"/><use id="ss-icons-arrow-right-usage" xlink:href="#ss-icons-arrow-right" class="sprite-symbol-usage"/><use id="ss-icons-arrow-up-usage" xlink:href="#ss-icons-arrow-up" class="sprite-symbol-usage"/><use id="ss-icons-calendar-usage" xlink:href="#ss-icons-calendar" class="sprite-symbol-usage"/><use id="ss-icons-calendar-check-usage" xlink:href="#ss-icons-calendar-check" class="sprite-symbol-usage"/><use id="ss-icons-cart-usage" xlink:href="#ss-icons-cart" class="sprite-symbol-usage"/><use id="ss-icons-cart-new-usage" xlink:href="#ss-icons-cart-new" class="sprite-symbol-usage"/><use id="ss-icons-chat-usage" xlink:href="#ss-icons-chat" class="sprite-symbol-usage"/><use id="ss-icons-chat-mobile-usage" xlink:href="#ss-icons-chat-mobile" class="sprite-symbol-usage"/><use id="ss-icons-chat-mobile-reverse-usage" xlink:href="#ss-icons-chat-mobile-reverse" class="sprite-symbol-usage"/><use id="ss-icons-chat-white-usage" xlink:href="#ss-icons-chat-white" class="sprite-symbol-usage"/><use id="ss-icons-check-round-usage" xlink:href="#ss-icons-check-round" class="sprite-symbol-usage"/><use id="ss-icons-chevron-left-usage" xlink:href="#ss-icons-chevron-left" class="sprite-symbol-usage"/><use id="ss-icons-chevron-right-usage" xlink:href="#ss-icons-chevron-right" class="sprite-symbol-usage"/><use id="ss-icons-chevron-right-circle-usage" xlink:href="#ss-icons-chevron-right-circle" class="sprite-symbol-usage"/><use id="ss-icons-chevron-up-usage" xlink:href="#ss-icons-chevron-up" class="sprite-symbol-usage"/><use id="ss-icons-clock-usage" xlink:href="#ss-icons-clock" class="sprite-symbol-usage"/><use id="ss-icons-close-usage" xlink:href="#ss-icons-close" class="sprite-symbol-usage"/><use id="ss-icons-compare-usage" xlink:href="#ss-icons-compare" class="sprite-symbol-usage"/><use id="ss-icons-cross-usage" xlink:href="#ss-icons-cross" class="sprite-symbol-usage"/><use id="ss-icons-delivery-usage" xlink:href="#ss-icons-delivery" class="sprite-symbol-usage"/><use id="ss-icons-edit-usage" xlink:href="#ss-icons-edit" class="sprite-symbol-usage"/><use id="ss-icons-expand-usage" xlink:href="#ss-icons-expand" class="sprite-symbol-usage"/><use id="ss-icons-faq-usage" xlink:href="#ss-icons-faq" class="sprite-symbol-usage"/><use id="ss-icons-gift-usage" xlink:href="#ss-icons-gift" class="sprite-symbol-usage"/><use id="ss-icons-grid-view-usage" xlink:href="#ss-icons-grid-view" class="sprite-symbol-usage"/><use id="ss-icons-heart-usage" xlink:href="#ss-icons-heart" class="sprite-symbol-usage"/><use id="ss-icons-list-view-usage" xlink:href="#ss-icons-list-view" class="sprite-symbol-usage"/><use id="ss-icons-live-usage" xlink:href="#ss-icons-live" class="sprite-symbol-usage"/><use id="ss-icons-location-usage" xlink:href="#ss-icons-location" class="sprite-symbol-usage"/><use id="ss-icons-location-new-usage" xlink:href="#ss-icons-location-new" class="sprite-symbol-usage"/><use id="ss-icons-logout-usage" xlink:href="#ss-icons-logout" class="sprite-symbol-usage"/><use id="ss-icons-mail-usage" xlink:href="#ss-icons-mail" class="sprite-symbol-usage"/><use id="ss-icons-mail-mobile-usage" xlink:href="#ss-icons-mail-mobile" class="sprite-symbol-usage"/><use id="ss-icons-mail-mobile-reverse-usage" xlink:href="#ss-icons-mail-mobile-reverse" class="sprite-symbol-usage"/><use id="ss-icons-notice-usage" xlink:href="#ss-icons-notice" class="sprite-symbol-usage"/><use id="ss-icons-person-usage" xlink:href="#ss-icons-person" class="sprite-symbol-usage"/><use id="ss-icons-pickup-usage" xlink:href="#ss-icons-pickup" class="sprite-symbol-usage"/><use id="ss-icons-picture-usage" xlink:href="#ss-icons-picture" class="sprite-symbol-usage"/><use id="ss-icons-playlist-usage" xlink:href="#ss-icons-playlist" class="sprite-symbol-usage"/><use id="ss-icons-remove-usage" xlink:href="#ss-icons-remove" class="sprite-symbol-usage"/><use id="ss-icons-repeat-usage" xlink:href="#ss-icons-repeat" class="sprite-symbol-usage"/><use id="ss-icons-search-usage" xlink:href="#ss-icons-search" class="sprite-symbol-usage"/><use id="ss-icons-search-new-usage" xlink:href="#ss-icons-search-new" class="sprite-symbol-usage"/><use id="ss-icons-share-usage" xlink:href="#ss-icons-share" class="sprite-symbol-usage"/><use id="ss-icons-shop-placement-usage" xlink:href="#ss-icons-shop-placement" class="sprite-symbol-usage"/><use id="ss-icons-star-usage" xlink:href="#ss-icons-star" class="sprite-symbol-usage"/><use id="ss-icons-telegram-usage" xlink:href="#ss-icons-telegram" class="sprite-symbol-usage"/><use id="ss-icons-telegram-reverse-usage" xlink:href="#ss-icons-telegram-reverse" class="sprite-symbol-usage"/><use id="ss-icons-unavailable-usage" xlink:href="#ss-icons-unavailable" class="sprite-symbol-usage"/><use id="ss-icons-user-usage" xlink:href="#ss-icons-user" class="sprite-symbol-usage"/><use id="ss-icons-viber-usage" xlink:href="#ss-icons-viber" class="sprite-symbol-usage"/><use id="ss-icons-whatsapp-usage" xlink:href="#ss-icons-whatsapp" class="sprite-symbol-usage"/><use id="ss-icons-whatsapp-reverse-usage" xlink:href="#ss-icons-whatsapp-reverse" class="sprite-symbol-usage"/></svg>