<svg width="238" height="22" fill="none" xmlns="http://www.w3.org/2000/svg"><path d="M89.344 10.501L104.252 21l14.908-10.499m-89.396-.052l14.908 10.499 14.908-10.5 14.908 10.5M0 10.449l14.908 10.499" stroke="#0C7373" stroke-width="2" stroke-miterlimit="10" stroke-linecap="round" stroke-linejoin="round"/><path d="M74.488 11.499L89.344 1.052l14.908 10.5 14.908-10.5" stroke="#000" stroke-width="2" stroke-miterlimit="10" stroke-linecap="round" stroke-linejoin="round"/><path d="M0 1l14.908 10.499L29.816 1l14.856 10.499L59.58 1" stroke="#FFAF00" stroke-width="2" stroke-miterlimit="10" stroke-linecap="round" stroke-linejoin="round"/><path d="M147.656 11.499L132.748 1 117.84 11.499m89.396.052L192.328 1.053 177.42 11.55 162.512 1.053M237 11.551L222.092 1.053" stroke="#0C7373" stroke-width="2" stroke-miterlimit="10" stroke-linecap="round" stroke-linejoin="round"/><path d="M162.512 10.501l-14.856 10.447-14.908-10.5-14.908 10.5" stroke="#FFAF00" stroke-width="2" stroke-miterlimit="10" stroke-linecap="round" stroke-linejoin="round"/><path d="M237 21l-14.908-10.499L207.184 21l-14.856-10.499L177.42 21" stroke="#000" stroke-width="2" stroke-miterlimit="10" stroke-linecap="round" stroke-linejoin="round"/></svg>