<svg width="26" height="28" viewBox="0 0 26 28" fill="none" xmlns="http://www.w3.org/2000/svg">
<path d="M23.3001 8.89994C20.6001 9.49994 17.9001 9.99994 15.2001 10.5999C14.6001 7.69994 14.0001 4.79994 13.4001 1.99994C12.8001 -1.00006 8.10006 -0.40006 8.70006 2.59994C9.30006 5.59994 10.0001 8.59994 10.6001 11.5999C7.70006 12.1999 4.80006 12.7999 2.00006 13.3999C-0.999938 13.9999 -0.399938 18.6999 2.60006 18.0999C5.60006 17.4999 8.60006 16.7999 11.6001 16.1999C12.3001 19.3999 12.9001 22.5999 13.6001 25.7999C14.2001 28.7999 18.9001 28.1999 18.3001 25.1999C17.6001 21.8999 16.9001 18.5999 16.2001 15.2999C18.8001 14.7999 21.3001 14.1999 23.9001 13.6999C26.9001 12.9999 26.3001 8.29994 23.3001 8.89994Z" fill="#8BCBB7"/>
</svg>
