<svg width="147" height="124" viewBox="0 0 147 124" fill="none" xmlns="http://www.w3.org/2000/svg">
<path d="M158.7 72.1999C155 67.5999 149.6 64.2999 143.7 61.6999C149 58.5999 154.4 55.4999 159.7 52.3999C168 47.5999 164.3 34.4999 155.6 32.8999C145.9 31.0999 136.2 29.6999 126.5 28.2999C121.9 27.5999 116.9 27.6999 112.1 27.4999C111.7 26.0999 111.3 24.7999 110.7 23.3999C103.6 7.99988 83.3999 3.19988 67.9999 8.79988C66.0999 5.29988 61.9999 2.99988 58.0999 3.19988C48.4999 3.79988 36.4999 -4.00012 27.9999 2.89988C24.8999 5.39988 24.2999 9.09988 22.6999 12.3999C19.4999 19.0999 14.2999 23.4999 7.39989 26.0999C3.09989 27.6999 -0.600111 33.4999 1.69989 37.9999C4.79989 44.1999 8.09989 49.3999 13.5999 53.6999C15.1999 54.8999 17.2999 55.2999 19.1999 54.9999C21.6999 56.3999 24.7999 56.5999 28.0999 55.1999C27.0999 62.6999 26.1999 70.0999 25.2999 77.5999C23.9999 88.6999 24.5999 104.6 40.1999 103.7C47.3999 103.3 50.8999 98.7999 52.7999 92.8999C55.4999 95.3999 59.1999 96.3999 62.8999 94.5999C70.7999 99.6999 79.1999 104.2 88.0999 107.2C89.6999 107.7 91.1999 107.9 92.4999 107.7C112 121.3 144.9 127.8 159.4 104.5C165.6 94.6999 166.1 81.4999 158.7 72.1999ZM56.9999 65.1999C58.4999 56.3999 60.1999 47.5999 62.2999 38.8999C67.6999 37.9999 77.0999 34.7999 78.0999 42.9999C79.1999 51.3999 65.2999 60.6999 56.9999 65.1999ZM138.6 95.0999C128.2 103.3 111.1 94.2999 102.5 87.8999C99.0999 85.3999 95.4999 85.0999 92.3999 86.0999C88.5999 83.6999 84.7999 81.4999 80.8999 79.2999C87.5999 73.0999 94.1999 66.6999 100.2 59.8999C104.2 55.3999 107.9 50.3999 110.3 44.8999C114.4 46.3999 118.7 47.6999 123.1 48.6999C118.9 51.0999 114.7 53.5999 110.5 55.9999C101.7 60.9999 106.2 73.5999 114.7 75.6999C121.3 77.3999 152.6 83.9999 138.6 95.0999Z" fill="#F5F5F5"/>
<path d="M162.2 80.2999C155.7 69.9999 144.2 66.4999 132.9 64.4999C140 61.2999 147.1 58.0999 154.1 54.5999C154.2 54.5999 154.2 54.4999 154.3 54.4999C155.2 54.8999 156.3 54.7999 156.7 53.7999C159 47.6999 160.5 41.4999 161.6 35.1999C161.8 34.0999 161.1 32.9999 160 32.7999C151.3 31.1999 142.5 29.4999 133.8 27.8999C127.1 26.5999 119.5 23.9999 112.7 24.4999C112 24.4999 111.4 24.9999 111.1 25.5999C110.4 23.9999 109.3 22.3999 107.8 20.7999C96.0999 8.19988 72.5999 6.89988 61.5999 19.4999C61.8999 17.8999 62.0999 16.2999 62.3999 14.6999C63.3999 13.6999 63.1999 11.4999 61.3999 11.1999C55.3999 9.89988 49.3999 8.49988 43.3999 7.39988C40.0999 6.79988 38.2999 5.89988 35.5999 7.99988C31.9999 10.8999 29.7999 16.7999 26.9999 20.3999C23.1999 25.3999 18.8999 29.8999 14.2999 34.1999C13.9999 34.4999 13.8999 34.7999 13.8999 35.1999C13.7999 35.3999 13.6999 35.5999 13.6999 35.8999C12.9999 41.6999 15.3999 48.6999 18.7999 53.4999C18.9999 54.8999 20.5999 56.0999 22.1999 55.1999C26.6999 52.6999 31.1999 50.0999 35.5999 47.5999C32.6999 61.5999 28.2999 77.0999 29.0999 90.9999C27.7999 91.9999 27.8999 94.4999 29.9999 94.8999C36.5999 95.9999 42.8999 97.5999 49.2999 99.6999C50.7999 100.2 51.7999 98.5999 51.8999 97.3999C51.9999 95.9999 52.0999 94.5999 52.1999 93.2999C52.3999 93.4999 52.4999 93.5999 52.7999 93.7999C63.5999 99.7999 74.7999 105.2 85.7999 110.8C86.5999 111.2 87.7999 111 88.3999 110.3C89.1999 109.1 90.7999 107.4 92.4999 105.4C106.2 128 141.2 128.7 158.6 109.6C165.9 101.2 168.2 89.7999 162.2 80.2999ZM31.3999 90.4999C37.2999 76.3999 38.0999 58.4999 40.7999 43.5999C41.1999 41.5999 38.9999 40.4999 37.3999 41.3999C31.9999 44.4999 26.4999 47.5999 21.0999 50.6999C20.2999 48.7999 19.4999 46.8999 18.8999 44.8999C18.0999 41.8999 17.9999 38.8999 17.4999 35.9999C17.4999 35.7999 17.3999 35.6999 17.2999 35.4999C23.5999 29.9999 29.3999 23.8999 34.1999 16.9999C34.8999 16.0999 35.3999 15.0999 36.0999 14.1999C39.5999 9.79988 39.6999 10.6999 43.9999 11.5999C48.9999 12.6999 54.0999 13.7999 59.0999 14.8999C51.9999 40.6999 49.0999 67.7999 47.6999 94.4999C42.3999 92.7999 36.9999 91.4999 31.3999 90.4999ZM89.4999 100.9C87.1999 104.1 86.8999 105.3 83.0999 104.3C80.0999 103.5 76.8999 101.1 74.0999 99.6999C67.5999 96.3999 61.1999 92.8999 54.4999 89.7999C53.5999 89.3999 52.7999 89.5999 52.2999 90.0999C53.4999 72.5999 55.8999 55.2999 58.5999 38.0999C62.8999 35.4999 67.0999 31.8999 72.0999 30.6999C79.2999 28.9999 82.7999 33.1999 81.0999 40.0999C80.4999 42.3999 77.6999 45.2999 76.1999 46.9999C70.4999 53.9999 63.4999 59.1999 55.7999 63.7999C54.4999 64.5999 55.5999 66.8999 57.0999 66.1999C64.4999 62.9999 71.0999 58.2999 76.6999 52.4999C80.6999 48.2999 87.5999 41.1999 86.7999 34.7999C86.1999 29.7999 81.2999 26.2999 76.5999 25.8999C70.2999 25.2999 64.6999 28.9999 59.4999 32.3999C59.7999 30.4999 60.0999 28.5999 60.3999 26.5999C65.9999 18.2999 75.1999 13.6999 85.6999 14.6999C98.9999 15.9999 112.2 25.3999 104.7 39.5999C96.9999 54.2999 79.7999 67.2999 67.1999 77.1999C64.9999 78.8999 67.4999 82.4999 69.6999 80.7999L69.7999 80.6999C75.0999 83.3999 80.5999 85.6999 86.0999 87.9999C87.0999 88.3999 95.1999 90.8999 95.4999 92.0999C95.8999 93.7999 90.5999 99.4999 89.4999 100.9ZM87.6999 84.7999C82.4999 82.7999 77.2999 80.6999 72.0999 78.8999C84.2999 69.0999 96.2999 58.1999 105.9 45.7999C106.5 44.9999 107.1 44.0999 107.7 43.2999C107.6 43.7999 107.6 44.3999 107.5 44.8999C107.3 46.4999 109.2 47.0999 110 46.0999C115.5 46.5999 120.7 47.6999 125.8 49.6999C120.3 52.4999 114.4 54.2999 108.3 55.4999C107.1 55.6999 106.9 57.0999 107.5 57.7999C106.9 59.6999 106.5 61.6999 106.1 63.5999C105.5 66.2999 104.7 68.9999 104.3 71.6999C104.2 72.5999 105 73.1999 105.8 73.1999C106.1 73.6999 106.7 73.9999 107.3 73.9999C113.2 74.2999 118.8 75.0999 124.4 77.1999C129.9 79.2999 141 84.6999 134.8 91.5999C126.7 100.7 113.9 93.0999 106.3 87.1999C106.1 86.5999 105.6 86.1999 105.1 86.1999L105 86.0999C103.8 85.1999 102.5 86.6999 103.4 87.7999C102.5 88.9999 101.6 90.1999 100.5 91.2999C100.3 91.4999 100.1 91.6999 99.7999 91.8999C99.6999 91.1999 99.5999 90.4999 99.1999 89.7999C97.2999 86.7999 90.7999 85.9999 87.6999 84.7999ZM150 110.8C132.7 122.9 107.2 121.1 95.6999 102.3C95.4999 102 95.2999 101.8 95.0999 101.7C96.7999 99.4999 98.2999 97.1999 99.0999 95.0999C101.4 93.6999 103.5 91.4999 105.1 89.4999C114.2 97.5999 133.2 105.5 139.9 90.5999C146.6 75.5999 117 70.0999 107.4 69.9999C107.9 68.3999 108.4 66.6999 108.9 65.0999C109.6 62.6999 110.7 60.0999 111 57.5999C118.1 56.5999 124.8 54.1999 131.2 50.8999C132.5 50.1999 132.1 48.1999 131 47.5999C124.8 44.3999 117.9 42.4999 110.9 42.0999C111.4 38.4999 111.9 33.7999 113.3 31.7999C117.1 26.6999 124.3 30.0999 129.3 30.9999L157.2 36.2999C156.2 41.4999 154.8 46.5999 153.5 51.6999C153.4 51.6999 153.2 51.6999 153 51.7999C143.4 55.3999 134.1 59.4999 124.6 63.4999C122.8 64.2999 122.7 67.2999 124.9 67.5999C134.6 68.9999 145.3 70.2999 153.1 76.6999C165.3 86.4999 162.1 102.3 150 110.8Z" fill="#1D1D1C"/>
</svg>
