<svg width="94" height="82" viewBox="0 0 94 82" fill="none" xmlns="http://www.w3.org/2000/svg">
<path d="M20.6875 24.4715L16.9543 21.7564C17.2937 21.0777 17.6331 20.908 17.9725 20.908L110.115 2.41166L117.581 0.884442C118.09 0.714751 118.599 0.884442 119.108 1.22382C119.787 1.7329 120.126 2.58135 119.957 3.42981C119.787 4.27826 119.108 4.78734 118.26 4.95703L66.6738 15.3082L66.1647 14.7991C66.1647 14.6294 65.9951 14.4597 65.8254 14.29C65.6557 14.1203 65.6557 14.1203 65.486 13.9507C64.8072 13.4416 64.1285 13.6113 63.6194 13.9507C63.1103 14.29 62.7709 14.9688 62.9406 15.6476L20.8572 24.3018C20.8572 24.4715 20.8572 24.4715 20.6875 24.4715Z" fill="#8BCBB7"/>
<path d="M92.1275 81.1481L0.833679 14.4595C-0.184467 13.611 -0.184467 12.4232 0.494297 11.5747C1.17306 10.7263 2.19121 10.3869 3.37904 11.0657L17.4634 21.4168C17.124 22.0956 16.9543 22.6047 16.9543 23.1137C16.9543 23.6228 17.124 23.9622 17.4634 24.3016C17.8028 24.4713 18.1422 24.641 18.6512 24.4713L19.8391 24.3016L20.8572 24.1319L53.6076 47.8886C53.2682 48.9068 53.6076 49.9249 54.2864 50.2643C54.7954 50.7734 55.6439 50.6037 56.153 50.2643C56.153 50.2643 56.662 49.9249 56.662 50.0946L94.6728 77.9239C95.691 78.7724 95.691 79.9602 95.0122 80.8087C94.3334 81.4874 93.1456 81.8268 92.1275 81.1481Z" fill="#8BCBB7"/>
<path d="M17.2935 24.6411C16.7845 24.3017 16.6148 23.7927 16.4451 23.1139C16.4451 22.4351 16.6148 21.7564 16.9541 21.417L20.857 24.132L21.0267 24.3017C21.0267 24.4714 20.857 24.4714 20.857 24.4714L18.6511 24.9805C18.142 24.9805 17.6329 24.9805 17.2935 24.6411Z" fill="#8BCBB7"/>
<path d="M56.3228 50.264L53.2683 48.058C53.2683 47.5489 53.438 47.3793 53.7774 47.2096C58.6984 43.4764 64.4679 35.1615 65.4861 27.0163C65.9951 22.774 65.1467 19.2105 62.9407 16.4955C62.771 16.3258 62.6013 16.1561 62.6013 15.9864L66.5042 14.9683C73.9706 25.9982 65.4861 43.3067 56.4924 50.4337C56.4924 50.4337 56.3228 50.4337 56.3228 50.264Z" fill="#8BCBB7"/>
<path d="M62.7708 15.9865C62.6011 15.9865 62.6011 15.9865 62.7708 15.9865C62.4315 15.138 62.7708 14.1199 63.4496 13.6108C64.1284 13.1017 65.1465 13.1017 65.8253 13.6108C65.995 13.7805 66.1647 13.7805 66.3343 13.9502C66.504 14.1199 66.6737 14.4593 66.8434 14.629L67.0131 14.9683V15.3077L63.2799 15.9865C62.7708 16.1562 62.7708 15.9865 62.7708 15.9865Z" fill="#8BCBB7"/>
<path d="M53.947 50.6037C53.0985 50.0947 52.7592 48.9068 53.2682 47.8887L56.4924 49.925C56.4924 49.925 56.4924 50.0947 56.4924 50.2643C56.4924 50.2643 56.3227 50.434 56.3227 50.6037C55.4742 51.1128 54.6258 51.1128 53.947 50.6037Z" fill="#8BCBB7"/>
<path d="M69.2193 51.1131C68.8799 50.7737 68.5405 50.2647 68.5405 49.7556C68.5405 49.2465 68.8799 48.7374 69.2193 48.5677C70.0677 48.0587 71.0859 47.5496 72.104 47.0405H72.2737C72.2737 47.0405 72.2737 47.2102 72.2737 47.3799C71.9343 47.7193 71.9343 48.3981 72.4434 48.7374L73.1222 49.2465C72.104 50.095 71.0859 50.604 70.2374 51.1131C70.0677 51.4525 69.5587 51.4525 69.2193 51.1131Z" fill="#8BCBB7"/>
<path d="M73.2918 46.87C73.1221 46.87 73.1221 46.87 73.2918 46.87C73.1221 46.7003 73.2918 46.5306 73.2918 46.5306L76.0069 45.1731C78.0432 44.1549 80.0795 43.1368 82.1158 42.1187H82.2854C82.2854 42.2883 82.2854 42.2883 82.2854 42.458C82.1158 42.6277 82.1158 42.6277 82.1158 42.7974L81.2673 45.6822C79.5704 46.7003 78.0432 47.3791 76.3463 48.2275L75.8372 48.3972L73.8009 47.0397C73.6312 47.0397 73.4615 46.87 73.2918 46.87Z" fill="#8BCBB7"/>
<path d="M82.6247 42.1191C82.6247 42.1191 82.6247 41.9494 82.6247 42.1191C82.455 41.9494 82.6247 41.7798 82.6247 41.7798C82.9641 41.6101 83.3035 41.7798 83.6429 41.9495C83.8126 42.1191 83.9823 42.2888 84.152 42.6282C84.152 42.7979 84.152 42.7979 83.9823 42.9676H83.8126C83.8126 42.7979 83.6429 42.6282 83.4732 42.6282C83.3035 42.1191 82.9641 42.1191 82.6247 42.1191C82.7944 42.1191 82.6247 42.1191 82.6247 42.1191Z" fill="#8BCBB7"/>
<path d="M82.7945 41.9497C82.6248 41.9497 82.2854 42.1194 82.1157 42.2891C82.2854 42.2891 82.4551 42.1194 82.4551 42.1194C82.6248 41.9497 82.6248 41.9497 82.7945 41.9497Z" fill="#8BCBB7"/>
<path d="M78.0429 57.561C77.5338 57.2216 77.3642 56.5429 77.5338 56.0338L78.3823 53.3187L79.2308 53.4884C79.7398 53.8278 80.2489 53.6581 80.5883 53.3187C80.9277 52.9793 80.9277 52.3006 80.4186 51.9612L79.4004 51.1127C79.7398 49.4158 80.2489 47.8886 80.758 46.3614L81.0974 45.5129C81.9458 45.0039 82.7943 44.4948 83.6427 44.1554C84.1518 43.816 84.1518 43.307 84.1518 42.7979C84.1518 42.6282 84.1518 42.6282 84.3215 42.4585H84.4912C84.6609 42.7979 84.6609 43.1373 84.6609 43.4766C83.473 47.8886 81.9458 52.1309 80.5883 56.5429C80.4186 57.2216 80.0792 57.561 79.7398 57.561C79.0611 57.9004 78.552 57.7307 78.0429 57.561Z" fill="#8BCBB7"/>
<path d="M80.9277 45.6827C80.9277 45.6827 80.758 45.513 80.9277 45.513L81.0974 44.8342C81.2671 44.1555 81.6065 43.4767 81.7762 42.6282C81.7762 42.4585 81.9459 42.2889 82.1156 42.1192C82.1156 42.1192 82.7943 41.7798 82.964 41.7798C83.3034 41.7798 83.6428 41.9495 83.9822 42.1192C84.1518 42.2889 84.3215 42.4585 84.4912 42.6282C84.6609 43.307 84.6609 43.9858 83.8125 44.4948C82.964 45.0039 82.1155 45.3433 81.4368 45.8524C81.0974 45.6827 80.9277 45.6827 80.9277 45.6827Z" fill="#8BCBB7"/>
<path d="M78.5522 53.4882L73.2917 49.5853C74.1402 48.7369 74.9887 48.3975 75.6674 48.0581L79.5703 50.7732L79.2309 52.3004L78.8916 53.4882C78.8916 53.4882 78.8916 53.6579 78.7219 53.6579C78.7219 53.4882 78.5522 53.4882 78.5522 53.4882Z" fill="#8BCBB7"/>
<path d="M72.1041 47.379C71.9344 47.2093 71.9344 47.2093 72.1041 47.0396C72.4435 46.7002 72.7828 46.3608 73.2919 46.3608H73.4616C73.4616 46.3608 73.4616 46.3608 73.6313 46.5305C73.6313 46.7002 73.6313 46.7002 73.4616 46.7002L72.9525 47.2093L72.4435 47.5487C72.2738 47.379 72.2738 47.379 72.1041 47.379Z" fill="#8BCBB7"/>
<path d="M73.1222 49.5852L72.4434 49.0761C71.7646 48.5671 71.7646 47.7186 72.104 47.2095L72.7828 46.8701L73.2919 46.5308C73.6312 46.5308 73.9706 46.5308 74.1403 46.7005L75.8372 48.058C74.9888 48.9064 74.1403 49.2458 73.4616 49.5852C73.2919 49.5852 73.2919 49.5852 73.1222 49.5852Z" fill="#8BCBB7"/>
<path d="M78.8916 53.8274L78.5522 53.488L79.231 50.7729L80.5885 51.4517C81.2673 51.9608 81.2673 52.8092 80.9279 53.488C80.4189 53.9971 79.7401 54.3365 78.8916 53.8274Z" fill="#8BCBB7"/>
<path d="M89.2428 52.8095C87.8853 51.7913 87.3762 50.0944 87.7156 48.2278C87.8853 47.04 88.564 46.1915 89.4125 45.5127C90.4306 44.834 91.6185 44.6643 92.8063 45.0037H92.976H93.1457C93.4851 45.1734 93.9941 45.3431 94.3335 45.6824C95.8608 46.8703 96.3698 48.5672 95.5214 50.2641C94.6729 52.1307 92.6366 53.8276 90.6003 53.3185C90.261 53.3185 89.7519 52.9792 89.2428 52.8095ZM92.1275 47.7187C91.2791 47.549 90.77 48.0581 90.6003 48.3975C90.261 49.0763 90.4306 50.0944 90.9397 50.4338C91.1094 50.6035 91.2791 50.6035 91.4488 50.6035C92.1276 50.6035 92.976 49.755 93.1457 49.0763C93.3154 48.5672 93.1457 48.2278 92.8063 47.8884C92.6366 47.8884 92.2972 47.7187 92.1275 47.7187ZM92.8063 45.3431C92.8063 45.3431 92.6366 45.3431 92.8063 45.3431C92.2972 45.3431 91.7882 45.6824 91.7882 46.0218C91.6185 46.3612 91.6185 46.8703 91.9579 47.04C91.9579 47.04 91.9579 47.04 92.1275 47.04C92.1275 47.04 92.1276 47.04 92.2972 47.04C92.8063 47.2097 93.3154 46.8703 93.4851 46.3612C93.6548 46.0218 93.6548 45.5128 93.3154 45.3431C93.3154 45.3431 93.3154 45.3431 93.1457 45.1734H92.976L92.8063 45.3431Z" fill="#8BCBB7"/>
<path d="M91.6182 47.3794C91.1092 47.0401 90.9395 46.3613 91.2789 45.6825C91.6182 45.1734 92.1273 44.6644 92.9758 44.8341C93.1455 44.8341 93.3152 45.0038 93.4848 45.0038C93.9939 45.3431 93.9939 46.0219 93.8242 46.531C93.4848 47.0401 92.9758 47.5491 92.1273 47.3794C91.9576 47.5491 91.7879 47.5491 91.6182 47.3794Z" fill="#8BCBB7"/>
</svg>
