<svg width="125" height="133" viewBox="0 0 125 133" fill="none" xmlns="http://www.w3.org/2000/svg">
<path d="M3.82029 62.0561C3.29336 61.9244 3.02989 61.5292 2.89816 61.0022C2.76643 60.4753 3.02989 59.9484 3.42509 59.5532C3.82029 59.2897 4.21549 59.158 4.74243 59.4214L5.92803 59.8166C5.26936 60.7388 4.61069 61.3974 4.08376 62.0561H3.82029Z" fill="#8BCBB7"/>
<path d="M19.1013 61.002C18.4426 60.7386 18.0474 60.0799 18.1792 59.2895C18.3109 58.8943 18.5744 58.6308 18.9696 58.3674C19.3648 58.2356 19.76 58.2356 20.0234 58.3674C20.2869 58.4991 20.4186 58.6308 20.5504 58.7626L20.6821 59.026C20.6821 59.026 20.6821 59.2895 20.6821 59.1578C20.2869 59.026 19.8917 59.2895 19.6282 59.553C19.3648 59.9482 19.233 60.3434 19.4965 60.7386C19.4965 60.7386 19.4965 60.8703 19.3648 60.8703C19.233 61.1338 19.1013 61.1338 19.1013 61.002Z" fill="#8BCBB7"/>
<path d="M21.2091 60.0794L20.8139 59.6842L20.5504 59.289C20.5504 59.289 20.5504 59.1572 20.6821 59.1572H20.9456C21.2091 59.289 21.6043 59.4207 21.8677 59.4207V59.5524L21.736 59.6842L21.3408 59.9476C21.3408 60.0794 21.3408 60.0794 21.2091 60.0794Z" fill="#8BCBB7"/>
<path d="M19.2331 61.1332C19.2331 61.1332 19.1014 61.0015 19.2331 61.1332C18.9697 60.6063 18.9697 59.9476 19.3649 59.5524C19.7601 59.1572 20.1553 58.8937 20.6822 59.0255L21.0774 59.4207L21.3409 59.8159L20.287 60.8697C20.0235 61.1332 19.6283 61.265 19.2331 61.1332Z" fill="#8BCBB7"/>
<path d="M1.05387 64.69C0.526934 64.5583 0.131733 64.1631 0 63.6362C0 63.241 0 62.8458 0.263467 62.4506C2.7664 58.8938 6.19147 56.1274 9.35308 53.8879C9.74828 53.6244 10.2752 53.4927 10.6704 53.6244C10.8021 53.6244 10.9339 53.7562 11.0656 53.7562C11.0656 53.7562 11.1973 53.8879 11.0656 53.8879C11.0656 54.0196 10.9339 54.0196 10.9339 54.0196C10.5387 54.0196 10.2752 54.0196 10.0117 54.1514C9.74828 54.2831 9.74828 54.5466 9.61654 54.9418L9.48481 57.0495C8.03574 58.2351 7.11361 59.0255 6.19147 59.9476L5.53281 59.8159L5.00587 59.5524C4.3472 59.289 3.82027 59.6842 3.5568 60.2111C3.42507 60.738 3.42507 61.3967 4.21547 61.6602L4.3472 61.7919V61.9236C3.68854 62.5823 3.1616 63.3727 2.63467 64.0314C2.23947 64.69 1.5808 64.9535 1.05387 64.69Z" fill="#8BCBB7"/>
<path d="M9.08961 67.1931C8.56268 66.9296 8.16748 66.4027 8.29921 65.744C8.43095 64.9536 8.56268 64.1632 8.69441 63.3728C9.35308 63.3728 9.88002 63.5045 10.4069 63.5045C10.8021 63.5045 11.0656 63.3728 11.3291 63.1093C11.3291 63.1093 11.4608 62.9776 11.4608 63.1093L11.5926 63.2411C11.4608 64.1632 11.3291 65.0853 11.1973 66.0075C11.0656 66.4027 10.8021 66.7979 10.5387 67.0613C10.0117 67.3248 9.48481 67.3248 9.08961 67.1931Z" fill="#8BCBB7"/>
<path d="M11.5926 62.0559C11.4609 62.0559 11.4609 61.9241 11.5926 62.0559C11.3291 61.6607 11.1974 61.5289 10.9339 61.3972C10.8022 61.3972 10.8022 61.3972 10.6705 61.3972C10.1435 61.2655 9.61659 61.2655 9.08966 61.1337C9.08966 59.6847 9.08966 58.4991 9.22139 57.3135C9.74833 56.7865 10.407 56.3913 10.9339 55.9961C11.1974 55.7327 11.3291 55.4692 11.3291 55.2057C11.3291 54.8105 11.0657 54.5471 10.8022 54.2836C10.8022 54.2836 10.8022 54.1519 10.9339 54.1519H11.1974C11.8561 54.4153 12.1195 54.9423 12.1195 55.4692V56.5231C11.9878 58.2356 11.8561 60.0799 11.7243 61.9241C11.7243 61.9241 11.7243 62.0559 11.5926 62.0559Z" fill="#8BCBB7"/>
<path d="M9.35305 57.3132C9.35305 57.3132 9.22131 57.3132 9.35305 57.3132C9.22131 57.3132 9.22131 57.3132 9.22131 57.1814V55.0737C9.22131 54.6785 9.35305 54.2833 9.61651 54.1516C9.87998 53.8881 10.2752 53.7564 10.8021 53.8881C11.1973 54.1516 11.4608 54.6785 11.4608 55.0737C11.4608 55.3372 11.329 55.7324 10.9338 56.1276C10.4069 56.5228 9.87998 56.918 9.35305 57.3132Z" fill="#8BCBB7"/>
<path d="M4.08376 62.0554C4.08376 62.0554 3.95203 62.0554 4.08376 62.0554C3.95203 61.9236 3.95203 61.7919 3.95203 61.7919C4.61069 61.1333 5.26936 60.4746 5.92803 59.8159C6.9819 60.0794 8.03576 60.4746 9.22137 60.738C9.22137 61.7919 9.22137 62.5823 9.08963 63.3727C7.11363 63.241 5.40109 62.5823 4.08376 62.0554Z" fill="#8BCBB7"/>
<path d="M11.3291 63.3727L11.1973 63.241C11.1973 62.8458 11.1973 62.5823 11.3291 62.1871V61.7919C11.3291 61.7919 11.3291 61.6602 11.4608 61.6602C11.4608 61.6602 11.4608 61.6602 11.5925 61.6602C11.5925 61.6602 11.7243 61.6602 11.7243 61.7919C11.9877 62.3188 11.856 62.9775 11.5925 63.3727C11.5925 63.3727 11.4608 63.5044 11.3291 63.3727Z" fill="#8BCBB7"/>
<path d="M8.82613 63.5048L8.6944 63.3731C8.82613 62.5826 8.82613 61.6605 8.95786 60.8701C9.61653 60.8701 10.1435 61.0018 10.6704 61.0018C10.8021 61.0018 10.9339 61.0019 10.9339 61.1336C11.1973 61.2653 11.4608 61.5288 11.5925 61.7923V62.1875C11.5925 62.5827 11.4608 62.9778 11.4608 63.3731C11.1973 63.7683 10.8021 64.0317 10.2752 63.9C9.88 63.7683 9.35306 63.6365 8.82613 63.5048C8.82613 63.6365 8.82613 63.5048 8.82613 63.5048Z" fill="#8BCBB7"/>
<path d="M66.9206 116.857C66.6571 116.725 66.5254 116.593 66.3936 116.461L18.4426 60.6064C18.1792 60.2112 18.0474 59.816 18.1792 59.4208C18.1792 59.2891 18.3109 59.2891 18.3109 59.2891C18.4426 59.2891 18.4426 59.4208 18.4426 59.4208C18.3109 59.9477 18.7061 60.4747 19.2331 60.7381L19.4965 60.8699C19.6283 61.1333 19.76 61.2651 20.0235 61.3968L22.1312 62.0555L24.1072 62.7141L27.0053 66.0075L67.184 112.773L67.0523 113.563L66.6571 115.012C66.5254 115.671 66.9206 116.198 67.4475 116.461C67.5792 116.461 67.711 116.593 67.711 116.593C67.711 116.725 67.711 116.725 67.711 116.725C67.3158 116.857 67.0523 116.857 66.9206 116.857Z" fill="#8BCBB7"/>
<path d="M18.1792 59.5523C18.0475 59.5523 18.0475 59.4206 18.0475 59.4206C18.1792 59.1571 18.311 58.8937 18.5744 58.6302C26.3467 52.5705 34.2507 46.6425 42.1547 40.7145C59.1483 27.8046 76.8006 14.3678 93.2673 0.404014C93.6625 0.140547 94.1894 0.00881339 94.5846 0.140547C94.7164 0.140547 94.7164 0.27228 94.7164 0.404014C94.7164 0.535747 94.7164 0.535747 94.5846 0.535747C94.1894 0.404014 93.7942 0.404014 93.5308 0.667481C93.2673 0.799214 93.0038 1.06268 93.0038 1.45788L92.6086 3.43388L92.2134 4.75122C76.4054 18.0563 59.6753 30.8344 43.6038 43.0857C36.3584 48.6185 29.1131 54.1513 21.8678 59.6841L21.2091 59.5523L20.6822 59.4206C20.6822 59.4206 20.5504 59.4206 20.4187 59.4206L20.1552 59.1572C20.0235 59.0254 19.8918 58.8937 19.76 58.7619C19.4966 58.6302 19.2331 58.6302 18.9696 58.7619C18.7062 58.8937 18.4427 59.1571 18.311 59.4206C18.4427 59.5523 18.311 59.5523 18.1792 59.5523Z" fill="#8BCBB7"/>
<path d="M107.626 89.851C107.626 89.5875 107.494 89.1923 106.968 89.0606L105.65 88.6654L104.992 88.2702L103.279 76.9411L100.117 53.756L96.8241 30.5709L97.0875 30.1757C97.2193 30.044 97.351 29.7805 97.2193 29.517C97.2193 29.2536 96.9558 28.9901 96.8241 28.9901C96.6923 28.9901 96.5606 28.8584 96.5606 28.8584L96.4289 28.068L96.1654 26.6189L96.4289 26.3554C96.6923 26.092 97.0875 25.8285 97.351 25.6968C97.6145 25.565 97.6145 25.3016 97.6145 25.1698C97.6145 24.9064 97.351 24.6429 97.0875 24.6429C96.9558 24.6429 96.6923 24.5112 96.4289 24.7746C96.4289 24.7746 96.1654 24.9064 96.0337 24.9064H95.7702V23.7208L95.5067 21.3496L95.902 20.6909L96.4289 20.0322C96.5606 19.9005 96.5606 19.637 96.5606 19.5053C96.5606 19.2418 96.2971 19.1101 96.1654 18.9784C95.9019 18.8466 95.6385 18.9784 95.5067 19.1101H95.375C95.375 19.1101 95.2433 19.1101 95.2433 18.9784L94.9798 17.2658L94.8481 16.7389L95.2433 15.9485C95.5068 15.5533 95.7702 15.1581 96.0337 14.6312C96.1654 14.3677 96.1654 14.236 96.1654 14.1042C96.0337 13.8407 95.9019 13.709 95.7702 13.5773C95.6385 13.5773 95.375 13.4455 95.1115 13.8408L94.8481 14.1042C94.8481 14.1042 94.7163 14.236 94.5846 14.236H94.4529L94.1894 12.2599L93.6625 8.43968L94.4529 4.88287L95.2433 1.4578C95.2433 1.32607 95.375 1.19434 95.375 1.19434H95.5067L101.83 45.4568L108.021 89.7192L107.626 89.851Z" fill="#8BCBB7"/>
<path d="M68.3697 116.462C68.2379 116.33 68.2379 116.33 68.2379 116.198C68.2379 116.066 68.3697 116.066 68.3697 115.803L69.1601 112.51L77.8545 106.845L98.2731 93.54L103.542 90.1149L104.86 90.5101L106.045 90.9053C106.441 91.0371 106.836 90.9053 106.968 90.7736C107.231 90.5101 107.494 90.2467 107.494 89.8515C107.494 89.7197 107.626 89.7197 107.626 89.7197L107.758 89.8515C107.758 90.3784 107.626 90.7736 107.231 91.0371L87.7345 103.683L68.5014 116.462C68.5014 116.462 68.5014 116.593 68.3697 116.462Z" fill="#8BCBB7"/>
<path d="M67.4475 116.856L67.3158 116.725C67.3158 116.593 67.4475 116.593 67.4475 116.593C67.711 116.593 67.9745 116.461 68.2379 116.33C68.2379 116.33 68.5014 116.198 68.5014 116.33L68.6331 116.461C68.3697 116.856 67.8427 116.988 67.4475 116.856Z" fill="#8BCBB7"/>
<path d="M67.7111 113.958C67.5793 113.958 67.5793 113.958 67.7111 113.958L67.1841 113.431L66.7889 112.904C76.4055 74.0429 84.573 38.6066 91.95 4.75113L92.2135 4.35593L93.0039 3.69727L93.7943 7.51754L93.926 8.43967C93.1356 11.8647 92.477 15.2898 91.6866 18.7149C91.0279 19.637 90.3692 20.5591 89.7106 21.4813C89.5788 21.7448 89.5788 21.8765 89.5788 22.0082C89.5788 22.2717 89.8423 22.4034 89.974 22.5352C90.1058 22.6669 90.3692 22.5352 90.501 22.5352H90.6327C90.6327 22.5352 90.7644 22.6669 90.6327 22.6669L90.2375 24.6429L89.8423 26.7506L89.3154 27.541C88.525 28.5949 87.7346 29.6488 86.9442 30.8344C86.9442 30.9661 86.9442 31.0978 86.9442 31.3613C86.9442 31.6248 87.2076 31.7565 87.3394 31.8882C87.4711 31.8882 87.8663 32.02 87.998 31.6248L88.2615 31.2296L88.6567 30.7026C88.6567 30.7026 88.7884 30.5709 88.7884 30.7026C88.9202 30.7026 88.9202 30.8344 88.9202 30.8344L88.6567 31.7565L88.3932 32.8104C87.7346 33.6008 87.2076 34.3912 86.6807 35.1816C86.022 35.972 85.4951 36.7624 84.8364 37.5528C84.7047 37.6845 84.7047 37.948 84.7047 38.0797C84.7047 38.3432 84.9682 38.4749 85.0999 38.6066C85.2316 38.6066 85.6268 38.7384 85.8903 38.3432C86.2855 37.8162 86.6807 37.421 86.9442 36.8941L87.2076 36.6306C87.2076 36.6306 87.3394 36.4989 87.3394 36.6306L87.4711 36.7624L87.0759 38.6066L86.4172 39.397L84.046 41.9C83.9143 42.0317 83.9143 42.1634 83.9143 42.4269C83.9143 42.5586 84.1778 42.8221 84.3095 42.9538C84.573 43.0856 84.8364 42.9538 85.0999 42.8221L86.022 41.7682H86.1538L86.2855 41.9C83.5191 54.2829 80.4892 66.7976 77.5911 79.1805L76.5372 79.0488C75.8785 78.7853 75.3516 79.1805 75.0881 79.7075C74.9564 80.2344 74.9564 80.7614 75.6151 81.0248L76.8007 81.42C74.4295 91.9587 71.7948 102.366 69.2919 112.773L68.238 113.431L67.4476 113.958C67.7111 113.958 67.7111 113.958 67.7111 113.958Z" fill="#8BCBB7"/>
<path d="M67.184 116.856C66.5254 116.593 65.9984 115.934 66.2619 115.012L66.3936 114.222L66.7888 112.773C66.7888 112.773 66.7888 112.641 66.9206 112.641C66.9206 112.641 66.9206 112.641 67.0523 112.641L67.9744 113.695L68.6331 113.168L69.5553 112.509H69.687C69.687 112.509 69.8187 112.641 69.687 112.641L68.8966 115.934C68.8966 116.198 68.7648 116.33 68.6331 116.33L68.3697 116.461C68.1062 116.593 67.8427 116.725 67.4475 116.725C67.3158 116.856 67.184 116.856 67.184 116.856ZM67.5792 113.958L67.184 114.354V114.485L67.8427 114.617H68.2379L67.5792 113.958Z" fill="#8BCBB7"/>
<path d="M66.6572 114.617C66.5255 114.617 66.5255 114.617 66.6572 114.617C66.5255 114.485 66.5255 114.353 66.6572 114.353L67.3159 113.958L67.7111 113.695L68.6332 114.617V114.749L68.5015 114.88L67.5793 114.749L66.6572 114.617Z" fill="#8BCBB7"/>
<path d="M100.381 89.4559C100.249 89.4559 100.249 89.4559 100.381 89.4559C99.4588 89.0607 99.327 88.402 99.5905 87.7434C99.854 87.0847 100.513 86.5578 101.435 86.8212C102.225 87.0847 103.147 87.3482 103.938 87.6116L105.255 88.0068L105.387 88.5338L105.519 89.3242C105.519 89.4559 105.519 89.5876 105.387 89.5876C105.255 89.5876 105.255 89.7194 105.123 89.7194L104.069 90.2463L103.674 90.5098C102.489 90.1146 101.435 89.8511 100.381 89.4559Z" fill="#8BCBB7"/>
<path d="M103.674 90.51C103.543 90.51 103.543 90.51 103.674 90.51C103.543 90.3782 103.543 90.2465 103.674 90.2465L104.465 89.7196L104.86 89.4561C104.992 89.3244 105.123 89.3244 105.123 89.3244V88.9292L104.992 88.2705C105.914 88.2705 106.441 88.534 107.231 88.6657C107.89 88.9292 108.153 89.3244 108.153 89.8513C108.153 90.51 107.89 90.9052 107.495 91.1686C107.099 91.4321 106.704 91.4321 106.309 91.3004L104.86 90.9052L103.674 90.51Z" fill="#8BCBB7"/>
<path d="M105.387 89.9833C105.255 89.9833 105.123 89.7198 105.123 89.4563C105.387 89.1929 105.65 89.1929 105.65 89.1929C105.782 89.3246 105.914 89.4563 105.782 89.7198C105.782 89.7198 105.65 89.9833 105.518 89.9833H105.387Z" fill="#8BCBB7"/>
<path d="M88.1297 85.5038C87.2076 85.1086 87.0758 84.3182 87.3393 83.7912C87.6028 83.1326 88.2614 82.6056 89.1836 82.8691C91.5548 83.6595 93.926 84.4499 96.4289 85.2403C97.351 85.6355 97.4828 86.2942 97.2193 86.9528C96.9558 87.6115 96.2972 88.1384 95.375 87.875C92.8721 87.0846 90.5009 86.2942 88.1297 85.5038Z" fill="#8BCBB7"/>
<path d="M77.0641 81.684C76.9324 81.684 76.9324 81.5523 76.9324 81.5523L77.591 79.0493C80.094 79.708 82.4652 80.6301 84.8364 81.4205C85.7585 81.8157 85.8902 82.6061 85.6268 83.1331C85.3633 83.7917 84.7046 84.3187 83.7825 84.0552C81.543 83.2648 79.3036 82.4744 77.0641 81.684Z" fill="#8BCBB7"/>
<path d="M75.8785 81.2889C74.9563 80.8937 74.8246 80.1033 75.0881 79.5764C75.3515 78.9177 76.0102 78.3908 76.9323 78.6542L77.7227 78.9177L77.591 80.3668L77.3275 81.5524L76.4054 81.4206L75.8785 81.2889Z" fill="#8BCBB7"/>
<path d="M65.8668 77.7318C64.9447 77.3366 64.8129 76.5462 65.0764 76.0193C65.3399 75.3606 65.9985 74.8337 66.9207 75.0971L68.8967 75.7558L72.5852 77.0731C73.5074 77.4683 73.6391 78.2587 73.3756 78.7857C73.1122 79.4443 72.4535 79.9713 71.5314 79.7078L65.8668 77.7318Z" fill="#8BCBB7"/>
<path d="M54.4059 73.6478C53.4838 73.2526 53.3521 72.4622 53.6155 71.9353C53.879 71.2766 54.5377 70.7497 55.4598 71.0131L62.4417 73.5161C63.4955 73.9113 63.6273 74.7017 63.3638 75.3603C63.1003 76.019 62.4417 76.5459 61.5195 76.2825L57.9627 74.9651L54.4059 73.6478Z" fill="#8BCBB7"/>
<path d="M43.0768 69.6957C43.0768 69.6957 42.945 69.6957 43.0768 69.6957C42.1546 69.3005 42.0229 68.5101 42.2864 67.9831C42.5498 67.3244 43.2085 66.7975 44.1306 67.061L51.2443 69.5639C52.1664 69.9591 52.2981 70.7495 52.0347 71.2765C51.7712 71.9351 51.1125 72.4621 50.1904 72.1986L43.0768 69.6957Z" fill="#8BCBB7"/>
<path d="M31.6161 65.744C30.6939 65.3488 30.5622 64.5584 30.8257 64.0315C31.0891 63.3728 31.7478 62.8459 32.6699 63.1093C34.7777 63.8997 36.8854 64.5584 39.1249 65.3488C40.047 65.744 40.1788 66.5344 39.9153 67.0613C39.6518 67.72 38.9932 68.2469 38.071 67.9835C35.8316 67.1931 33.7238 66.4027 31.6161 65.744Z" fill="#8BCBB7"/>
<path d="M23.8437 63.1095C23.8437 62.9778 23.712 62.9778 23.8437 63.1095L21.209 60.0797V59.9479L21.3408 59.8162L21.6042 59.5527L26.2149 61.0018L28.3227 61.7922C29.2448 62.1874 29.3765 62.9778 29.1131 63.5047C28.8496 64.1634 28.1909 64.6903 27.2688 64.4269L25.4245 63.7682L23.8437 63.1095Z" fill="#8BCBB7"/>
<path d="M19.8918 61.6602C19.4966 61.5285 19.2331 61.265 19.1014 61.0015V60.8698H19.2331C19.4966 61.0015 19.8918 60.8698 20.1552 60.6063L20.6822 60.2111L21.2091 59.8159L22.6582 61.265L23.9755 62.7141V62.8458C23.9755 62.8458 23.8438 62.9775 23.8438 62.8458L19.8918 61.6602Z" fill="#8BCBB7"/>
<path d="M58.6215 131.479C58.4897 131.347 58.358 131.216 58.2263 131.084C58.358 131.347 58.4897 131.479 58.6215 131.479Z" fill="#8BCBB7"/>
<path d="M57.9627 129.503C57.831 129.503 57.831 129.372 57.9627 129.503C57.5675 126.21 57.9627 123.971 59.0166 122.39C59.1483 122.126 59.28 121.995 59.5435 121.995H59.6752V122.126C59.5435 122.653 59.807 123.18 60.3339 123.444C60.4656 123.575 60.7291 123.575 60.8608 123.444H61.1243L61.3878 123.575C61.3878 123.839 61.256 123.971 61.1243 124.102C60.9926 124.366 60.8608 124.498 60.7291 124.761C60.0704 124.893 59.6752 125.42 59.5435 125.947C59.5435 126.342 59.6752 126.737 60.2022 126.869C60.2022 128.054 60.3339 129.108 60.4656 129.899C60.4656 129.899 60.4656 130.03 60.3339 130.03H60.2022C59.9387 129.899 59.807 129.767 59.5435 129.503C59.4118 129.372 59.28 129.24 59.1483 129.108C58.6214 128.977 58.0944 129.24 57.831 129.503C58.0944 129.503 57.9627 129.503 57.9627 129.503Z" fill="#8BCBB7"/>
<path d="M59.9388 132.533C59.4119 132.27 58.8849 132.006 58.4897 131.743V131.611H58.7532C59.1484 131.743 59.6753 131.743 59.9388 131.479C60.2023 131.216 60.334 130.952 60.334 130.425V130.03L60.4657 129.767C60.5975 129.898 60.7292 129.898 60.8609 130.03C61.6513 130.294 62.31 130.162 62.9687 129.635C63.1004 129.503 63.2321 129.24 63.2321 129.108C63.1004 128.581 62.31 128.054 60.9927 127.527C60.7292 127.395 60.4657 127.264 60.334 127.264C60.2023 126.078 60.334 125.288 60.5975 124.629C60.5975 124.629 60.8609 124.497 60.9927 124.497C61.9148 124.497 62.31 124.234 62.31 123.97C62.31 123.839 62.1783 123.707 62.0465 123.707C61.9148 123.707 61.6513 123.575 61.2561 123.575C61.2561 122.785 60.8609 122.258 60.334 122.126C60.0705 121.994 59.8071 121.994 59.5436 122.126H59.4119C59.4119 122.126 59.2801 121.994 59.4119 121.994C59.5436 121.336 59.9388 120.94 60.5975 120.809C61.5196 120.677 62.4417 120.677 63.3639 121.072C64.6812 121.599 65.3399 122.521 65.3399 123.839C65.3399 124.761 64.9447 125.551 64.286 126.078C65.0764 126.473 66.1303 127.395 66.262 128.713C66.3938 129.503 65.9986 130.294 65.3399 131.084C63.8908 132.665 61.9148 133.192 59.9388 132.533ZM61.6513 124.893L61.2561 124.761L61.1244 125.946L60.8609 127.132C61.9148 127 63.2321 126.605 64.0225 125.946C63.3639 125.683 62.5735 125.156 61.6513 124.893Z" fill="#8BCBB7"/>
<path d="M60.7291 127.132C60.7291 127.132 60.5974 127.132 60.7291 127.132C60.5974 127.132 60.5974 127 60.5974 127L60.8609 125.815L61.1243 124.629H61.783C62.5734 124.892 63.4955 125.419 64.1542 125.946C63.3638 126.868 62.0465 127.132 60.7291 127.132Z" fill="#8BCBB7"/>
<path d="M58.2263 131.216C58.0945 131.216 58.0945 131.084 58.2263 131.216C58.0945 131.084 57.9628 130.952 57.9628 130.952C57.5676 130.425 57.5676 129.767 57.9628 129.24C57.9628 129.24 58.0945 129.108 58.0945 129.24L58.2263 129.371C58.2263 129.767 58.358 130.294 58.358 130.689C58.358 130.821 58.358 130.952 58.4897 131.084C58.4897 131.216 58.4897 131.216 58.358 131.216H58.2263Z" fill="#8BCBB7"/>
<path d="M60.3339 127C59.807 126.736 59.4118 126.341 59.5435 125.683C59.5435 125.156 60.0705 124.497 60.8609 124.365C60.7291 125.156 60.5974 125.946 60.5974 126.868C60.5974 126.868 60.5974 127 60.4657 127C60.4657 127 60.3339 127.132 60.3339 127Z" fill="#8BCBB7"/>
<path d="M60.334 123.575C59.6753 123.311 59.4118 122.653 59.5436 121.994C59.9388 121.731 60.334 121.731 60.5974 121.862C61.1244 122.126 61.6513 122.785 61.5196 123.575C61.5196 123.707 61.3878 123.707 61.2561 123.707C60.7292 123.707 60.4657 123.707 60.334 123.575Z" fill="#8BCBB7"/>
<path d="M58.7531 131.742L58.4897 131.611C58.358 131.479 58.2262 131.347 58.0945 131.216C57.9627 130.952 57.831 130.82 57.831 130.689C57.831 130.293 57.6993 129.898 57.6993 129.503C58.0945 128.713 58.7531 128.449 59.2801 128.713C59.5435 128.844 59.6753 128.976 59.807 129.24C59.9388 129.503 60.2022 129.635 60.3339 129.766L60.4657 130.162C60.5974 130.82 60.3339 131.347 60.0705 131.611C59.9387 131.874 59.2801 131.874 58.7531 131.742Z" fill="#8BCBB7"/>
<path d="M117.77 99.9952C115.399 99.0731 114.081 97.7558 113.686 96.0432C113.291 93.8038 114.74 91.9595 115.662 91.0374C117.375 89.4565 120.273 88.1392 122.38 88.9296C123.434 89.3248 124.225 90.247 124.488 91.696C124.62 92.223 124.488 92.6182 124.093 92.8816C123.698 93.2768 123.039 93.2768 122.512 93.1451C122.117 93.0134 121.722 92.6182 121.59 92.0912C121.458 91.696 121.327 91.5643 121.063 91.4326C120.141 91.0374 118.165 92.3547 117.375 93.1451C116.716 93.8038 116.189 94.8576 116.452 95.5163C116.716 96.3067 117.375 96.8336 118.56 97.2288C119.087 97.4923 119.614 97.624 120.141 97.7558C121.063 98.151 121.195 98.8096 120.931 99.3366C120.668 99.9952 120.009 100.654 119.087 100.39C118.824 100.39 118.297 100.259 117.77 99.9952Z" fill="#8BCBB7"/>
<path d="M90.6327 22.7993C90.5009 22.7993 90.5009 22.6676 90.5009 22.6676L90.8961 20.5598L91.2913 18.7155C92.3452 17.1347 93.3991 15.6857 94.3212 14.1049L94.4529 13.9731C94.4529 13.9731 94.5847 13.9731 94.5847 14.1049L94.9799 16.6078C93.6625 18.7155 92.3452 20.5598 90.8961 22.4041C90.7644 22.5358 90.7644 22.5358 90.6327 22.6676C90.7644 22.7993 90.7644 22.7993 90.6327 22.7993Z" fill="#8BCBB7"/>
<path d="M89.974 22.7995C89.7106 22.6678 89.4471 22.4043 89.3154 22.1408C89.1836 21.8774 89.3154 21.6139 89.4471 21.3504C89.974 20.6918 90.501 20.0331 90.8962 19.3744L91.2914 18.7158C91.2914 18.7158 91.4231 18.584 91.4231 18.7158C91.5548 18.7158 91.5548 18.8475 91.5548 18.8475L91.0279 21.3504L90.8962 22.6678C90.501 22.9312 90.2375 22.9312 89.974 22.7995Z" fill="#8BCBB7"/>
<path d="M88.9202 30.8346C88.7885 30.8346 88.7885 30.7029 88.7885 30.7029L89.3154 28.3317L89.7106 26.6192L91.2914 24.5114C92.6087 22.7989 93.7943 20.9546 95.1117 19.2421C95.1117 19.2421 95.2434 19.1104 95.3751 19.1104H95.5069L95.7703 20.5594L95.9021 21.4816L93.5309 24.6432C92.0818 26.7509 90.501 28.7269 89.0519 30.8346H88.9202Z" fill="#8BCBB7"/>
<path d="M95.6385 21.4814C95.5067 21.4814 95.5067 21.4814 95.6385 21.4814L95.375 19.9006L95.2433 18.9785C95.5068 18.5833 95.9019 18.5833 96.2971 18.715C96.5606 18.8468 96.8241 19.1102 96.9558 19.3737C97.0875 19.6372 96.9558 19.9006 96.8241 20.1641L96.0337 21.0862L95.7702 21.4814H95.6385Z" fill="#8BCBB7"/>
<path d="M87.3393 32.0206C87.0759 31.8888 86.8124 31.6254 86.6807 31.3619C86.5489 31.0984 86.6807 30.835 86.8124 30.5715C87.6028 29.3859 88.3932 28.332 89.1836 27.1464L89.7105 26.4877C89.7105 26.4877 89.8423 26.356 89.8423 26.4877L89.974 26.6195L89.5788 28.332L89.0519 30.7032L88.6567 31.3619L88.3932 31.7571C88.1297 32.1523 87.7345 32.284 87.3393 32.0206Z" fill="#8BCBB7"/>
<path d="M87.471 36.8944C87.3393 36.8944 87.3393 36.7626 87.3393 36.7626L87.7345 35.3136L88.2614 32.9424C90.3692 30.176 92.8721 27.1461 95.902 24.7749L96.1654 25.3018L96.4289 26.7509C93.1356 29.5173 90.5009 33.0741 87.998 36.4992L87.6028 37.0261C87.6028 36.8944 87.6028 36.8944 87.471 36.8944Z" fill="#8BCBB7"/>
<path d="M96.2972 26.6191C96.1655 26.6191 96.1655 26.6191 96.2972 26.6191L96.0338 24.7749C96.0338 24.7749 96.1655 24.5114 96.2972 24.5114L96.5607 24.3797C96.8242 24.2479 97.2194 24.1162 97.4828 24.2479C97.878 24.3797 98.1415 24.7749 98.1415 25.0383C98.1415 25.3018 98.0097 25.697 97.7463 25.8287C97.4828 26.0922 97.0876 26.3557 96.8242 26.4874C96.8242 26.4874 96.6924 26.6191 96.5607 26.6191C96.429 26.6191 96.2972 26.6191 96.2972 26.6191Z" fill="#8BCBB7"/>
<path d="M85.2315 38.8701C84.9681 38.7384 84.7046 38.4749 84.5729 38.2115C84.4411 37.948 84.5729 37.6845 84.7046 37.4211C85.3633 36.6307 85.8902 35.8403 86.5489 35.0499C87.0758 34.2595 87.7345 33.4691 88.2614 32.6787C88.2614 32.6787 88.3931 32.5469 88.3931 32.6787L88.5249 32.8104L87.998 35.1816L87.6027 36.7624L87.3393 37.1576C86.9441 37.6845 86.6806 38.0797 86.2854 38.6067C86.0219 38.8701 85.6267 39.0019 85.2315 38.8701Z" fill="#8BCBB7"/>
<path d="M86.2855 41.8999C86.1537 41.8999 86.1537 41.7682 86.1537 41.7682L86.4172 40.4508L86.8124 38.6066C90.1058 34.918 92.8722 31.8882 95.902 28.99C96.0338 28.8583 96.2972 28.7266 96.5607 28.7266L96.8242 29.7804L96.9559 30.7026C93.926 33.8642 90.8962 37.0258 88.1297 40.1874L86.4172 42.0316C86.4172 41.8999 86.4172 42.0316 86.2855 41.8999Z" fill="#8BCBB7"/>
<path d="M96.8241 30.7026L96.6924 30.1756L96.5607 28.8583L96.6924 28.7266H96.9559C97.2193 28.8583 97.4828 29.1218 97.6145 29.517C97.7463 29.9122 97.6145 30.1756 97.3511 30.4391L97.0876 30.7026C97.0876 30.7026 96.9559 30.7026 96.8241 30.7026C96.9559 30.7026 96.8241 30.7026 96.8241 30.7026Z" fill="#8BCBB7"/>
<path d="M84.4411 43.218C84.1777 43.0863 83.9142 42.8228 83.7825 42.5593C83.7825 42.2959 83.7825 42.0324 84.0459 41.7689L87.0758 38.4756H87.2075L87.3393 38.6073L86.9441 40.3199L86.5489 41.9007L86.0219 42.4276L85.495 42.9545C85.2315 43.218 84.8363 43.3497 84.4411 43.218Z" fill="#8BCBB7"/>
</svg>
