<svg width="53" height="56" viewBox="0 0 53 56" fill="none" xmlns="http://www.w3.org/2000/svg">
<path d="M17.7075 55.426C10.9545 54.5341 5.09333 51.9857 0.761183 47.781C-8.54019 38.8619 -8.79502 21.5333 0.124103 11.9771C5.98524 5.73372 15.6689 2.67574 25.3525 3.82248C27.646 4.07731 29.9395 4.71439 32.1055 5.47889C32.7426 5.73372 32.7426 6.24339 32.7426 6.62563C32.6152 7.1353 32.2329 7.51755 31.7233 7.39013C31.5959 7.39013 31.5959 7.39013 31.4684 7.39013L31.2136 7.26271L30.9588 7.1353C29.175 6.49822 27.3911 6.11597 25.4799 5.86114C14.2673 4.45956 0.506352 9.42879 -3.18871 21.2785C-5.35479 28.2864 -5.09995 38.2248 0.633768 44.8504C4.58366 49.5648 10.6996 52.6228 17.7075 53.5147C17.9623 53.5147 18.2172 53.5147 18.472 53.6422C30.1943 54.7889 45.3568 51.0938 49.4341 36.8232C51.9824 27.9041 50.8357 17.7108 46.7584 10.8304C43.9552 6.11597 39.8779 3.1854 34.7813 2.03866C34.1442 1.91124 33.8894 1.27416 34.0168 0.764496C34.1442 0.382248 34.5264 0 35.0361 0C47.9051 2.80315 53.2566 16.4367 52.8743 27.9041C52.3647 41.1554 45.8665 50.5842 34.7813 53.897C29.175 55.6808 23.1864 56.1905 17.7075 55.426Z" fill="#8BCBB7"/>
<path d="M37.2022 33.3834C37.2022 33.3834 37.0748 33.3834 37.2022 33.3834C37.0748 33.256 37.0748 33.256 37.0748 33.256C37.2022 32.6189 37.3296 32.1092 37.457 31.4722H38.0941C39.2408 31.5996 40.2602 31.727 41.4069 31.8544C41.6617 31.8544 41.9166 31.9818 42.044 32.2367C42.1714 32.4915 42.1714 32.6189 42.1714 33.0012C42.1714 33.5108 41.6617 33.8931 41.1521 33.8931C40.0053 33.7657 38.8586 33.6382 37.7118 33.5108L37.2022 33.3834Z" fill="#8BCBB7"/>
<path d="M31.341 32.8736C30.704 32.7462 30.4491 32.2365 30.4491 31.7269C30.4491 31.2172 30.9588 30.835 31.4685 30.835C32.87 30.9624 34.2716 31.0898 35.6732 31.2172C35.6732 31.9817 35.5458 32.4914 35.4184 33.1284C34.0168 33.1284 32.7426 33.001 31.341 32.8736Z" fill="#8BCBB7"/>
<path d="M35.8006 31.4718C35.6732 31.3444 35.6732 31.3444 35.6732 31.3444C35.928 30.4525 36.0554 29.4332 36.3103 28.2864C36.4377 27.6494 36.9473 27.3945 37.457 27.3945C37.7118 27.3945 37.9667 27.5219 38.0941 27.7768C38.2215 28.0316 38.3489 28.159 38.2215 28.4139C38.0941 29.4332 37.8393 30.5799 37.5844 31.4718H36.4377H35.8006Z" fill="#8BCBB7"/>
<path d="M35.2909 38.8616C35.0361 38.8616 34.7813 38.7342 34.6539 38.4794C34.5264 38.2245 34.399 38.0971 34.5264 37.7149C34.7813 36.0585 35.1635 34.4021 35.5458 33.0005H36.5651L37.457 33.1279V33.5102C37.0748 34.9117 36.6925 36.4407 36.5651 37.9697C36.3103 38.7342 35.6732 38.989 35.2909 38.8616Z" fill="#8BCBB7"/>
<path d="M35.4183 33.256C35.2909 33.1286 35.2909 33.1286 35.2909 33.1286C35.4183 32.7463 35.5458 32.2367 35.5458 31.8544L35.6732 31.4722H36.6925L37.5844 31.5996C37.5844 32.3641 37.457 32.8737 37.3296 33.5108H36.1828L35.4183 33.256Z" fill="#8BCBB7"/>
<path d="M23.8235 14.3979C20.6381 19.1123 17.4527 23.8267 14.2673 28.4137C15.5414 27.1396 17.0704 25.9928 18.7268 25.3557C20.3832 24.7186 22.4219 24.5912 24.0783 25.2283C26.6266 26.2476 28.0282 29.1782 27.7734 31.8539C27.5185 34.5297 25.7347 36.9506 23.4412 38.3522C21.1477 39.7537 18.3446 40.2634 15.6689 40.136C13.6302 40.136 11.5915 39.7537 9.6803 39.1167" stroke="#8BCBB7" stroke-width="2.234" stroke-miterlimit="10" stroke-linecap="round" stroke-linejoin="round"/>
<path d="M22.0397 14.7801C27.7734 14.5253 33.3797 14.3979 39.1134 14.1431L22.0397 14.7801Z" fill="#097273"/>
<path d="M22.0397 14.7801C27.7734 14.5253 33.3797 14.3979 39.1134 14.1431" stroke="#8BCBB7" stroke-width="2.234" stroke-miterlimit="10" stroke-linecap="round" stroke-linejoin="round"/>
</svg>
