<svg width="57" height="76" viewBox="0 0 57 76" fill="none" xmlns="http://www.w3.org/2000/svg">
<path d="M53.8316 1.99892C49.828 2.00371 46.8011 6.15221 44.8953 10.0003C40.3534 11.4843 36.2544 15.1191 33.1853 18.6115C30.0249 22.2617 27.2138 26.2189 24.0201 29.7447C19.9634 34.0356 15.5551 36.0178 10.3082 38.3582C8.50665 39.1079 8.00189 40.7116 8.36901 42.0817C7.9757 46.5926 10.7297 50.3936 14.222 53.4628C14.8716 54.8907 16.1106 56.0272 18.1214 56.5564C18.2793 56.6476 18.5618 56.7054 18.6864 56.672C19.1602 56.9455 19.6673 57.3436 20.1411 57.6172C27.5305 61.7781 35.9717 63.3878 44.1638 65.0642C46.4236 65.5266 49.2127 63.9783 49.0435 61.3537C48.4421 51.6359 55.5679 43.8527 59.146 35.2845C61.3409 30.0239 62.7193 22.7127 60.528 17.0254C60.8015 16.5516 61.075 16.0779 61.1573 15.3883C61.9242 10.7774 60.2442 2.01616 53.8316 1.99892Z" fill="#FEC708"/>
<path d="M58.7209 6.29597C55.2709 3.88294 50.4555 5.8407 49.5217 9.82888C43.6741 9.92725 38.0471 13.838 34.3974 18.1534C30.9302 22.1529 28.3193 26.8574 24.852 30.8569C20.6797 35.7128 15.393 39.3989 9.74804 42.2464C9.62348 42.2798 9.5323 42.4377 9.44112 42.5957C9.31657 42.629 9.10083 42.8203 9.16758 43.0695C9.93519 45.9342 12.0485 48.8389 14.7911 50.1065C14.949 50.1977 14.949 50.1977 15.0736 50.1643C14.8024 52.64 15.8192 55.438 18.1214 56.5566C19.7341 57.593 21.7025 57.466 23.3795 56.7497C30.7445 61.3176 38.7476 64.7801 47.0488 67.3618C47.4892 67.5108 47.7961 67.1615 47.8539 66.879C48.1031 66.8123 48.4433 66.5876 48.3098 66.0894C47.746 53.0241 55.1942 43.953 59.8486 32.4265C62.1013 26.8834 62.8147 19.0829 59.1042 14.2032C60.3831 13.994 60.8545 12.2657 60.9278 11.0446C61.1167 9.25847 60.2424 7.49026 58.7209 6.29597ZM12.1039 46.5546C11.3387 45.6917 10.8559 44.8865 10.3398 43.9568C13.0068 44.4437 15.5491 44.964 17.967 45.5176C16.4145 46.2006 15.5939 47.622 15.0891 49.2257C14.0748 48.4295 12.9359 47.6667 12.1039 46.5546ZM21.2353 55.7222C15.1142 56.2944 14.9133 48.0713 19.5373 45.8978C22.5535 46.6916 25.4785 47.6434 28.379 49.0021C27.5608 52.4253 24.8897 55.4105 21.2353 55.7222ZM24.3426 56.3581C26.916 55.0011 28.8731 52.3407 29.6425 49.7316C29.9583 49.9139 30.1162 50.0051 30.4321 50.1875C36.7827 53.9593 41.939 59.2526 45.6429 65.6025C38.3716 62.8784 31.4072 59.8051 24.3426 56.3581ZM53.0321 41.8624C49.3938 48.7112 46.5785 56.1404 46.5214 63.8987C39.2559 52.2286 24.4993 41.4978 10.173 43.3341C10.0484 43.3674 10.0484 43.3674 9.92385 43.4008L9.89048 43.2762L10.015 43.2429C17.9353 39.9191 24.1005 34.5292 29.1757 27.5624C34.6245 20.4955 43.5293 6.8956 54.4175 12.6555C66.22 18.8379 57.342 34.0326 53.0321 41.8624ZM55.9944 11.5655C55.8365 11.4743 55.5206 11.2919 55.3627 11.2007C54.5731 10.7448 53.6922 10.4469 52.8448 10.2734C53.3007 9.4838 54.1058 9.00106 54.9866 9.29904C55.8675 9.59701 56.2924 10.6846 55.9944 11.5655ZM59.591 11.5362C59.4754 12.1012 58.8282 12.6751 59.1197 13.2645C58.8616 12.7997 58.2388 12.9666 58.0565 13.2824C57.7072 12.9755 57.3246 12.544 56.8508 12.2705C57.5135 10.7579 56.855 8.79842 55.2512 8.29365C53.8054 7.88006 52.3197 8.81215 51.8728 10.1334C51.3078 10.0178 50.9007 9.99336 50.3358 9.87774C51.4544 7.57554 53.6785 5.9116 56.4122 6.6476C57.7 6.97 58.9057 7.98194 59.3974 9.31868C59.7222 10.0326 59.6733 10.8467 59.591 11.5362Z" fill="#1D1D1C"/>
</svg>
