<svg width="185" height="280" viewBox="0 0 185 280" fill="none" xmlns="http://www.w3.org/2000/svg">
<path d="M222.4 70.6C222.4 108.5 191.7 139.2 153.8 139.2C115.9 139.2 85.2002 108.5 85.2002 70.6C85.2002 32.7 115.9 2 153.8 2C191.7 2 222.4 32.7 222.4 70.6Z" stroke="#FEC707" stroke-width="4" stroke-miterlimit="10"/>
<path d="M87.9001 238C87.9001 260.8 69.4001 279.3 46.6001 279.3C23.8001 279.3 5.40015 260.8 5.40015 238C5.40015 215.2 23.9001 196.7 46.7001 196.7C69.5001 196.7 87.9001 215.3 87.9001 238Z" fill="#FBB921"/>
<path d="M66.3 209.1C70.5 204.1 90.8 199 97.3 199.2C101.2 199.3 105.4 199.3 109.1 198.1C113.9 196.5 116.6 191.6 120.1 187.9C125.1 182.6 132.2 179.8 139.3 178.3C146.4 176.8 153.7 176.3 160.9 175.1C165.6 174.3 170.7 172.9 173.3 168.9C176.6 163.8 174.4 157.2 172.2 151.5C170.5 147.3 168.8 143 155.4 109.7C154.1 106.4 152.7 102.9 150.1 100.4C144.4 94.7001 134.7 95.3001 127.3 98.7001C118.7 102.7 111.7 109.6 106.3 117.4C100.9 125.2 96.9 133.8 92.9 142.4L71.8 188.1C70.7 190.4 69.6 192.8 69.5 195.4C69.3 198 70.3 200.8 72.6 202" fill="#C6C6C6"/>
<path d="M27.1001 135.9C33.1001 132 40.4001 127.9 47.6001 126.9C49.4001 126.7 49.2001 123.9 47.5001 124.1C39.8001 125.1 32.0001 129.4 25.6001 133.6C24.1001 134.6 25.6001 136.9 27.1001 135.9Z" fill="#432918"/>
<path d="M106.1 190.2C105.9 190.6 105.5 190.8 105.2 190.9C105 191 104.8 191 104.6 190.9C98.3002 190 92.1002 190.5 86.0002 192.1C80.2002 194.3 74.6002 197.7 70.3002 200.4C62.0002 205.7 52.9002 212 46.7002 220C50.2002 216.8 54.2002 213.9 58.0002 211.3C65.3002 206.3 72.9002 201.7 80.8002 197.8C84.4002 196 88.0002 194.2 91.9002 193.1C93.0002 192.8 94.0002 192.5 95.1002 192.4C96.8002 192.2 98.6002 194.7 100.5 194.9C105.7 195.4 112.5 191.1 113.5 185.6C114.3 181.2 120 177.9 123.6 175.7C127.8 173.2 132.1 171.2 136.7 169.8C123.9 172.9 112 178.8 106.1 190.2Z" fill="#C6C6C6"/>
<path d="M164.1 165.9C161.9 166 159.6 166.2 157.2 166.4C159.5 166.4 162.1 166.4 164.1 165.9Z" fill="#C6C6C6"/>
<path d="M46.4001 211.6C53.9001 205.3 62.4 199 71.6 194.5C63.5 197.6 55.4 201.4 48.3 206.5C47.5 207 46.5 206.6 46.2001 205.8C37.7001 181.2 25.6 157.4 13.5 134.4C12.7 134.9 11.9 135.4 11.3 136C9.20005 137.7 9.90005 137.3 11.1 139.2C13.1 142.4 15 145.7 16.8 149C21.1 156.8 25.1 164.8 29 172.9C35 185.7 41.0001 198.5 46.4001 211.6Z" fill="#C6C6C6"/>
<path d="M109.8 155.5C116.7 151.5 124.3 148.7 131.8 146.1C130.3 139.6 127.2 133.2 124.5 127.1C114.9 129.8 105.4 134 97.2002 139.8C100 146 102.8 152.1 105.5 158.3C106.9 157.2 108.5 156.3 109.8 155.5Z" fill="#E40135"/>
<path d="M149.9 158.7C140.6 138.3 133.7 116.5 127 95.1002C126.3 92.7001 125.5 90.4002 124.8 88.0002C124.5 86.9002 124.1 85.8001 123.8 84.7001C123.4 83.3001 123.8 83.6001 123 83.7001C115 84.9001 107.3 87.8001 100.2 91.7001C90.2002 97.3001 80.4002 104.3 72.7002 113C73.0002 113.1 73.2002 113.4 73.4002 113.7C84.3002 136.9 94.1002 160.7 105.1 183.9C112.2 167.1 132.7 160.1 149.9 158.7ZM83.4002 115.5C91.8002 105.3 106.5 97.5002 119.7 96.4002C121.5 96.3002 121.6 99.0001 119.8 99.2001C107.3 100.2 93.4002 107.7 85.4002 117.4C84.3002 118.8 82.2002 116.9 83.4002 115.5ZM86.5002 122C94.9002 111.9 109.5 105.1 122.6 104C124.4 103.9 124.5 106.6 122.7 106.8C110.4 107.8 96.5002 114.3 88.6002 123.8C87.4002 125.2 85.3002 123.3 86.5002 122ZM89.9002 129.6C99.2002 120.3 110.9 115.8 123.5 113.1C125.2 112.7 126.1 115.4 124.3 115.7C112.2 118.3 100.9 122.5 91.9002 131.4C90.8002 132.7 88.7002 130.9 89.9002 129.6ZM94.2002 139.7C93.9002 139 94.2002 138.5 94.7002 138.2L94.8002 138.1C103.8 131.6 114.3 126.9 124.9 124.1C125.7 123.9 126.3 124.3 126.7 125C129.7 131.9 133.4 139.1 134.9 146.6C135 147.3 134.8 148.1 134 148.4C126.3 151 118.4 153.7 111.4 157.9C109.6 158.9 107.6 160 106.2 161.6C105.4 162.5 104.3 162 103.8 161.1C100.6 153.9 97.4002 146.8 94.2002 139.7Z" fill="white"/>
<path d="M67.0001 121.9C63.2001 121.8 58.8001 122 55.6001 124.1C56.9001 128.8 58.5001 133.5 60.1001 138.1C63.8001 137.1 67.4001 136.1 71.1001 135.1C69.7001 130.7 68.4001 126.3 67.0001 121.9Z" fill="#FFE700"/>
<path d="M153.3 159.6C153.7 160.4 152.9 161.4 152 161.4C137.9 162.1 120.3 166.8 111.2 178.7C123.3 167.9 140.8 163.1 156.8 162.6C146.4 137.5 136.1 111.6 129.6 85.2002C128.7 85.4002 127.8 85.4002 126.8 85.5002C130.3 97.6002 134.4 109.5 138.6 121.3C143.2 134.1 147.6 147.2 153.3 159.6Z" fill="#C6C6C6"/>
<path d="M74.6 190.5C83.6 187.4 93.4 185 103 185.8C91.8 162.3 81.9 138.1 70.8 114.5C70.7 114.4 70.7 114.2 70.7 114.1C70.6 114.1 70.5 114.1 70.5 114C60 109.9 46.8 113.1 36.8 117.1C31.1 119.4 25.5 122.1 20.6 125.8C17.6 128 14.1 129.3 16.1 133.1C17.6 136.1 19.2 139 20.7 142C30.7 161.8 41 182.1 48.4 203.1C56.3 197.8 65.5 193.6 74.6 190.5ZM52.9 122.8C53 122.6 53.1 122.5 53.3 122.4C57.2 119.2 63.2 119 68 119.2C68.6 119.2 69.2 119.5 69.4 120.2C71 125.4 72.6 130.5 74.2 135.7C74.4 136.4 74 137.2 73.3 137.5C68.8 138.7 64.2 140 59.7 141.2C59 141.4 58.2 141 57.9 140.3C56.1 134.9 54.1 129.6 52.7 124.1C52.6 123.5 52.7 123.1 52.9 122.8ZM25.6 133.6C32.1 129.5 39.8 125.2 47.5 124.1C49.3 123.9 49.4 126.6 47.6 126.9C40.4 127.9 33.1 132.1 27.1 135.9C25.6 136.9 24.1 134.6 25.6 133.6ZM28.8 141C35.1 137 42.5 133.4 49.9 132.2C51.7 131.9 51.8 134.7 50 135C43.2 136.1 36.1 139.6 30.3 143.3C28.8 144.3 27.3 142 28.8 141ZM32.1 147.9C37.9 144.2 44.8 140.4 51.6 139C53.3 138.6 54.2 141.3 52.4 141.7C45.7 143.1 39.2 146.6 33.5 150.3C32.2 151.2 30.6 148.9 32.1 147.9ZM36.8 159.1C48.2 150.5 63.9 145.8 78.1 145.4C79.9 145.3 80 148.1 78.2 148.2C64.5 148.7 49.4 153.2 38.3 161.5C36.9 162.5 35.4 160.2 36.8 159.1ZM40.2 167C51.6 158.4 67.3 153.7 81.5 153.3C83.3 153.2 83.4 156 81.6 156.1C67.9 156.6 52.8 161.1 41.7 169.4C40.3 170.4 38.8 168.1 40.2 167ZM43.5 174.9C54.9 166.3 70.6 161.6 84.8 161.2C86.6 161.1 86.7 163.9 84.9 164C71.2 164.5 56.1 169 45 177.3C43.6 178.3 42.1 176 43.5 174.9ZM46.3 182C57.7 173.4 73.4 168.7 87.6 168.3C89.4 168.2 89.5 171 87.7 171.1C74 171.6 58.9 176.1 47.8 184.4C46.3 185.4 44.8 183.1 46.3 182ZM48.9 189.6C60.3 181 76 176.3 90.2 175.9C92 175.8 92.1 178.6 90.3 178.7C76.6 179.2 61.5 183.7 50.4 192C49 193 47.5 190.7 48.9 189.6Z" fill="white"/>
<path d="M46.9002 214.8C46.1002 215.5 45.0002 215.4 44.5002 214.3C34.4002 189.5 23.2002 164 8.9002 141.2C8.2002 142 7.5002 142.7 6.7002 143.4C14.7002 154.9 20.9002 168.1 27.1002 180.6C33.3002 193 39.6002 205.6 44.3002 218.7C45.9002 216.6 47.7002 214.6 49.6002 212.7C48.6002 213.4 47.7002 214.1 46.9002 214.8Z" fill="#C6C6C6"/>
<path d="M42.5 222C37.5 207.3 30.4 193.2 23.5 179.4C17.7 168 12 156.1 4.79997 145.5C3.09997 147.1 2.79997 146.8 3.99997 148.7C4.69997 149.8 5.39997 151 6.09997 152.1C7.89997 155 9.59997 158 11.2 161C15.6 169 19.8 177 24 185.1C30.5 197.9 37.3 210.8 42.5 224.3C42.9 223.8 43.3 223.4 43.7 222.9C43.2 222.9 42.7 222.7 42.5 222Z" fill="#C6C6C6"/>
<path d="M140.7 101.6C139.6 98.4002 138.5 95.1002 137.5 91.9002C137.2 90.8002 136.8 89.7002 136.5 88.6002C136 86.8002 136.4 87.0002 133.9 87.8002C133.6 87.9002 133.4 87.9002 133.1 87.8002C139.8 113.6 150 138.8 160.2 163.3C161 163.2 161.9 163.2 162.7 163.1C158.3 150.6 153.6 138.1 149.1 125.6C146.3 117.7 143.5 109.7 140.7 101.6Z" fill="#C6C6C6"/>
<path d="M139.9 90.3001C143.3 102.4 148.1 114.3 152.3 126.1C156.8 138.8 161.6 151.4 166 164.1C166.2 164.6 166 165.1 165.7 165.5C167 165 167.8 164.1 167.7 162.8C167 156.2 164.8 149.7 162.8 143.4C160.1 134.6 157.1 125.8 154 117.1C151.4 109.8 148.8 102.6 146.2 95.4001C145.5 93.6001 144.9 91.9001 144.2 90.1001C143 90.2001 141.8 90.3001 140.6 90.4001C140.3 90.4001 140.1 90.4001 139.9 90.3001Z" fill="#C6C6C6"/>
<path d="M145.1 87.2998C143.6 87.3998 142 87.4998 140.5 87.6998C140 87.6998 139.6 87.9998 139.4 88.3998C139.2 87.5998 138.9 86.6998 138.7 85.8998C138.5 85.2998 137.9 84.9998 137.3 84.8998C135.8 84.7998 134.6 84.7998 133.1 85.1998C132.9 85.2998 132.7 85.3998 132.6 85.4998C132.4 84.6998 132.2 83.8998 132 83.0998C131.8 82.2998 130.9 81.9998 130.2 82.1998C128.8 82.4998 127.4 82.5998 126 82.6998C125.9 82.3998 125.8 82.0998 125.8 81.7998C125.6 81.1998 125 80.7998 124.4 80.7998C112.5 82.1998 101.6 87.1998 91.6001 93.5998C87.0001 96.4998 82.6001 99.8998 78.5001 103.5C77.4001 104.5 70.6001 111.3 70.6001 111.3C61.6001 107.8 50.6001 110 41.7001 112.6C30.7001 115.8 20 121.5 11.8 129.6C11.3 130.1 11.4 130.8 11.7 131.3C11.8 131.5 12 131.8 12.1 132C10.2001 133.2 8.30005 134.5 7.00005 136.4C6.60005 136.9 6.50005 137.5 6.90005 138.1C7.10005 138.3 7.20005 138.6 7.40005 138.8C7.40005 138.8 7.40005 138.8 7.30005 138.9C6.30005 140.1 5.30005 141.2 4.00005 141.9C3.50005 142.2 3.30005 142.7 3.40005 143.2C3.20005 143.3 3.10005 143.4 2.90005 143.5C2.00005 144.4 1.20005 145.4 0.40005 146.5C4.99189e-05 147 -0.0999501 147.7 0.30005 148.2C8.80005 160.1 15.2 173.8 21.8 186.7C28.6 200 35.7001 213.5 41 227.6C41.3 228.5 42.7001 229 43.4001 228.1C49.1001 220 58.3001 214.3 66.5001 209.2C74.7001 204 83.6001 198.8 92.9001 195.8C96.0001 194.8 98.2001 197.8 101.6 197.8C105.7 197.8 109.1 196 112.1 193.3C114.4 191.3 116.5 188.1 116.7 185C116.8 183 123.6 179.2 125.4 178C128.6 175.9 132.2 174.3 135.8 172.9C144.9 169.5 154.4 169.5 164 168.6C167.7 168.3 171 167.3 170.8 163.1C170.5 157.2 168.3 151.1 166.6 145.5C164 136.7 161 128.1 158 119.5C154.4 109.1 150.6 98.6998 146.7 88.2998C146.3 87.5998 145.7 87.1998 145.1 87.2998ZM129.7 85.0998C136.2 111.5 146.5 137.4 156.9 162.5C140.9 163.1 123.4 167.8 111.3 178.6C120.3 166.8 138 162.1 152.1 161.3C152.9 161.3 153.7 160.3 153.4 159.5C147.6 147.1 143.2 134 138.7 121.2C134.6 109.4 130.4 97.4998 126.9 85.3998C127.8 85.2998 128.7 85.2998 129.7 85.0998ZM72.7001 113C80.4 104.4 90.1001 97.2998 100.1 91.6998C107.2 87.7998 114.9 84.9998 122.9 83.6998C123.7 83.5998 123.3 83.2998 123.7 84.6998C124 85.7998 124.4 86.8998 124.7 87.9998C125.4 90.3998 126.2 92.6998 126.9 95.0998C133.7 116.4 140.5 138.3 149.8 158.7C132.6 160 112.1 167 105 183.9C93.9001 160.7 84.2001 136.9 73.3001 113.7C73.2001 113.4 73.0001 113.2 72.7001 113ZM20.5 142.1C19 139.1 17.5 136.2 15.9 133.2C13.9 129.4 17.4 128.1 20.4 125.9C25.3 122.2 30.9 119.5 36.6 117.2C46.7001 113.2 59.8001 110 70.3001 114.1C70.4001 114.1 70.5001 114.1 70.5001 114.2C70.5001 114.3 70.5001 114.5 70.6001 114.6C81.7001 138.2 91.6001 162.3 102.8 185.9C93.2001 185 83.5001 187.5 74.4001 190.6C65.3001 193.7 56.1001 197.9 48 203.3C40.8 182.2 30.6 161.9 20.5 142.1ZM16.6 149C14.8 145.7 12.9 142.4 10.9 139.2C9.70005 137.2 9.10005 137.7 11.1 136C11.8 135.4 12.6 134.9 13.3 134.4C25.5 157.4 37.6001 181.2 46 205.8C46.3 206.6 47.3 207.1 48.1 206.5C55.2 201.4 63.3001 197.7 71.4001 194.5C62.2001 199 53.6001 205.2 46.2001 211.6C40.8 198.5 34.8 185.6 28.6 172.8C24.9 164.8 20.9001 156.8 16.6 149ZM42.6 224.3C37.4 210.9 30.5 197.9 24.1 185.1C20 177 15.8 168.9 11.3 161C9.60005 158 7.90005 155.1 6.20005 152.1C5.50005 151 4.80005 149.8 4.10005 148.7C2.90005 146.8 3.10005 147.1 4.90005 145.5C12.2001 156.1 17.8 168 23.6 179.4C30.5 193.2 37.7 207.3 42.6 222C42.8 222.7 43.3001 222.9 43.9001 222.9C43.4001 223.4 43 223.8 42.6 224.3ZM27 180.5C20.8 168 14.7001 154.8 6.60005 143.3C7.40005 142.7 8.10005 141.9 8.80005 141.1C23.1 163.9 34.3 189.4 44.4001 214.3C44.8001 215.4 46 215.5 46.8 214.8C47.7001 214.1 48.5 213.3 49.4001 212.6C47.5 214.5 45.7 216.5 44.1 218.6C39.5 205.5 33.2001 192.9 27 180.5ZM123.6 175.6C120 177.8 114.3 181.1 113.5 185.5C112.5 190.9 105.7 195.3 100.5 194.8C98.5001 194.6 96.8 192.1 95.1001 192.3C94.0001 192.4 92.9001 192.7 91.9001 193C88.1001 194.1 84.4001 196 80.8001 197.7C72.9001 201.6 65.3 206.2 58 211.2C54.2001 213.8 50.2001 216.6 46.7001 219.9C52.8 211.9 62.0001 205.6 70.3001 200.3C74.6001 197.5 80.2001 194.2 86.0001 192C92.1001 190.4 98.3 189.9 104.6 190.9C104.8 190.9 105 190.9 105.2 190.9C105.6 190.8 105.9 190.6 106.1 190.2C112 178.9 123.9 172.9 136.7 169.7C132.1 171.1 127.7 173 123.6 175.6ZM157.3 166.4C159.7 166.2 162 166.1 164.2 165.9C162.1 166.4 159.5 166.4 157.3 166.4ZM160.3 163.4C150.1 138.9 139.9 113.6 133.2 87.8998C133.4 87.9998 133.7 87.9998 134 87.8998C136.5 87.0998 136.1 86.8998 136.6 88.6998C136.9 89.7998 137.2 90.8998 137.6 91.9998C138.6 95.2998 139.7 98.4998 140.8 101.7C143.5 109.8 146.4 117.8 149.3 125.8C153.8 138.3 158.4 150.7 162.9 163.3C161.9 163.3 161.1 163.3 160.3 163.4ZM146.2 95.3998C148.9 102.6 151.5 109.9 154 117.1C157.1 125.8 160 134.5 162.8 143.4C164.7 149.7 167 156.2 167.7 162.8C167.8 164.1 167 165 165.7 165.5C166 165.1 166.2 164.6 166 164.1C161.6 151.4 156.8 138.8 152.3 126.1C148.1 114.3 143.3 102.4 139.9 90.2998C140.1 90.3998 140.3 90.3998 140.6 90.3998C141.8 90.2998 143 90.1998 144.2 90.0998C144.9 91.8998 145.5 93.5998 146.2 95.3998Z" fill="#1D1D1C"/>
<path d="M59.7001 141.1C64.2001 139.9 68.8001 138.6 73.3001 137.4C74.0001 137.2 74.4001 136.3 74.2001 135.6C72.6001 130.4 71.0001 125.3 69.4001 120.1C69.2001 119.5 68.6001 119.2 68.0001 119.1C63.2001 118.9 57.2001 119.1 53.3001 122.3C53.1001 122.4 53.0001 122.6 52.9001 122.7C52.7001 123 52.6001 123.4 52.7001 123.9C54.1001 129.4 56.0001 134.8 57.9001 140.1C58.2001 140.9 58.9001 141.3 59.7001 141.1ZM55.6001 124.1C58.8001 122 63.2001 121.8 67.0001 121.9C68.4001 126.3 69.7001 130.7 71.1001 135.1C67.4001 136.1 63.8001 137.1 60.1001 138.1C58.5001 133.4 56.9001 128.8 55.6001 124.1Z" fill="#432918"/>
<path d="M30.4001 143.4C36.2001 139.7 43.2001 136.2 50.1001 135.1C51.9001 134.8 51.7001 132 50.0001 132.3C42.7001 133.5 35.2001 137.1 28.9001 141.1C27.3001 142 28.8001 144.3 30.4001 143.4Z" fill="#432918"/>
<path d="M33.7001 150.3C39.4001 146.7 45.9001 143.1 52.6001 141.7C54.4001 141.3 53.5001 138.7 51.8001 139C45.0001 140.4 38.1001 144.1 32.3001 147.9C30.6001 148.9 32.2001 151.2 33.7001 150.3Z" fill="#432918"/>
<path d="M38.3001 161.4C49.3001 153.1 64.5001 148.6 78.2001 148.1C80.0001 148 79.8001 145.3 78.1001 145.3C63.9001 145.8 48.3001 150.4 36.8001 159C35.4001 160.2 36.9001 162.5 38.3001 161.4Z" fill="#432918"/>
<path d="M41.7 169.3C52.7 161 67.9 156.5 81.6 156C83.4 155.9 83.2 153.2 81.5 153.2C67.3 153.7 51.7 158.4 40.2 166.9C38.8 168.1 40.3 170.4 41.7 169.3Z" fill="#432918"/>
<path d="M45.1001 177.2C56.1001 168.9 71.3001 164.4 85.0001 163.9C86.8001 163.8 86.7001 161.1 84.9001 161.1C70.7001 161.6 55.1001 166.3 43.6001 174.8C42.1001 176 43.6001 178.3 45.1001 177.2Z" fill="#432918"/>
<path d="M47.8 184.3C58.8 176 74 171.5 87.7 171C89.5 170.9 89.3 168.2 87.6 168.2C73.4 168.7 57.8 173.3 46.3 181.9C44.8 183.1 46.3 185.4 47.8 184.3Z" fill="#432918"/>
<path d="M50.5 192C61.5 183.7 76.7 179.2 90.4 178.7C92.2 178.6 92 175.9 90.3 175.9C76.1 176.4 60.5 181 49 189.6C47.5 190.7 49 193 50.5 192Z" fill="#432918"/>
<path d="M85.4 117.4C93.4 107.8 107.3 100.3 119.8 99.2001C121.6 99.1001 121.4 96.3001 119.7 96.4001C106.5 97.5001 91.8 105.3 83.4 115.5C82.2 116.9 84.3 118.8 85.4 117.4Z" fill="#432918"/>
<path d="M88.5 123.8C96.4 114.2 110.3 107.7 122.6 106.8C124.4 106.7 124.2 103.9 122.5 104C109.5 105 94.9 111.9 86.4 122C85.3 123.3 87.4 125.2 88.5 123.8Z" fill="#432918"/>
<path d="M92 131.5C100.9 122.6 112.3 118.4 124.4 115.8C126.2 115.4 125.3 112.8 123.6 113.2C111 115.9 99.3 120.4 90 129.7C88.7 130.9 90.8 132.7 92 131.5Z" fill="#432918"/>
<path d="M106.2 161.5C107.6 159.9 109.6 158.8 111.4 157.8C118.4 153.6 126.3 150.9 134 148.3C134.8 148 135 147.3 134.9 146.5C133.5 139 129.8 131.8 126.7 124.9C126.4 124.2 125.7 123.8 124.9 124C114.3 126.9 103.7 131.6 94.8 138L94.7 138.1C94.2 138.4 93.9 138.9 94.2 139.6C97.4 146.7 100.6 153.8 103.8 160.9C104.3 162 105.4 162.4 106.2 161.5ZM97.3 139.8C105.5 134 115 129.8 124.6 127.1C127.3 133.2 130.4 139.6 131.9 146.1C124.3 148.6 116.8 151.5 109.9 155.5C108.5 156.3 107 157.2 105.7 158.3C102.8 152.1 100.1 145.9 97.3 139.8Z" fill="#432918"/>
</svg>
