<svg width="141" height="245" viewBox="0 0 141 245" fill="none" xmlns="http://www.w3.org/2000/svg">
<path d="M13.73 243C72.0126 243 119.26 195.753 119.26 137.47C119.26 79.1873 72.0126 31.9399 13.73 31.9399C-44.5526 31.9399 -91.8 79.1873 -91.8 137.47C-91.8 195.753 -44.5526 243 13.73 243Z" stroke="#FEC707" stroke-width="2.407" stroke-miterlimit="10"/>
<path d="M126.926 9.19897C120.793 9.19897 116.449 13.2873 114.916 18.6532C114.15 19.4198 113.383 19.9308 112.616 20.9529C110.061 23.5081 108.273 26.5744 107.251 29.8961C107.251 30.4072 106.995 30.9182 106.995 31.1737C95.4966 25.2968 81.4429 41.139 92.4303 51.6154C97.5407 56.4703 101.374 61.5807 109.295 61.5807C116.705 61.5807 123.093 56.2147 127.181 50.5933C128.714 48.2936 129.992 45.7384 130.758 43.1832C131.269 41.6501 131.525 39.8614 131.78 38.3283C131.78 38.3283 131.78 38.3283 131.78 38.0728L132.036 37.8173C132.547 37.5618 132.803 37.0507 133.314 36.7952C134.591 35.5176 135.613 34.4955 136.635 32.9624C138.935 29.6406 139.957 26.0633 140.213 21.975C140.213 15.0759 133.569 9.19897 126.926 9.19897Z" fill="#E7393B"/>
<path d="M98.0518 50.3376C101.118 52.8928 104.184 55.1925 106.995 57.7477C110.572 54.426 111.339 49.8266 110.061 44.9717C109.806 44.4607 110.061 43.6941 110.572 43.4386C117.727 37.8171 123.093 30.407 128.97 23.508C129.225 23.2525 129.225 23.2525 129.481 22.9969C128.714 21.9749 127.948 20.9528 127.181 19.9307C125.904 18.3976 127.948 16.3534 129.225 17.8865C130.247 18.9086 131.014 20.1862 131.78 21.2083C134.591 25.5522 137.146 18.9086 134.336 15.8424C132.547 13.7982 130.758 11.754 128.714 9.9654C125.392 6.89916 116.449 -0.766459 113.383 5.36603C117.982 6.89916 121.815 10.732 125.392 13.7982C127.181 15.3313 124.881 17.3755 123.604 16.0979C120.538 13.2872 117.471 10.2209 113.639 8.6878C113.639 8.6878 113.639 8.94332 113.383 8.94332C107.251 15.3313 100.863 21.9749 95.4966 29.1294C95.2411 29.6405 94.73 29.896 94.219 29.896C90.1306 29.385 85.2758 29.385 82.2095 32.7067C79.3988 35.773 80.4209 35.0064 82.9761 37.5616C87.831 42.161 92.9414 46.2493 98.0518 50.3376ZM107.506 19.1641C107.506 18.9086 107.762 18.6531 107.762 18.3976C107.762 18.1421 108.017 17.8865 108.273 17.631C108.528 17.12 109.039 16.6089 109.295 16.0979C109.806 15.5869 110.317 15.0758 110.828 14.8203C111.083 14.5648 111.339 14.3093 111.594 14.3093C111.85 14.0537 112.105 14.0537 112.361 14.0537C113.127 13.5427 113.894 13.5427 113.894 13.5427C113.894 13.5427 113.639 14.3093 113.127 15.0758C112.872 15.3313 112.872 15.5869 112.616 15.8424C112.361 16.0979 112.361 16.3534 112.105 16.6089C111.85 17.12 111.339 17.631 110.828 17.8865C110.317 18.3976 110.061 18.9086 109.55 19.1641C109.295 19.4197 109.039 19.4197 109.039 19.6752C108.784 19.9307 108.784 19.9307 108.528 20.1862C107.762 20.9528 107.251 21.2083 107.251 21.2083C107.251 21.2083 107.251 20.1862 107.506 19.1641ZM102.651 25.5522C102.907 25.2966 103.162 25.0411 103.418 24.7856C103.673 24.5301 103.929 24.5301 104.184 24.5301C104.695 24.5301 105.206 24.5301 105.206 24.5301C105.206 24.5301 105.206 25.0411 105.206 25.5522V25.8077V26.0632C105.206 26.3187 104.951 26.5742 104.951 26.5742C104.695 27.0853 104.184 27.3408 103.673 27.5963C103.162 27.8518 102.907 27.8518 102.907 27.8518C102.907 27.8518 102.651 27.3408 102.651 26.8298C102.14 26.5742 102.396 26.0632 102.651 25.5522Z" fill="#E7393B"/>
<path d="M76.588 64.391C82.465 60.0472 88.5975 55.7033 94.73 51.3595C92.4303 49.5708 90.1306 47.7822 87.8309 45.738C83.9981 52.126 80.1653 58.2585 76.588 64.391Z" fill="white"/>
<path d="M134.08 10.4763L133.569 9.9653C129.992 6.13249 122.582 0 116.705 0C113.383 0 111.083 2.04416 110.061 6.13249C109.806 6.64353 110.061 7.15457 110.572 7.4101L109.806 8.17666C104.184 14.0536 98.5628 19.9306 93.7079 26.5741C93.7079 26.5741 93.1969 26.8297 91.4082 26.8297H89.8751H89.1085C88.342 26.8297 87.5754 26.8297 87.3199 26.8297C85.5313 27.0852 83.4871 28.1073 81.954 29.3849C79.9098 31.1735 78.3767 32.9621 77.3546 35.0063C77.0991 35.5173 77.3546 36.2839 77.8656 36.795C80.1653 39.0946 82.465 41.3943 85.7868 43.9495L80.4208 52.6372L69.9445 69.7571C69.689 70.2681 69.689 70.7792 69.9445 71.2902C70.2 71.8013 70.9666 72.0568 71.4776 72.0568C71.9887 72.0568 72.2442 71.8013 72.7552 71.5457C80.1653 65.6688 88.342 60.0473 96.0076 54.6814L97.5407 53.4038C100.862 56.2145 103.673 58.2587 106.484 60.8139C106.739 61.0694 107.251 61.3249 107.762 61.3249C108.273 61.3249 108.528 61.0694 109.039 60.8139C113.639 57.2366 115.427 51.8707 114.405 45.4827C114.15 44.205 118.493 40.3722 121.049 38.0726C122.071 37.0505 122.837 36.2839 123.348 36.0284C125.137 34.2397 126.67 32.1956 128.203 30.1514C129.481 28.6183 130.758 27.0852 132.036 25.5521L132.292 25.2965C133.058 26.0631 133.825 26.3186 134.847 26.3186C136.124 26.3186 137.402 25.5521 138.935 24.2744C140.213 22.9968 140.724 21.7192 140.979 20.1861C139.957 16.6088 136.635 13.0315 134.08 10.4763ZM85.7868 49.571L87.8309 45.9937C90.1306 47.7823 92.1748 49.571 94.4745 51.3596C88.853 55.1924 82.9761 59.2808 77.3546 63.6246L85.7868 49.571ZM135.358 21.4637C135.102 22.2303 134.591 22.7413 134.08 22.7413C133.569 22.7413 132.803 22.2303 132.292 21.4637C131.525 20.1861 130.503 19.164 129.481 17.8864C129.225 17.6309 128.714 17.3754 128.459 17.3754C127.692 17.3754 127.181 17.8864 126.926 18.3975C126.67 18.9085 126.67 19.6751 127.181 20.1861C127.948 20.9527 128.459 21.7192 128.97 22.4858L129.481 22.9968C129.225 22.9968 129.225 23.2524 128.97 23.2524C127.692 24.7855 126.415 26.3186 124.881 28.1073C120.538 33.4732 115.938 38.8391 110.317 43.4385C109.806 43.9495 109.806 44.7161 109.806 45.2271C111.083 50.082 110.317 54.1703 106.995 57.7476C103.929 55.1924 100.862 52.8927 98.0518 50.3375C93.1969 46.5047 88.0865 42.1609 83.2316 37.817C82.7205 37.306 82.2095 36.795 81.6984 36.5394C81.1874 36.0284 80.6764 35.7729 80.6764 35.5173C80.6764 35.0063 81.1874 34.4953 82.2095 33.2177C84.2537 31.1735 86.8089 30.1514 90.6417 30.1514C91.6637 30.1514 92.9414 30.1514 94.219 30.4069C94.73 30.4069 95.241 29.8959 95.4966 29.6404C99.8404 23.5079 105.206 17.8864 110.572 12.5205L113.639 9.19874C116.96 10.2208 119.515 12.776 122.326 15.0757L123.604 16.0978C123.859 16.3533 124.37 16.6088 124.626 16.6088C125.392 16.6088 126.159 16.0978 126.415 15.3312C126.67 14.8202 126.415 14.0536 125.904 13.5426L124.881 12.776C121.56 9.70978 118.238 6.64353 113.894 5.36593C114.661 4.08833 115.683 3.32177 117.216 3.32177C121.304 3.32177 126.926 8.43218 128.97 10.2208C130.503 11.7539 132.036 13.2871 133.314 14.8202L134.336 16.0978C135.869 17.6309 135.869 20.1861 135.358 21.4637Z" fill="#1D1D1C"/>
<path d="M112.105 13.5425C111.85 13.5425 111.594 13.798 111.594 13.798C111.339 13.798 111.083 14.0535 110.828 14.3091C110.061 14.8201 109.55 15.3311 109.295 15.8422C108.784 16.3532 108.528 16.8643 108.017 17.6308C107.762 17.8863 107.762 18.1419 107.762 18.3974C107.762 18.6529 107.506 18.9084 107.506 19.164C106.995 20.186 106.995 20.9526 106.995 20.9526V21.2081C106.995 21.2081 107.762 20.6971 108.528 19.9305C108.784 19.675 108.784 19.675 109.039 19.4195L109.295 19.164L109.55 18.9084C110.061 18.3974 110.317 18.1419 110.828 17.6308C111.339 17.1198 111.594 16.6087 112.105 16.3532L112.361 16.0977L112.616 15.8422C112.616 15.5867 112.872 15.5867 113.127 15.0756C113.639 14.3091 113.894 13.5425 113.638 13.287C113.894 13.0315 113.127 13.0315 112.105 13.5425Z" fill="#1D1D1C"/>
<path d="M104.44 24.2743H104.184C103.929 24.2743 103.673 24.2743 103.418 24.5298C103.162 24.7854 102.907 25.0409 102.651 25.2964C102.396 25.8074 102.14 26.3185 102.14 26.8295C102.14 27.3406 102.396 27.8516 102.396 27.8516C102.396 27.8516 102.396 27.8516 102.651 27.8516C102.651 27.8516 103.162 27.8516 103.673 27.5961C104.184 27.3406 104.695 27.085 104.951 26.574C105.206 26.3185 105.206 26.3185 105.206 25.5519C105.206 25.5519 105.206 25.2964 105.206 25.0409C105.462 24.5298 105.206 24.0188 105.206 24.0188C104.951 24.5298 104.695 24.2743 104.44 24.2743Z" fill="#1D1D1C"/>
</svg>
