<svg xmlns="http://www.w3.org/2000/svg" xmlns:xlink="http://www.w3.org/1999/xlink"><defs><style>
    .sprite-symbol-usage {display: none;}
    .sprite-symbol-usage:target {display: inline;}
  </style><symbol viewBox="0 0 8 9" fill="none" id="ss-icons-arrow-down">
    <path fill="currentColor" d="M3.64645 8.35355C3.84171 8.54882 4.15829 8.54882 4.35355 8.35355L7.53553 5.17157C7.7308 4.97631 7.7308 4.65973 7.53553 4.46447C7.34027 4.2692 7.02369 4.2692 6.82843 4.46447L4 7.29289L1.17157 4.46447C0.97631 4.2692 0.659728 4.2692 0.464466 4.46447C0.269204 4.65973 0.269204 4.97631 0.464466 5.17157L3.64645 8.35355ZM3.5 -3.27835e-08L3.5 8L4.5 8L4.5 3.27835e-08L3.5 -3.27835e-08Z" />
</symbol><symbol viewBox="0 0 9 8" fill="none" id="ss-icons-arrow-left">
    <path fill="currentColor" transform="rotate(180, 4.5, 4)" d="M8.35355 4.35355C8.54882 4.15829 8.54882 3.84171 8.35355 3.64645L5.17157 0.464466C4.97631 0.269204 4.65973 0.269204 4.46447 0.464466C4.2692 0.659728 4.2692 0.976311 4.46447 1.17157L7.29289 4L4.46447 6.82843C4.2692 7.02369 4.2692 7.34027 4.46447 7.53553C4.65973 7.7308 4.97631 7.7308 5.17157 7.53553L8.35355 4.35355ZM0 4.5L8 4.5V3.5L0 3.5L0 4.5Z" />
</symbol><symbol viewBox="0 0 9 8" fill="none" id="ss-icons-arrow-right">
    <path fill="currentColor" d="M8.35355 4.35355C8.54882 4.15829 8.54882 3.84171 8.35355 3.64645L5.17157 0.464466C4.97631 0.269204 4.65973 0.269204 4.46447 0.464466C4.2692 0.659728 4.2692 0.976311 4.46447 1.17157L7.29289 4L4.46447 6.82843C4.2692 7.02369 4.2692 7.34027 4.46447 7.53553C4.65973 7.7308 4.97631 7.7308 5.17157 7.53553L8.35355 4.35355ZM0 4.5L8 4.5V3.5L0 3.5L0 4.5Z" />
</symbol><symbol viewBox="0 0 8 9" fill="none" id="ss-icons-arrow-up">
    <path transform="rotate(180, 4, 4.5)" fill="currentColor" d="M3.64645 8.35355C3.84171 8.54882 4.15829 8.54882 4.35355 8.35355L7.53553 5.17157C7.7308 4.97631 7.7308 4.65973 7.53553 4.46447C7.34027 4.2692 7.02369 4.2692 6.82843 4.46447L4 7.29289L1.17157 4.46447C0.97631 4.2692 0.659728 4.2692 0.464466 4.46447C0.269204 4.65973 0.269204 4.97631 0.464466 5.17157L3.64645 8.35355ZM3.5 -3.27835e-08L3.5 8L4.5 8L4.5 3.27835e-08L3.5 -3.27835e-08Z" />
</symbol><symbol viewBox="0 0 512 512" id="ss-icons-calendar">
	<g fill="currentColor">
		<path d="M452,40h-24V0h-40v40H124V0H84v40H60C26.916,40,0,66.916,0,100v352c0,33.084,26.916,60,60,60h392
			c33.084,0,60-26.916,60-60V100C512,66.916,485.084,40,452,40z M472,452c0,11.028-8.972,20-20,20H60c-11.028,0-20-8.972-20-20V188
			h432V452z M472,148H40v-48c0-11.028,8.972-20,20-20h24v40h40V80h264v40h40V80h24c11.028,0,20,8.972,20,20V148z" />
		<rect x="76" y="230" width="40" height="40" />
		<rect x="156" y="230" width="40" height="40" />
		<rect x="236" y="230" width="40" height="40" />
		<rect x="316" y="230" width="40" height="40" />
		<rect x="396" y="230" width="40" height="40" />
		<rect x="76" y="310" width="40" height="40" />
		<rect x="156" y="310" width="40" height="40" />
		<rect x="236" y="310" width="40" height="40" />
		<rect x="316" y="310" width="40" height="40" />
		<rect x="76" y="390" width="40" height="40" />
		<rect x="156" y="390" width="40" height="40" />
		<rect x="236" y="390" width="40" height="40" />
		<rect x="316" y="390" width="40" height="40" />
		<rect x="396" y="310" width="40" height="40" />
	</g>
</symbol><symbol viewBox="0 0 24 24" fill="none" id="ss-icons-calendar-check">
    <g stroke="#333333" stroke-miterlimit="10" stroke-linecap="round">
        <path d="M15.5 4.5L19.5 4.5L19.5 19.5L4.5 19.5L4.5 4.5L6.5 4.5" />
        <path d="M8.5 3L8.5 6M15.5 3V6M8.5 4.5H13.5" />
        <path d="M8.5 13.5L11.5 16.5L16.5 11" />
        <path d="M6.5 8.5H17.5" />
    </g>
</symbol><symbol viewBox="0 0 424.449 424.449" id="ss-icons-cart">
    <g fill="currentColor">
        <circle cx="170.241" cy="374.273" r="50.176" />
        <path d="M316.673,324.098L316.673,324.098c-27.711,0-50.176,22.465-50.176,50.176s22.465,50.176,50.176,50.176
				c27.711,0,50.176-22.465,50.176-50.176S344.384,324.098,316.673,324.098z" />
        <path d="M402.177,272.897H140.545l-5.12-29.696h215.04c6.326,0.019,12.017-3.843,14.336-9.728l51.2-129.024
				c3.111-7.892-0.766-16.812-8.658-19.922c-1.808-0.713-3.735-1.076-5.678-1.07H108.801L96.513,12.801
				c-1.262-7.471-7.784-12.906-15.36-12.8h-58.88c-8.483,0-15.36,6.877-15.36,15.36s6.877,15.36,15.36,15.36h46.08l44.032,260.096
				c1.262,7.471,7.784,12.906,15.36,12.8h274.432c8.483,0,15.36-6.877,15.36-15.36C417.537,279.774,410.66,272.897,402.177,272.897z
				" />
    </g>
</symbol><symbol viewBox="0 0 17 18" fill="none" id="ss-icons-cart-new">
<path d="M16.6186 0.736241C16.6038 1.0005 16.4417 1.21191 16.2354 1.26477L13.4207 1.899C13.1996 1.95185 13.0375 2.18088 13.0375 2.44514L12.9638 9.79164C12.9638 10.4083 12.6249 10.9368 12.1238 11.113L4.00383 13.967C3.41435 14.1784 2.78067 13.7908 2.57435 13.0861L0.599617 6.18005C0.349091 5.33441 0.835406 4.43592 1.58699 4.34783C3.31228 4.16848 0.381346 4.55496 11.4607 3.27316C11.7112 3.25554 11.888 3.0089 11.888 2.7094V1.56426C11.888 1.3 12.0501 1.05336 12.2712 1.0005L13.0522 0.824328L16.0586 0.137245C16.368 0.0843927 16.648 0.366273 16.6186 0.736241Z" fill="currentColor" />
<path d="M7.48047 17.6807C8.49012 17.6807 9.30859 16.8622 9.30859 15.8525C9.30859 14.8429 8.49012 14.0244 7.48047 14.0244C6.47082 14.0244 5.65234 14.8429 5.65234 15.8525C5.65234 16.8622 6.47082 17.6807 7.48047 17.6807Z" fill="currentColor" />
<path d="M13.3303 14.0248C13.9361 14.0248 14.4271 13.5337 14.4271 12.9279C14.4271 12.3221 13.9361 11.8311 13.3303 11.8311C12.7245 11.8311 12.2334 12.3221 12.2334 12.9279C12.2334 13.5337 12.7245 14.0248 13.3303 14.0248Z" fill="currentColor" />
</symbol><symbol viewBox="0 0 22 22" fill="currentColor" id="ss-icons-chat">
  <path d="M5.37094 21.9092C5.26783 21.9092 5.15326 21.8848 5.06161 21.8361C4.7981 21.702 4.62625 21.4217 4.62625 21.1048V17.6312H2.1058C1.09761 17.6312 0.272736 16.7536 0.272736 15.6811V2.87145C0.272736 1.78672 1.09761 0.90918 2.1058 0.90918H19.4397C20.4479 0.90918 21.2727 1.78672 21.2727 2.87145V15.6933C21.2727 16.7658 20.4479 17.6434 19.4397 17.6434H10.4806C10.4004 17.6434 10.3087 17.6799 10.2515 17.7409L5.86357 21.7264C5.72609 21.8482 5.54278 21.9092 5.37094 21.9092ZM2.1058 2.12798C1.72773 2.12798 1.4184 2.45706 1.4184 2.87145V15.6933C1.4184 16.0955 1.72773 16.4246 2.1058 16.4246H4.85539C5.34802 16.4246 5.749 16.8511 5.749 17.3752V20.215L9.49532 16.8146C9.77028 16.5708 10.114 16.4246 10.4691 16.4246H19.4282C19.8063 16.4246 20.1156 16.0955 20.1156 15.6933V2.87145C20.1156 2.46925 19.8063 2.12798 19.4282 2.12798H2.1058Z" />
  <path d="M17.1506 8.55132H4.71549C4.39488 8.55132 4.14297 8.28319 4.14297 7.94192C4.14297 7.60066 4.39488 7.33252 4.71549 7.33252H17.1506C17.4712 7.33252 17.7231 7.60066 17.7231 7.94192C17.7231 8.28319 17.4712 8.55132 17.1506 8.55132Z" />
  <path d="M11.3338 11.5616H4.71549C4.39488 11.5616 4.14297 11.2934 4.14297 10.9522C4.14297 10.6109 4.39488 10.3428 4.71549 10.3428H11.3338C11.6544 10.3428 11.9063 10.6109 11.9063 10.9522C11.9063 11.2934 11.643 11.5616 11.3338 11.5616Z" />
</symbol><symbol viewBox="0 0 20 20" fill="none" id="ss-icons-chat-mobile">
<path d="M9.95416 0C9.95952 0 9.97023 0 9.98631 0C15.4092 0 19.8193 4.41012 19.8193 9.83301C19.8193 12.0461 19.0638 14.1949 17.6813 15.9257L19.112 19.2534C19.2299 19.5267 19.1013 19.8429 18.8334 19.9554C18.7369 19.9983 18.6297 20.009 18.5279 19.9929L13.2818 19.0712C12.2316 19.4517 11.1277 19.6446 10.0131 19.6392C4.5902 19.6392 0.180077 15.2291 0.180077 9.80622C0.169359 4.3994 4.54733 0.00535859 9.95416 0ZM9.5599 7.85569H6.66626C6.37154 7.85569 6.1304 8.09683 6.1304 8.39155C6.1304 8.68628 6.37154 8.92741 6.66626 8.92741H9.5599C9.85463 8.92741 10.0958 8.68628 10.0958 8.39155C10.0958 8.09683 9.85463 7.85569 9.5599 7.85569ZM6.6747 11.6067H13.3194C13.6141 11.6067 13.8552 11.3656 13.8552 11.0708C13.8552 10.7761 13.6141 10.535 13.3194 10.535H6.6747C6.37997 10.535 6.13884 10.7761 6.13884 11.0708C6.13884 11.3656 6.37997 11.6067 6.6747 11.6067Z" fill="#FD7400" />
</symbol><symbol viewBox="0 0 20 20" fill="none" id="ss-icons-chat-mobile-reverse">
<path d="M9.95416 0C9.95952 0 9.97023 0 9.98631 0C15.4092 0 19.8193 4.41012 19.8193 9.83301C19.8193 12.0461 19.0638 14.1949 17.6813 15.9257L19.112 19.2534C19.2299 19.5267 19.1013 19.8429 18.8334 19.9554C18.7369 19.9983 18.6297 20.009 18.5279 19.9929L13.2818 19.0712C12.2316 19.4517 11.1277 19.6446 10.0131 19.6392C4.5902 19.6392 0.180077 15.2291 0.180077 9.80622C0.169359 4.3994 4.54733 0.00535859 9.95416 0ZM9.5599 7.85569H6.66626C6.37154 7.85569 6.1304 8.09683 6.1304 8.39155C6.1304 8.68628 6.37154 8.92741 6.66626 8.92741H9.5599C9.85463 8.92741 10.0958 8.68628 10.0958 8.39155C10.0958 8.09683 9.85463 7.85569 9.5599 7.85569ZM6.6747 11.6067H13.3194C13.6141 11.6067 13.8552 11.3656 13.8552 11.0708C13.8552 10.7761 13.6141 10.535 13.3194 10.535H6.6747C6.37997 10.535 6.13884 10.7761 6.13884 11.0708C6.13884 11.3656 6.37997 11.6067 6.6747 11.6067Z" fill="white" />
</symbol><symbol viewBox="0 0 21 20" fill="none" id="ss-icons-chat-white">
<path d="M5.04918 20C4.93443 20 4.81967 20 4.70492 19.8837C4.47541 19.7674 4.2459 19.5349 4.2459 19.186V15.814H1.83607C0.803279 15.9302 0 15.1163 0 14.0698V1.86047C0 0.813954 0.803279 0 1.83607 0H19.1639C20.1967 0 21 0.813954 21 1.86047V14.0698C21 15.1163 20.1967 15.9302 19.1639 15.9302H10.2131C10.0984 15.9302 10.0984 15.9302 9.98361 16.0465L5.62295 19.8837C5.5082 20 5.27869 20 5.04918 20Z" fill="white" />
<path d="M16.8691 7.32539H4.47563C4.13136 7.32539 3.90186 7.09283 3.90186 6.74399C3.90186 6.39516 4.13136 6.1626 4.47563 6.1626H16.9838C17.3281 6.1626 17.5576 6.39516 17.5576 6.74399C17.5576 7.09283 17.2133 7.32539 16.8691 7.32539Z" fill="#FD7400" />
<path d="M11.1314 10.1164H4.47563C4.13136 10.1164 3.90186 9.88385 3.90186 9.53501C3.90186 9.18617 4.13136 8.95361 4.47563 8.95361H11.1314C11.4756 8.95361 11.7051 9.18617 11.7051 9.53501C11.7051 9.88385 11.3609 10.1164 11.1314 10.1164Z" fill="#FD7400" />
</symbol><symbol viewBox="0 0 15 14" fill="none" id="ss-icons-check-round">
  <g stroke="currentColor" stroke-linecap="round" stroke-linejoin="round">
    <path d="M13 7C13 8.35434 12.5418 9.66884 11.6999 10.7297C10.858 11.7906 9.68199 12.5354 8.36306 12.8431C7.04414 13.1508 5.65991 13.0032 4.43551 12.4243C3.21112 11.8455 2.21858 10.8694 1.61931 9.65485C1.02005 8.4403 0.849327 7.05874 1.1349 5.73485C1.42047 4.41096 2.14555 3.22263 3.1922 2.36312C4.23885 1.50361 5.5455 1.02349 6.89965 1.00084C8.2538 0.978188 9.57578 1.41434 10.6506 2.23836" />
    <path d="M3.76953 6.23054L6.75596 9.30747L13.9234 1.92285" />
  </g>
</symbol><symbol viewBox="0 0 8 13" id="ss-icons-chevron-left">
    <path d="M7 1L2 6.5L7 12" stroke="currentColor" fill="none" stroke-width="2" />
</symbol><symbol viewBox="0 0 8 13" fill="none" id="ss-icons-chevron-right">
<path d="M1 1L6 6.5L1 12" stroke="currentColor" stroke-width="2" />
</symbol><symbol viewBox="0 0 16 17" fill="none" id="ss-icons-chevron-right-circle">
<path fill-rule="evenodd" clip-rule="evenodd" d="M8 16.5C12.4183 16.5 16 12.9183 16 8.5C16 4.08172 12.4183 0.5 8 0.5C3.58172 0.5 0 4.08172 0 8.5C0 12.9183 3.58172 16.5 8 16.5ZM5.65259 4.36488L9.32871 8.50052L5.65259 12.6362L7.14741 13.9649L11.4141 9.16489L12.0046 8.50052L11.4141 7.83616L7.14741 3.03616L5.65259 4.36488Z" fill="currentColor" />
</symbol><symbol viewBox="0 0 13 8" fill="none" id="ss-icons-chevron-up">
    <path d="M12 7L6.5 2L1 7" stroke="currentColor" stroke-width="2" />
</symbol><symbol viewBox="0 0 512 512" id="ss-icons-clock">
	<g fill="currentColor">
		<path d="M256,0C114.845,0,0,114.839,0,256s114.845,256,256,256c141.161,0,256-114.839,256-256S397.155,0,256,0z M256,474.628
			C135.45,474.628,37.372,376.55,37.372,256S135.45,37.372,256,37.372s218.628,98.077,218.628,218.622
			C474.628,376.55,376.55,474.628,256,474.628z" />
		<path d="M343.202,256h-80.973V143.883c0-10.321-8.365-18.686-18.686-18.686s-18.686,8.365-18.686,18.686v130.803
			c0,10.321,8.365,18.686,18.686,18.686h99.659c10.321,0,18.686-8.365,18.686-18.686S353.523,256,343.202,256z" />
	</g>
</symbol><symbol viewBox="0 0 20 20" fill="none" id="ss-icons-close">
<path d="M17 4.415L15.585 3L10 8.585L4.415 3L3 4.415L8.585 10L3 15.585L4.415 17L10 11.415L15.585 17L17 15.585L11.415 10L17 4.415Z" fill="currentColor" />
</symbol><symbol viewBox="0 0 24 24" fill="none" id="ss-icons-compare">
    <g stroke="currentColor" stroke-miterlimit="10" stroke-linecap="round">
        <path d="M19.5 17.5V4H15.5V17.5" />
        <path d="M15.5 9.49976L11.5 9.49981V17.5" />
        <path d="M7.5 17.5V7.50002L11.5 7.5V9.09528" />
        <path d="M3.5 19.5H19.5" />
        <path d="M7 11.5H3.5V17.5" />
    </g>
</symbol><symbol viewBox="0 0 511.058 511.058" id="ss-icons-cross">
    <path fill="currentColor" d="m511.058 60.811-60.811-60.811-194.718 194.718-194.718-194.718-60.811 60.811 194.718 194.718-194.718 194.718 60.811 60.811 194.718-194.718 194.718 194.718 60.811-60.811-194.718-194.718z" />
</symbol><symbol viewBox="0 0 22 16" fill="none" id="ss-icons-delivery">
<path d="M1.58224 0.00269031C0.803377 0.00269031 0 0.733743 0 1.73356V2.34636H7.52179C7.82135 2.34099 8.06917 2.58019 8.07462 2.87583C8.08006 3.17148 7.83769 3.41606 7.53813 3.42144C7.53268 3.42144 7.52723 3.42144 7.52179 3.42144H0V5.52053H5.41394C5.71351 5.51515 5.96133 5.75435 5.96678 6.04999C5.97222 6.34564 5.72985 6.59023 5.43028 6.5956C5.42484 6.5956 5.41939 6.5956 5.41394 6.5956H0V8.68662H3.82081C4.12037 8.68124 4.36819 8.92045 4.37364 9.2161C4.37908 9.51175 4.13671 9.75632 3.83715 9.76169C3.8317 9.76169 3.82625 9.76169 3.82081 9.76169H0V10.3825C0 11.3501 0.86329 12.1134 1.58224 12.1134H2.51089C2.5 12.2102 2.50272 12.3069 2.50272 12.4064C2.50272 13.8389 3.56209 15.0027 4.87745 15.0027C6.19281 15.0027 7.26035 13.8416 7.26035 12.4064C7.26035 12.3069 7.25218 12.2075 7.24401 12.1134H13.6356C13.6247 12.2102 13.6193 12.3069 13.6193 12.4064C13.6193 13.8389 14.6868 15.0027 16.0022 15.0027C17.3175 15.0027 18.3851 13.8416 18.3851 12.4064C18.3851 12.3069 18.3769 12.2075 18.3687 12.1134H19.5861C20.4548 12.1134 21.1765 11.291 21.1765 10.3825V8.36678L15.8824 0H1.58224V0.00269031ZM12.7669 2.34636C12.7859 2.34636 12.8077 2.34636 12.8268 2.34636H14.9374C15.1225 2.34636 15.2968 2.43774 15.3976 2.59094L18.0447 6.63054C18.2081 6.87781 18.1373 7.21107 17.8867 7.37502C17.7968 7.43146 17.6934 7.46372 17.5844 7.46372H12.8241C12.5245 7.46372 12.2794 7.22183 12.2794 6.92618V2.88659C12.2794 2.60976 12.4891 2.37593 12.7669 2.34636Z" fill="currentColor" />
</symbol><symbol viewBox="0 0 24 24" fill="none" id="ss-icons-edit">
    <g stroke="currentColor" stroke-miterlimit="10" stroke-linecap="round">
        <path d="M14.2322 5.77405C15.208 4.79478 16.7934 4.79337 17.7709 5.77091V5.77091C18.746 6.74599 18.7474 8.32648 17.774 9.30329L9.56055 17.546L6.02502 17.546L6.02502 14.0105L14.2322 5.77405Z" />
        <path d="M15 8L17 10" />
    </g>
</symbol><symbol viewBox="0 0 12 7" fill="none" id="ss-icons-expand">
<path d="M1 1L6 6L11 1" stroke="currentColor" stroke-linecap="round" />
</symbol><symbol viewBox="0 0 512 512" id="ss-icons-faq">
	<g fill="currentColor">
		<circle cx="256" cy="378.5" r="25" />
		<path d="M256,0C114.516,0,0,114.497,0,256c0,141.484,114.497,256,256,256c141.484,0,256-114.497,256-256
		C512,114.516,397.503,0,256,0z M256,472c-119.377,0-216-96.607-216-216c0-119.377,96.607-216,216-216
		c119.377,0,216,96.607,216,216C472,375.377,375.393,472,256,472z" />
		<path d="M256,128.5c-44.112,0-80,35.888-80,80c0,11.046,8.954,20,20,20s20-8.954,20-20c0-22.056,17.944-40,40-40
		c22.056,0,40,17.944,40,40c0,22.056-17.944,40-40,40c-11.046,0-20,8.954-20,20v50c0,11.046,8.954,20,20,20
		c11.046,0,20-8.954,20-20v-32.531c34.466-8.903,60-40.26,60-77.469C336,164.388,300.112,128.5,256,128.5z" />
	</g>
</symbol><symbol viewBox="0 0 24 24" id="ss-icons-gift">
    <g fill="none" stroke="currentColor" stroke-miterlimit="10" stroke-linecap="round">
        <path d="M18.5 14.7383L18.5 20.4983H4.49996L4.5 14.7383" />
        <path d="M8.5 14.5H3.5V10.5H8.5" />
        <path d="M14.5 14.5H19.5V10.5H14.5" />
        <path d="M12.5 18.5L12.5 9M10.5 9L10.5 18.5" />
        <path d="M12.5 8.99735C12.5 3.49805 17 4.49753 17 6.49743C17 8.49733 15.5 8.49768 14.5 8.49768" />
        <path d="M10.5 8.99735C10.5 3.49805 6 4.49753 6 6.49743C6 8.49733 7.5 8.49768 8.5 8.49768" />
    </g>
</symbol><symbol viewBox="0 0 20 20" fill="none" id="ss-icons-grid-view">
    <g stroke="currentColor">
        <rect width="4" height="4" x="4.5" y="4.5" />
        <rect width="4" height="4" x="4.5" y="11.5" />
        <rect width="4" height="4" x="11.5" y="4.5" />
        <rect width="4" height="4" x="11.5" y="11.5" />
    </g>
</symbol><symbol viewBox="0 0 24 24" fill="none" id="ss-icons-heart">
    <path d="M11.9857 7.99999C14.9998 4.49988 20.5188 7.29726 18.5581 11.8998C17.5205 14.3355 14.5136 16.475 11.9857 18C9.45788 16.475 6.39796 14.3355 5.41335 11.8998C3.9091 8.17856 7.12666 5.54111 9.99976 6.49988" stroke="currentColor" stroke-miterlimit="10" stroke-linecap="round" />
</symbol><symbol viewBox="0 0 20 20" fill="none" id="ss-icons-list-view">
    <g fill-rule="evenodd" clip-rule="evenodd" fill="currentColor">
        <path d="M15 4H5H4V5V6V7H5H15H16V6V5V4H15ZM15 5H5V6H15V5Z" />
        <path d="M16 8.5H4V9V9.5V10.5V11V11.5H16V11V10.5V9.5V9V8.5ZM15 9.5H5V10.5H15V9.5Z" />
        <path d="M15 13H5H4V14V15V16H5H15H16V15V14V13H15ZM15 14H5V15H15V14Z" />
    </g>
</symbol><symbol viewBox="0 0 18 18" fill="none" id="ss-icons-live">
<path d="M18 13.5703L13.5 11.3203V13.5H0V4.5H13.5V6.67969L18 4.42969V13.5703ZM12.375 5.625H1.125V12.375H12.375V5.625ZM16.875 6.24902L13.5 7.94531V10.0547L16.875 11.751V6.24902Z" fill="currentColor" />
</symbol><symbol viewBox="0 0 24 24" id="ss-icons-location">
    <g fill="none" stroke="currentColor" stroke-miterlimit="10" stroke-linecap="round">
        <path d="M11.5001 17.5L6.87014 10.01C5.15014 6.56 7.66014 2.5 11.5101 2.5C15.3701 2.5 17.8701 6.56 16.1501 10.01L11.5001 17.5Z" />
        <path d="M11.5 9.5C12.6046 9.5 13.5 8.60457 13.5 7.5C13.5 6.39543 12.6046 5.5 11.5 5.5C10.3954 5.5 9.5 6.39543 9.5 7.5C9.5 8.60457 10.3954 9.5 11.5 9.5Z" />
    </g>
</symbol><symbol viewBox="0 0 14 18" fill="none" id="ss-icons-location-new">
<path d="M11.3306 1.94101C10.0366 0.647004 8.3278 0 6.63563 0C4.94347 0 3.23471 0.647004 1.9407 1.94101C-0.0832632 3.98157 -0.53119 7.00092 0.630101 9.45622C0.72964 9.6553 0.829179 9.85438 0.945308 10.0535C0.978488 10.1032 0.995078 10.153 1.02826 10.2028L5.44116 17.3364C5.98863 18.2157 7.26605 18.2157 7.79692 17.3364L12.1766 10.2857L12.326 10.0535C12.9564 9.00829 13.2716 7.83041 13.2716 6.63594C13.2716 4.94378 12.6246 3.23502 11.3306 1.94101ZM6.28724 3.99816C8.07895 3.7659 9.58863 5.27558 9.35637 7.06728C9.20706 8.29493 8.21167 9.27373 7.00061 9.42304C5.2089 9.6553 3.69923 8.14562 3.93148 6.35392C4.08079 5.14286 5.05959 4.16405 6.28724 3.99816Z" fill="currentColor" />
</symbol><symbol viewBox="0 0 512 512" id="ss-icons-logout">
	<path fill="currentColor" d="M255.15,468.625H63.787c-11.737,0-21.262-9.526-21.262-21.262V64.638c0-11.737,9.526-21.262,21.262-21.262H255.15
		c11.758,0,21.262-9.504,21.262-21.262S266.908,0.85,255.15,0.85H63.787C28.619,0.85,0,29.47,0,64.638v382.724
		c0,35.168,28.619,63.787,63.787,63.787H255.15c11.758,0,21.262-9.504,21.262-21.262
		C276.412,478.129,266.908,468.625,255.15,468.625z" />
	<path fill="currentColor" d="M505.664,240.861L376.388,113.286c-8.335-8.25-21.815-8.143-30.065,0.213s-8.165,21.815,0.213,30.065l92.385,91.173
		H191.362c-11.758,0-21.262,9.504-21.262,21.262c0,11.758,9.504,21.263,21.262,21.263h247.559l-92.385,91.173
		c-8.377,8.25-8.441,21.709-0.213,30.065c4.167,4.21,9.653,6.336,15.139,6.336c5.401,0,10.801-2.041,14.926-6.124l129.276-127.575
		c4.04-3.997,6.336-9.441,6.336-15.139C512,250.302,509.725,244.88,505.664,240.861z" />
</symbol><symbol viewBox="0 0 22 16" fill="currentColor" id="ss-icons-mail">
<path d="M20.2486 0.54541H19.5007H2.04479H1.29685C0.73301 0.54541 0.272736 0.966815 0.272736 1.48304V14.1462C0.272736 14.6625 0.73301 15.0839 1.29685 15.0839H20.2486C20.8125 15.0839 21.2727 14.6625 21.2727 14.1462V1.48304C21.2612 0.966815 20.801 0.54541 20.2486 0.54541ZM19.1555 1.59892L10.7785 8.28872L2.39 1.59892H19.1555ZM1.43493 14.0198V2.23103L10.0996 9.1526C10.2952 9.30009 10.5368 9.37384 10.7785 9.37384C11.0201 9.37384 11.2503 9.30009 11.4459 9.1526L20.1105 2.23103V14.0198H1.43493Z" />
</symbol><symbol viewBox="0 0 20 20" fill="none" id="ss-icons-mail-mobile">
<path d="M10 20C15.5228 20 20 15.5228 20 10C20 4.47715 15.5228 0 10 0C4.47715 0 0 4.47715 0 10C0 15.5228 4.47715 20 10 20Z" fill="#FD7400" />
<path d="M15.4148 6H14.9874H5.0126H4.58521C4.26301 6 4 6.2408 4 6.53579V13.7719C4 14.0669 4.26301 14.3077 4.58521 14.3077H15.4148C15.737 14.3077 16 14.0669 16 13.7719V6.53579C15.9934 6.2408 15.7304 6 15.4148 6ZM14.7901 6.60201L10.0033 10.4248L5.20986 6.60201H14.7901ZM4.66411 13.6997V6.96321L9.61534 10.9184C9.72712 11.0027 9.86521 11.0448 10.0033 11.0448C10.1414 11.0448 10.2729 11.0027 10.3847 10.9184L15.3359 6.96321V13.6997H4.66411Z" fill="white" stroke="white" stroke-width="0.5" />
</symbol><symbol viewBox="0 0 20 20" fill="none" id="ss-icons-mail-mobile-reverse">
<path d="M10 20C15.5228 20 20 15.5228 20 10C20 4.47715 15.5228 0 10 0C4.47715 0 0 4.47715 0 10C0 15.5228 4.47715 20 10 20Z" fill="white" />
<path d="M15.4148 6H14.9874H5.0126H4.58521C4.26301 6 4 6.2408 4 6.53579V13.7719C4 14.0669 4.26301 14.3077 4.58521 14.3077H15.4148C15.737 14.3077 16 14.0669 16 13.7719V6.53579C15.9934 6.2408 15.7304 6 15.4148 6ZM14.7901 6.60201L10.0033 10.4248L5.20986 6.60201H14.7901ZM4.66411 13.6997V6.96321L9.61534 10.9184C9.72712 11.0027 9.86521 11.0448 10.0033 11.0448C10.1414 11.0448 10.2729 11.0027 10.3847 10.9184L15.3359 6.96321V13.6997H4.66411Z" fill="#FD7400" stroke="#FD7400" stroke-width="0.5" />
</symbol><symbol viewBox="0 0 13 15" fill="none" id="ss-icons-notice">
<path fill="currentColor" fill-rule="evenodd" clip-rule="evenodd" d="M6.40839 0.0942383C5.36548 0.0942383 4.5169 0.942815 4.5169 1.98574V2.28392C2.72828 3.03515 1.46752 4.81845 1.46752 6.89356V9.66868L0.0777688 11.8305C-0.0190972 11.981 -0.0259289 12.1725 0.0598286 12.3295C0.145586 12.4865 0.31013 12.5844 0.489171 12.5844H4.16437C4.41875 13.5772 5.32097 14.3131 6.39189 14.3131H6.42449C7.49541 14.3131 8.39764 13.5772 8.65201 12.5844H12.3273C12.5064 12.5844 12.6709 12.4865 12.7565 12.3297C12.8424 12.1726 12.8356 11.9812 12.7387 11.8307L11.349 9.66868V6.89356C11.349 4.81865 10.0884 3.03551 8.30006 2.28414V1.98574C8.30006 0.942815 7.45134 0.0942383 6.40839 0.0942383ZM7.3217 1.98939V1.98574C7.3217 1.48219 6.91191 1.07259 6.40839 1.07259C5.90501 1.07259 5.49525 1.48222 5.49525 1.98574V1.9893C5.79122 1.93323 6.0964 1.90391 6.40824 1.90391C6.72025 1.90391 7.02559 1.93327 7.3217 1.98939ZM7.61561 12.5844H5.20078C5.41406 13.0279 5.86785 13.3347 6.39189 13.3347H6.42449C6.94855 13.3347 7.40234 13.0279 7.61561 12.5844ZM2.36809 10.0768L1.38515 11.606H11.4312L10.4482 10.0768C10.3975 9.99791 10.3706 9.9061 10.3706 9.81234V6.89356C10.3706 4.68183 8.59325 2.88229 6.40824 2.88229C4.2234 2.88229 2.44588 4.68181 2.44588 6.89356V9.81234C2.44588 9.9061 2.4188 9.99807 2.36809 10.0768Z" />
</symbol><symbol viewBox="-42 0 512 512.002" id="ss-icons-person">
    <path fill="currentColor" d="m210.351562 246.632812c33.882813 0 63.222657-12.152343 87.195313-36.128906 23.972656-23.972656 36.125-53.304687 36.125-87.191406 0-33.875-12.152344-63.210938-36.128906-87.191406-23.976563-23.96875-53.3125-36.121094-87.191407-36.121094-33.886718 0-63.21875 12.152344-87.191406 36.125s-36.128906 53.308594-36.128906 87.1875c0 33.886719 12.15625 63.222656 36.132812 87.195312 23.976563 23.96875 53.3125 36.125 87.1875 36.125zm0 0" />
    <path fill="currentColor" d="m426.128906 393.703125c-.691406-9.976563-2.089844-20.859375-4.148437-32.351563-2.078125-11.578124-4.753907-22.523437-7.957031-32.527343-3.308594-10.339844-7.808594-20.550781-13.371094-30.335938-5.773438-10.15625-12.554688-19-20.164063-26.277343-7.957031-7.613282-17.699219-13.734376-28.964843-18.199219-11.226563-4.441407-23.667969-6.691407-36.976563-6.691407-5.226563 0-10.28125 2.144532-20.042969 8.5-6.007812 3.917969-13.035156 8.449219-20.878906 13.460938-6.707031 4.273438-15.792969 8.277344-27.015625 11.902344-10.949219 3.542968-22.066406 5.339844-33.039063 5.339844-10.972656 0-22.085937-1.796876-33.046874-5.339844-11.210938-3.621094-20.296876-7.625-26.996094-11.898438-7.769532-4.964844-14.800782-9.496094-20.898438-13.46875-9.75-6.355468-14.808594-8.5-20.035156-8.5-13.3125 0-25.75 2.253906-36.972656 6.699219-11.257813 4.457031-21.003906 10.578125-28.96875 18.199219-7.605469 7.28125-14.390625 16.121094-20.15625 26.273437-5.558594 9.785157-10.058594 19.992188-13.371094 30.339844-3.199219 10.003906-5.875 20.945313-7.953125 32.523437-2.058594 11.476563-3.457031 22.363282-4.148437 32.363282-.679688 9.796875-1.023438 19.964844-1.023438 30.234375 0 26.726562 8.496094 48.363281 25.25 64.320312 16.546875 15.746094 38.441406 23.734375 65.066406 23.734375h246.53125c26.625 0 48.511719-7.984375 65.0625-23.734375 16.757813-15.945312 25.253906-37.585937 25.253906-64.324219-.003906-10.316406-.351562-20.492187-1.035156-30.242187zm0 0" />
</symbol><symbol viewBox="0 0 21 16" fill="none" id="ss-icons-pickup">
<path d="M13.5169 5.67867L7.57246 3.40501C7.50738 3.37975 7.46399 3.43027 7.46399 3.50606V12.9291C7.46399 12.9797 7.48568 13.0049 7.52907 13.0302L13.4735 15.3039C13.5169 15.3291 13.582 15.2786 13.582 15.2028V5.77973C13.5603 5.7292 13.5386 5.70394 13.5169 5.67867Z" fill="currentColor" />
<path d="M19.3522 2.52104L14.0586 0.5C14.0369 0.5 14.0152 0.5 14.0152 0.5L8.72158 2.52104C8.6348 2.5463 8.6348 2.67261 8.72158 2.69788L14.0152 4.71891C14.0369 4.71891 14.0586 4.71891 14.0586 4.71891L19.3522 2.69788C19.4173 2.69788 19.4173 2.57156 19.3522 2.52104Z" fill="currentColor" />
<path d="M20.5031 3.40501L14.5586 5.67867C14.5152 5.70394 14.4935 5.7292 14.4935 5.77973V15.2028C14.4935 15.2786 14.5586 15.3039 14.602 15.3039L20.5465 13.0302C20.5899 13.0049 20.6116 12.9797 20.6116 12.9291V3.50606C20.6116 3.43027 20.5465 3.37975 20.5031 3.40501Z" fill="currentColor" />
<path d="M4.88141 3.37891H0.607464C0.282037 3.37891 0 3.68206 0 4.08627C0 4.46521 0.260342 4.79363 0.607464 4.79363H4.88141C5.20683 4.79363 5.48887 4.49048 5.48887 4.08627C5.46718 3.70733 5.20683 3.37891 4.88141 3.37891Z" fill="currentColor" />
<path d="M4.88141 7.29492H0.607464C0.282037 7.29492 0 7.59808 0 8.00229C0 8.38123 0.260342 8.70965 0.607464 8.70965H4.88141C5.20683 8.70965 5.48887 8.40649 5.48887 8.00229C5.46718 7.62334 5.20683 7.29492 4.88141 7.29492Z" fill="currentColor" />
<path d="M4.88141 11.2363H0.607464C0.282037 11.2363 0 11.5395 0 11.9437C0 12.3479 0.260342 12.6511 0.607464 12.6511H4.88141C5.20683 12.6511 5.48887 12.3479 5.48887 11.9437C5.48887 11.5395 5.20683 11.2363 4.88141 11.2363Z" fill="currentColor" />
</symbol><symbol viewBox="0 0 17 16" fill="none" id="ss-icons-picture">
<path d="M13.7275 0.567627H2.62728C1.23617 0.567627 0.104492 1.69931 0.104492 3.09041V11.9202C0.104492 13.3113 1.23617 14.443 2.62728 14.443H8.6189C8.85947 14.443 9.07911 14.3061 9.18517 14.09C9.29111 13.8741 9.26499 13.6165 9.11766 13.4263L7.468 11.2943L12.0403 5.47844L14.9889 8.99605V10.0596C14.9889 10.408 15.2713 10.6903 15.6196 10.6903C15.968 10.6903 16.2503 10.408 16.2503 10.0596V3.09041C16.2503 1.69931 15.1186 0.567627 13.7275 0.567627V0.567627ZM12.508 4.0728C12.386 3.9272 12.205 3.84405 12.0148 3.84737C11.8247 3.85033 11.6462 3.93877 11.5288 4.0882L6.67199 10.2657L5.01814 8.12847C4.89865 7.974 4.71449 7.88371 4.51937 7.88371C4.51912 7.88371 4.51875 7.88371 4.51851 7.88371C4.32302 7.88395 4.13861 7.97486 4.01949 8.12983L2.63147 9.93421C2.4191 10.2104 2.47071 10.6063 2.74677 10.8187C3.02294 11.0312 3.41885 10.9794 3.63122 10.7034L4.52085 9.54692L7.33336 13.1816H2.62728C1.93179 13.1816 1.36589 12.6157 1.36589 11.9202V3.09041C1.36589 2.39492 1.93179 1.82902 2.62728 1.82902H13.7275C14.423 1.82902 14.9889 2.39492 14.9889 3.09041V7.03251L12.508 4.0728ZM4.51937 2.83813C3.47601 2.83813 2.62728 3.68687 2.62728 4.73022C2.62728 5.77358 3.47601 6.62231 4.51937 6.62231C5.56273 6.62231 6.41146 5.77358 6.41146 4.73022C6.41146 3.68687 5.56273 2.83813 4.51937 2.83813ZM4.51937 5.36092C4.17162 5.36092 3.88867 5.07797 3.88867 4.73022C3.88867 4.38248 4.17162 4.09953 4.51937 4.09953C4.86711 4.09953 5.15007 4.38248 5.15007 4.73022C5.15007 5.07797 4.86711 5.36092 4.51937 5.36092ZM16.2503 12.5824C16.2503 12.9308 15.968 13.2131 15.6196 13.2131H13.8852V14.9475C13.8852 15.2959 13.6029 15.5782 13.2545 15.5782C12.9062 15.5782 12.6238 15.2959 12.6238 14.9475V13.2131H10.8894C10.541 13.2131 10.2587 12.9308 10.2587 12.5824C10.2587 12.234 10.541 11.9517 10.8894 11.9517H12.6238V10.2173C12.6238 9.86892 12.9062 9.58659 13.2545 9.58659C13.6029 9.58659 13.8852 9.86892 13.8852 10.2173V11.9517H15.6196C15.968 11.9517 16.2503 12.234 16.2503 12.5824Z" fill="currentColor" />
</symbol><symbol viewBox="0 0 426.667 426.667" id="ss-icons-playlist">
		<g fill="currentColor">
			<rect x="0" y="64" width="256" height="42.667" />
			<rect x="0" y="149.333" width="256" height="42.667" />
			<rect x="0" y="234.667" width="170.667" height="42.667" />
			<polygon points="341.333,234.667 341.333,149.333 298.667,149.333 298.667,234.667 213.333,234.667 213.333,277.333
				298.667,277.333 298.667,362.667 341.333,362.667 341.333,277.333 426.667,277.333 426.667,234.667 			" />
		</g>
</symbol><symbol viewBox="0 0 24 24" fill="none" id="ss-icons-remove">
    <path stroke="currentColor" stroke-miterlimit="10" stroke-linecap="round" d="M6.5 10L8 18.5H16L17.5 10M5 7.50003H9M19 7.50003H9M9 7.50003C9 5 10.75 4 12 4C13.25 4 15 5 15 7.50001" />
</symbol><symbol viewBox="0 0 15 21" fill="none" id="ss-icons-repeat">
    <g stroke="currentColor">
        <path d="M12.3551 15.2358C13.1944 14.293 13.7409 13.1262 13.9281 11.878C14.1153 10.6297 13.935 9.3539 13.4092 8.2064C12.8834 7.05889 12.0349 6.0893 10.9672 5.41601C9.89952 4.74272 8.65892 4.39485 7.39684 4.41488" />
        <path d="M2.39148 6.895C1.65294 7.83373 1.18734 8.95781 1.0458 10.1438C0.904266 11.3298 1.09226 12.5319 1.58915 13.6181C2.08604 14.7043 2.8726 15.6325 3.86249 16.3009C4.85237 16.9694 6.0073 17.3521 7.20046 17.4072" />
        <path d="M10.8412 1.67086L7.15629 3.99061L9.47604 7.67552" />
        <path d="M3.68749 19.4641L7.56622 17.4853L5.58751 13.6066" />
    </g>
</symbol><symbol viewBox="0 0 18 18" fill="none" id="ss-icons-search">
<path fill-rule="evenodd" clip-rule="evenodd" d="M13.2452 10.5808C14.8473 7.89344 14.4917 4.36365 12.1783 2.05025C9.44459 -0.683417 5.01244 -0.683418 2.27877 2.05025C-0.454902 4.78392 -0.454902 9.21608 2.27877 11.9497C4.59217 14.2632 8.12196 14.6188 10.8094 13.0167L14.6141 16.8215C15.0046 17.212 15.6378 17.212 16.0283 16.8215L17.05 15.7998C17.4405 15.4093 17.4405 14.7761 17.05 14.3856L13.2452 10.5808ZM10.126 4.10225C11.7264 5.70259 11.7264 8.29725 10.126 9.89758C8.5257 11.4979 5.93104 11.4979 4.33071 9.89758C2.73037 8.29725 2.73037 5.70259 4.33071 4.10225C5.93104 2.50192 8.5257 2.50192 10.126 4.10225Z" fill="currentColor" />
</symbol><symbol viewBox="0 0 12 12" fill="none" id="ss-icons-search-new">
<path fill-rule="evenodd" clip-rule="evenodd" d="M2 5.5C2 3.567 3.567 2 5.5 2C7.433 2 9 3.567 9 5.5C9 7.433 7.433 9 5.5 9C3.567 9 2 7.433 2 5.5ZM5.5 0C2.46243 0 0 2.46243 0 5.5C0 8.53757 2.46243 11 5.5 11C6.6575 11 7.73148 10.6424 8.61752 10.0317L10.2929 11.7071C10.6834 12.0976 11.3166 12.0976 11.7071 11.7071C12.0976 11.3166 12.0976 10.6834 11.7071 10.2929L10.0317 8.61752C10.6424 7.73148 11 6.6575 11 5.5C11 2.46243 8.53757 0 5.5 0Z" fill="currentColor" />
</symbol><symbol viewBox="0 0 24 24" fill="none" id="ss-icons-share">
    <g stroke="#333333" stroke-miterlimit="10" stroke-linecap="round">
        <path d="M14 17.5L20.0004 12L14 6V9C10.3333 8.83333 3.99955 11 4 19.5" />
        <path d="M4 19.5C7 14.5 10 14 14 14" />
    </g>
</symbol><symbol viewBox="0 0 24 24" fill="none" id="ss-icons-shop-placement">
    <g stroke="#333333" stroke-miterlimit="10" stroke-linecap="round">
        <path d="M11.5 17.5L6.87001 10.01C5.15001 6.56 7.66001 2.5 11.51 2.5C15.37 2.5 17.87 6.56 16.15 10.01L11.5 17.5Z" />
        <path d="M11.5 9.5C12.6046 9.5 13.5 8.60457 13.5 7.5C13.5 6.39543 12.6046 5.5 11.5 5.5C10.3954 5.5 9.5 6.39543 9.5 7.5C9.5 8.60457 10.3954 9.5 11.5 9.5Z" />
        <path d="M18.5 14.74L18.5 20.5H4.49991L4.49995 14.74" />
        <path d="M7.5 14.5H3.5V10.5H4.80779" />
        <path d="M15.5 14.5H19.5V10.5H18" />
    </g>
</symbol><symbol viewBox="0 0 15 14" fill="none" id="ss-icons-star">
<path fill="currentColor" d="M7.5 0L9.61603 4.58754L14.6329 5.18237L10.9238 8.61246L11.9084 13.5676L7.5 11.1L3.09161 13.5676L4.0762 8.61246L0.367076 5.18237L5.38397 4.58754L7.5 0Z" />
</symbol><symbol viewBox="0 0 25 25" fill="none" id="ss-icons-telegram">
<path d="M12.5 25C19.4036 25 25 19.4036 25 12.5C25 5.59644 19.4036 0 12.5 0C5.59644 0 0 5.59644 0 12.5C0 19.4036 5.59644 25 12.5 25Z" fill="#039BE5" />
<path d="M5.71979 12.2291L17.7719 7.58226C18.3312 7.38018 18.8198 7.71872 18.6385 8.56456L18.6396 8.56351L16.5875 18.2312C16.4354 18.9166 16.0281 19.0833 15.4583 18.7604L12.3333 16.4573L10.826 17.9093C10.6594 18.076 10.5187 18.2166 10.1958 18.2166L10.4177 15.0364L16.2094 9.80414C16.4615 9.58226 16.1531 9.45726 15.8208 9.6781L8.66354 14.1843L5.57812 13.2218C4.90833 13.0093 4.89375 12.5521 5.71979 12.2291Z" fill="white" />
</symbol><symbol viewBox="0 0 20 20" fill="none" id="ss-icons-telegram-reverse">
<path d="M10 20C15.5228 20 20 15.5228 20 10C20 4.47715 15.5228 0 10 0C4.47715 0 0 4.47715 0 10C0 15.5228 4.47715 20 10 20Z" fill="white" />
<path d="M4.57654 9.7832L14.2182 6.0657C14.6657 5.90403 15.0565 6.17487 14.9115 6.85153L14.9124 6.8507L13.2707 14.5849C13.149 15.1332 12.8232 15.2665 12.3674 15.0082L9.86737 13.1657L8.66154 14.3274C8.52821 14.4607 8.41571 14.5732 8.15737 14.5732L8.33487 12.029L12.9682 7.8432C13.1699 7.6657 12.9232 7.5657 12.6574 7.74237L6.93154 11.3474L4.46321 10.5774C3.92737 10.4074 3.91571 10.0415 4.57654 9.7832Z" fill="#039BE5" />
</symbol><symbol viewBox="0 0 14 14" fill="none" id="ss-icons-unavailable">
  <g fill="currentColor">
    <path d="M4.35355 3.64645C4.15829 3.45118 3.84171 3.45118 3.64645 3.64645C3.45118 3.84171 3.45118 4.15829 3.64645 4.35355L4.35355 3.64645ZM9.64645 10.3536C9.84171 10.5488 10.1583 10.5488 10.3536 10.3536C10.5488 10.1583 10.5488 9.84171 10.3536 9.64645L9.64645 10.3536ZM3.64645 4.35355L9.64645 10.3536L10.3536 9.64645L4.35355 3.64645L3.64645 4.35355Z" />
    <path d="M10.3536 4.35355C10.5488 4.15829 10.5488 3.84171 10.3536 3.64645C10.1583 3.45118 9.84171 3.45118 9.64645 3.64645L10.3536 4.35355ZM3.64645 9.64645C3.45119 9.84171 3.45119 10.1583 3.64645 10.3536C3.84171 10.5488 4.15829 10.5488 4.35355 10.3536L3.64645 9.64645ZM9.64645 3.64645L3.64645 9.64645L4.35355 10.3536L10.3536 4.35355L9.64645 3.64645Z" />
  </g>
  <circle cx="7" cy="7" r="6" stroke="currentColor" />
</symbol><symbol viewBox="0 0 14 18" fill="none" id="ss-icons-user">
<path d="M11.9754 17.4216H2.76729C1.1797 17.4216 0.284462 15.873 0.544618 14.3665C0.98976 11.7887 2.84065 10.1987 5.2748 9.38921C5.56828 9.28588 5.77544 9.02754 5.77544 8.71754V8.64865C5.77544 8.3731 5.62007 8.13199 5.37838 8.01143C3.9973 7.30531 3.06508 5.89308 3.06508 4.23974C3.06508 1.93195 4.84321 0.089165 7.13925 0.0030534C8.07147 -0.0313912 8.91738 0.226944 9.64244 0.709168C9.69423 0.726391 10.8391 1.26645 11.9754 1.26645C11.7917 1.89999 11.6227 2.42221 11.3404 2.85029C11.6339 3.41862 11.5242 3.55085 11.5242 4.23974C11.5242 5.89308 10.5747 7.32254 9.19359 8.01143C8.95191 8.13199 8.8138 8.39032 8.8138 8.66588C8.8138 8.97588 9.02096 9.25144 9.3317 9.35477C11.8522 10.147 13.2542 11.7198 13.8806 14.3665C14.228 15.8345 13.2456 17.4216 11.9754 17.4216Z" fill="currentColor" />
</symbol><symbol viewBox="0 0 25 27" fill="none" id="ss-icons-viber">
<g clip-path="url(#ss-icons-viber_clip0)">
<path d="M15 0H10C5.17578 0 1.25 4.11272 1.25 9.16667V13.0952C1.25 16.6453 3.20312 19.8628 6.25 21.3821V25.7557C6.25 26.1342 6.7041 26.3337 6.96289 26.0626L10.5908 22.2619H15C19.8242 22.2619 23.75 18.1492 23.75 13.0952V9.16667C23.75 4.11272 19.8242 0 15 0Z" fill="#665CAC" />
<path d="M18.7939 16.2717L18.418 14.1438C18.3887 13.9698 18.2568 13.8317 18.0908 13.7959L15.1465 13.177C15.0098 13.1463 14.8682 13.1923 14.7705 13.2946L13.5742 14.5479C11.5576 13.6015 10.4395 12.425 9.45312 10.2203L10.6445 8.97216C10.7422 8.86985 10.7861 8.72151 10.7568 8.57828L10.166 5.49374C10.1318 5.31982 10 5.1817 9.83398 5.15101L7.80273 4.75713C7.74902 4.7469 7.69043 4.7469 7.63672 4.76225C7.09961 4.89013 6.61133 5.17147 6.2207 5.5807C5.54688 6.28661 5.28809 7.31479 5.47363 8.55782C5.78613 10.6449 6.76269 13.5504 8.56445 15.4431L8.58887 15.4686C10.3955 17.3562 13.1689 18.3792 15.1611 18.7066C15.4102 18.7476 15.6543 18.768 15.8838 18.768C16.748 18.768 17.4707 18.4816 18.0029 17.924C18.3936 17.5148 18.6621 17.0032 18.7842 16.4405C18.7988 16.3894 18.8037 16.328 18.7939 16.2717Z" fill="white" />
<path d="M13.3349 7.42236C13.1054 7.42236 12.9199 7.61675 12.9199 7.85717C12.9199 8.09759 13.1054 8.29197 13.3349 8.29197C14.2529 8.29197 15 9.07461 15 10.0363C15 10.2716 15.1904 10.4711 15.415 10.4711C15.6396 10.4711 15.83 10.2716 15.83 10.0363C15.8349 8.59889 14.7119 7.42236 13.3349 7.42236Z" fill="white" />
<path d="M13.335 5.67285C13.1787 5.67285 13.0273 5.68308 12.8711 5.69843C12.6416 5.724 12.4756 5.93885 12.5049 6.17927C12.5342 6.41969 12.7344 6.59361 12.9639 6.56292C13.0859 6.54757 13.2129 6.54246 13.335 6.54246C15.1709 6.54246 16.6699 8.10775 16.6699 10.0362C16.6699 10.1641 16.665 10.2971 16.6504 10.425C16.626 10.6603 16.792 10.8803 17.0166 10.9058C17.2412 10.9314 17.4512 10.7575 17.4756 10.5222C17.4902 10.3636 17.5 10.1999 17.5 10.0362C17.5 7.63202 15.6299 5.67285 13.335 5.67285Z" fill="white" />
<path d="M13.335 3.92871C13.1885 3.92871 13.0371 3.93383 12.8857 3.94406C12.6562 3.96452 12.4853 4.17425 12.5 4.41467C12.5195 4.65509 12.7197 4.83412 12.9492 4.81878C13.0762 4.80855 13.208 4.80343 13.335 4.80343C16.0937 4.80343 18.335 7.15137 18.335 10.0415C18.335 10.4508 18.291 10.8549 18.2031 11.2487C18.1543 11.4738 18.2861 11.7091 18.4961 11.7705C18.7207 11.837 18.9599 11.6887 19.0137 11.4482C19.1162 10.9879 19.1699 10.5121 19.1699 10.0364C19.1699 6.67053 16.5527 3.92871 13.335 3.92871Z" fill="white" />
</g>
<defs>

</defs>
</symbol><clipPath id="ss-icons-viber_clip0">
<rect width="25" height="26.1905" fill="white" />
</clipPath><symbol viewBox="0 0 25 25" fill="none" id="ss-icons-whatsapp">
<path d="M12.5031 0H12.4969C5.60469 0 0 5.60625 0 12.5C0 15.2344 0.88125 17.7687 2.37969 19.8266L0.821875 24.4703L5.62656 22.9344C7.60313 24.2438 9.96094 25 12.5031 25C19.3953 25 25 19.3922 25 12.5C25 5.60781 19.3953 0 12.5031 0Z" fill="#4CAF50" />
<path d="M19.7766 17.6517C19.475 18.5032 18.2781 19.2095 17.3235 19.4157C16.6703 19.5548 15.8172 19.6657 12.9453 18.4751C9.27189 16.9532 6.90627 13.2204 6.72189 12.9782C6.54533 12.736 5.23752 11.0017 5.23752 9.20791C5.23752 7.41416 6.14846 6.54072 6.51564 6.16572C6.81721 5.85791 7.31564 5.71729 7.79377 5.71729C7.94846 5.71729 8.08752 5.7251 8.21252 5.73135C8.57971 5.74697 8.76408 5.76885 9.00627 6.34854C9.30783 7.0751 10.0422 8.86885 10.1297 9.05322C10.2188 9.2376 10.3078 9.4876 10.1828 9.72978C10.0656 9.97978 9.96252 10.0907 9.77814 10.3032C9.59377 10.5157 9.41877 10.6782 9.23439 10.9063C9.06564 11.1048 8.87502 11.3173 9.08752 11.6845C9.30002 12.0438 10.0344 13.2423 11.1156 14.2048C12.511 15.447 13.6422 15.8438 14.0469 16.0126C14.3485 16.1376 14.7078 16.1079 14.9281 15.8735C15.2078 15.572 15.5531 15.072 15.9047 14.5798C16.1547 14.2267 16.4703 14.1829 16.8016 14.3079C17.1391 14.4251 18.925 15.3079 19.2922 15.4907C19.6594 15.6751 19.9016 15.7626 19.9906 15.9173C20.0781 16.072 20.0781 16.7985 19.7766 17.6517Z" fill="#FAFAFA" />
</symbol><symbol viewBox="0 0 24 24" fill="none" id="ss-icons-whatsapp-reverse">
<path d="M12.003 0H11.997C5.3805 0 0 5.382 0 12C0 14.625 0.846 17.058 2.2845 19.0335L0.789 23.4915L5.4015 22.017C7.299 23.274 9.5625 24 12.003 24C18.6195 24 24 18.6165 24 12C24 5.3835 18.6195 0 12.003 0Z" fill="white" />
<path d="M18.9853 16.9456C18.6958 17.7631 17.5468 18.4411 16.6303 18.6391C16.0033 18.7726 15.1843 18.8791 12.4273 17.7361C8.90083 16.2751 6.62983 12.6916 6.45283 12.4591C6.28333 12.2266 5.02783 10.5616 5.02783 8.83959C5.02783 7.11759 5.90233 6.27909 6.25483 5.91909C6.54433 5.62359 7.02283 5.48859 7.48183 5.48859C7.63033 5.48859 7.76383 5.49609 7.88383 5.50209C8.23633 5.51709 8.41333 5.53809 8.64583 6.09459C8.93533 6.79209 9.64033 8.51409 9.72433 8.69109C9.80983 8.86809 9.89533 9.10809 9.77533 9.34059C9.66283 9.58059 9.56383 9.68709 9.38683 9.89109C9.20983 10.0951 9.04183 10.2511 8.86483 10.4701C8.70283 10.6606 8.51983 10.8646 8.72383 11.2171C8.92783 11.5621 9.63283 12.7126 10.6708 13.6366C12.0103 14.8291 13.0963 15.2101 13.4848 15.3721C13.7743 15.4921 14.1193 15.4636 14.3308 15.2386C14.5993 14.9491 14.9308 14.4691 15.2683 13.9966C15.5083 13.6576 15.8113 13.6156 16.1293 13.7356C16.4533 13.8481 18.1678 14.6956 18.5203 14.8711C18.8728 15.0481 19.1053 15.1321 19.1908 15.2806C19.2748 15.4291 19.2748 16.1266 18.9853 16.9456Z" fill="#4CAF50" />
</symbol></defs><use id="ss-icons-arrow-down-usage" xlink:href="#ss-icons-arrow-down" class="sprite-symbol-usage" /><use id="ss-icons-arrow-left-usage" xlink:href="#ss-icons-arrow-left" class="sprite-symbol-usage" /><use id="ss-icons-arrow-right-usage" xlink:href="#ss-icons-arrow-right" class="sprite-symbol-usage" /><use id="ss-icons-arrow-up-usage" xlink:href="#ss-icons-arrow-up" class="sprite-symbol-usage" /><use id="ss-icons-calendar-usage" xlink:href="#ss-icons-calendar" class="sprite-symbol-usage" /><use id="ss-icons-calendar-check-usage" xlink:href="#ss-icons-calendar-check" class="sprite-symbol-usage" /><use id="ss-icons-cart-usage" xlink:href="#ss-icons-cart" class="sprite-symbol-usage" /><use id="ss-icons-cart-new-usage" xlink:href="#ss-icons-cart-new" class="sprite-symbol-usage" /><use id="ss-icons-chat-usage" xlink:href="#ss-icons-chat" class="sprite-symbol-usage" /><use id="ss-icons-chat-mobile-usage" xlink:href="#ss-icons-chat-mobile" class="sprite-symbol-usage" /><use id="ss-icons-chat-mobile-reverse-usage" xlink:href="#ss-icons-chat-mobile-reverse" class="sprite-symbol-usage" /><use id="ss-icons-chat-white-usage" xlink:href="#ss-icons-chat-white" class="sprite-symbol-usage" /><use id="ss-icons-check-round-usage" xlink:href="#ss-icons-check-round" class="sprite-symbol-usage" /><use id="ss-icons-chevron-left-usage" xlink:href="#ss-icons-chevron-left" class="sprite-symbol-usage" /><use id="ss-icons-chevron-right-usage" xlink:href="#ss-icons-chevron-right" class="sprite-symbol-usage" /><use id="ss-icons-chevron-right-circle-usage" xlink:href="#ss-icons-chevron-right-circle" class="sprite-symbol-usage" /><use id="ss-icons-chevron-up-usage" xlink:href="#ss-icons-chevron-up" class="sprite-symbol-usage" /><use id="ss-icons-clock-usage" xlink:href="#ss-icons-clock" class="sprite-symbol-usage" /><use id="ss-icons-close-usage" xlink:href="#ss-icons-close" class="sprite-symbol-usage" /><use id="ss-icons-compare-usage" xlink:href="#ss-icons-compare" class="sprite-symbol-usage" /><use id="ss-icons-cross-usage" xlink:href="#ss-icons-cross" class="sprite-symbol-usage" /><use id="ss-icons-delivery-usage" xlink:href="#ss-icons-delivery" class="sprite-symbol-usage" /><use id="ss-icons-edit-usage" xlink:href="#ss-icons-edit" class="sprite-symbol-usage" /><use id="ss-icons-expand-usage" xlink:href="#ss-icons-expand" class="sprite-symbol-usage" /><use id="ss-icons-faq-usage" xlink:href="#ss-icons-faq" class="sprite-symbol-usage" /><use id="ss-icons-gift-usage" xlink:href="#ss-icons-gift" class="sprite-symbol-usage" /><use id="ss-icons-grid-view-usage" xlink:href="#ss-icons-grid-view" class="sprite-symbol-usage" /><use id="ss-icons-heart-usage" xlink:href="#ss-icons-heart" class="sprite-symbol-usage" /><use id="ss-icons-list-view-usage" xlink:href="#ss-icons-list-view" class="sprite-symbol-usage" /><use id="ss-icons-live-usage" xlink:href="#ss-icons-live" class="sprite-symbol-usage" /><use id="ss-icons-location-usage" xlink:href="#ss-icons-location" class="sprite-symbol-usage" /><use id="ss-icons-location-new-usage" xlink:href="#ss-icons-location-new" class="sprite-symbol-usage" /><use id="ss-icons-logout-usage" xlink:href="#ss-icons-logout" class="sprite-symbol-usage" /><use id="ss-icons-mail-usage" xlink:href="#ss-icons-mail" class="sprite-symbol-usage" /><use id="ss-icons-mail-mobile-usage" xlink:href="#ss-icons-mail-mobile" class="sprite-symbol-usage" /><use id="ss-icons-mail-mobile-reverse-usage" xlink:href="#ss-icons-mail-mobile-reverse" class="sprite-symbol-usage" /><use id="ss-icons-notice-usage" xlink:href="#ss-icons-notice" class="sprite-symbol-usage" /><use id="ss-icons-person-usage" xlink:href="#ss-icons-person" class="sprite-symbol-usage" /><use id="ss-icons-pickup-usage" xlink:href="#ss-icons-pickup" class="sprite-symbol-usage" /><use id="ss-icons-picture-usage" xlink:href="#ss-icons-picture" class="sprite-symbol-usage" /><use id="ss-icons-playlist-usage" xlink:href="#ss-icons-playlist" class="sprite-symbol-usage" /><use id="ss-icons-remove-usage" xlink:href="#ss-icons-remove" class="sprite-symbol-usage" /><use id="ss-icons-repeat-usage" xlink:href="#ss-icons-repeat" class="sprite-symbol-usage" /><use id="ss-icons-search-usage" xlink:href="#ss-icons-search" class="sprite-symbol-usage" /><use id="ss-icons-search-new-usage" xlink:href="#ss-icons-search-new" class="sprite-symbol-usage" /><use id="ss-icons-share-usage" xlink:href="#ss-icons-share" class="sprite-symbol-usage" /><use id="ss-icons-shop-placement-usage" xlink:href="#ss-icons-shop-placement" class="sprite-symbol-usage" /><use id="ss-icons-star-usage" xlink:href="#ss-icons-star" class="sprite-symbol-usage" /><use id="ss-icons-telegram-usage" xlink:href="#ss-icons-telegram" class="sprite-symbol-usage" /><use id="ss-icons-telegram-reverse-usage" xlink:href="#ss-icons-telegram-reverse" class="sprite-symbol-usage" /><use id="ss-icons-unavailable-usage" xlink:href="#ss-icons-unavailable" class="sprite-symbol-usage" /><use id="ss-icons-user-usage" xlink:href="#ss-icons-user" class="sprite-symbol-usage" /><use id="ss-icons-viber-usage" xlink:href="#ss-icons-viber" class="sprite-symbol-usage" /><use id="ss-icons-whatsapp-usage" xlink:href="#ss-icons-whatsapp" class="sprite-symbol-usage" /><use id="ss-icons-whatsapp-reverse-usage" xlink:href="#ss-icons-whatsapp-reverse" class="sprite-symbol-usage" /></svg>