<svg width="238" height="22" viewBox="0 0 238 22" fill="none" xmlns="http://www.w3.org/2000/svg">
<path d="M89.3438 10.5013L104.252 21L119.16 10.5013" stroke="#0C7373" stroke-width="2" stroke-miterlimit="10" stroke-linecap="round" stroke-linejoin="round"/>
<path d="M29.7638 10.4488L44.6719 20.9475L59.5801 10.4488L74.4882 20.9475" stroke="#0C7373" stroke-width="2" stroke-miterlimit="10" stroke-linecap="round" stroke-linejoin="round"/>
<path d="M0 10.4488L14.9081 20.9475" stroke="#0C7373" stroke-width="2" stroke-miterlimit="10" stroke-linecap="round" stroke-linejoin="round"/>
<path d="M74.4882 11.4987L89.3439 1.05249L104.252 11.5512L119.16 1.05249" stroke="black" stroke-width="2" stroke-miterlimit="10" stroke-linecap="round" stroke-linejoin="round"/>
<path d="M0 1L14.9081 11.4987L29.8163 1L44.6719 11.4987L59.5801 1" stroke="#FFAF00" stroke-width="2" stroke-miterlimit="10" stroke-linecap="round" stroke-linejoin="round"/>
<path d="M147.656 11.4987L132.748 1.00003L117.84 11.4987" stroke="#0C7373" stroke-width="2" stroke-miterlimit="10" stroke-linecap="round" stroke-linejoin="round"/>
<path d="M207.236 11.5512L192.328 1.05252L177.42 11.5512L162.512 1.05252" stroke="#0C7373" stroke-width="2" stroke-miterlimit="10" stroke-linecap="round" stroke-linejoin="round"/>
<path d="M237 11.5512L222.092 1.05252" stroke="#0C7373" stroke-width="2" stroke-miterlimit="10" stroke-linecap="round" stroke-linejoin="round"/>
<path d="M162.512 10.5013L147.656 20.9475L132.748 10.4488L117.84 20.9475" stroke="#FFAF00" stroke-width="2" stroke-miterlimit="10" stroke-linecap="round" stroke-linejoin="round"/>
<path d="M237 21L222.092 10.5013L207.184 21L192.328 10.5013L177.42 21" stroke="black" stroke-width="2" stroke-miterlimit="10" stroke-linecap="round" stroke-linejoin="round"/>
</svg>
