<svg width="95" height="98" viewBox="0 0 95 98" fill="none" xmlns="http://www.w3.org/2000/svg">
<path d="M58.933 37.7316C59.8071 36.7846 61.3369 36.6389 62.2839 37.5131C63.2309 38.3872 63.3766 39.917 62.5024 40.864C61.6283 41.811 60.0985 41.9566 59.1515 41.0825C58.1317 40.2084 58.0588 38.7514 58.933 37.7316Z" fill="#FBB921"/>
<path d="M48.516 28.5531C49.3901 27.6061 50.9199 27.4605 51.8669 28.3346C52.8867 29.2087 52.9596 30.6657 52.0854 31.6855C51.2113 32.6325 49.6815 32.7782 48.7345 31.904C47.7875 31.0299 47.6419 29.5001 48.516 28.5531Z" fill="#0C7373"/>
<path d="M27.7551 10.0505C28.6293 9.10346 30.159 8.95777 31.106 9.83192C32.053 10.7061 32.1987 12.2358 31.3246 13.1828C30.4504 14.1298 28.9207 14.2755 27.9737 13.4014C26.9538 12.5272 26.881 10.9974 27.7551 10.0505Z" fill="#FBB921"/>
<path d="M17.4109 0.798989C18.285 -0.148003 19.8148 -0.293696 20.7618 0.580451C21.7088 1.4546 21.8545 2.98436 20.9803 3.93135C20.1062 4.87834 18.5764 5.02403 17.6294 4.14988C16.6096 3.27574 16.5367 1.81883 17.4109 0.798989Z" fill="#0C7373"/>
<path d="M40.1387 37.9504C41.0128 37.0034 42.5426 36.8577 43.4896 37.7318C44.4366 38.606 44.5823 40.1357 43.7081 41.0827C42.834 42.0297 41.3042 42.1754 40.3572 41.3013C39.3374 40.4271 39.2645 38.8973 40.1387 37.9504Z" fill="#FBB921"/>
<path d="M29.7947 28.6988C30.6688 27.7518 32.1986 27.6061 33.1456 28.4802C34.0926 29.3544 34.2383 30.8841 33.3641 31.8311C32.49 32.7781 30.9602 32.9238 30.0132 32.0497C28.9934 31.1755 28.9205 29.7186 29.7947 28.6988Z" fill="#FBB921"/>
<path d="M19.3779 19.4475C20.252 18.5006 21.7818 18.3549 22.7288 19.229C23.6758 20.1032 23.8215 21.6329 22.9473 22.5799C22.0732 23.5269 20.5434 23.6726 19.5964 22.7984C18.6494 21.9243 18.5037 20.4674 19.3779 19.4475Z" fill="#0C7373"/>
<path d="M31.7615 47.3473C32.6357 46.4003 34.1654 46.2546 35.1124 47.1288C36.0594 48.0029 36.2051 49.5327 35.331 50.4797C34.4568 51.4267 32.9271 51.5724 31.9801 50.6982C30.9602 49.8969 30.8874 48.3672 31.7615 47.3473Z" fill="#0C7373"/>
<path d="M21.4174 38.1687C22.2916 37.1489 23.7485 37.0761 24.7683 37.9502C25.7153 38.8244 25.861 40.3541 24.9869 41.3011C24.1127 42.2481 22.583 42.3938 21.636 41.5196C20.6161 40.6455 20.5433 39.1157 21.4174 38.1687Z" fill="#FBB921"/>
<path d="M11.0003 28.9174C11.8745 27.9704 13.4042 27.8247 14.3512 28.6989C15.2982 29.573 15.4439 31.1028 14.5697 32.0498C13.6956 32.9967 12.1658 33.1424 11.2189 32.2683C10.199 31.3941 10.1262 29.8644 11.0003 28.9174Z" fill="#FBB921"/>
<path d="M0.583624 19.6659C1.45777 18.7189 2.98753 18.5732 3.93452 19.4474C4.88152 20.3215 5.0272 21.8513 4.15306 22.7983C3.27891 23.7453 1.74916 23.891 0.802163 23.0168C-0.144829 22.1427 -0.290523 20.6129 0.583624 19.6659Z" fill="#FBB921"/>
<path d="M33.8013 66.0686C34.6754 65.0488 36.1323 64.976 37.1522 65.8501C38.0992 66.7243 38.2449 68.254 37.3707 69.201C36.4966 70.148 34.9668 70.2937 34.0198 69.4195C33 68.5454 32.9271 67.0156 33.8013 66.0686Z" fill="#0C7373"/>
<path d="M12.9674 47.5657C13.8415 46.6187 15.3713 46.473 16.3183 47.3472C17.2652 48.2213 17.4109 49.7511 16.5368 50.6981C15.6626 51.6451 14.1329 51.7908 13.1859 50.9166C12.2389 50.0425 12.0932 48.5856 12.9674 47.5657Z" fill="#FBB921"/>
<path d="M2.62342 38.3145C3.49757 37.3675 5.02732 37.2218 5.97432 38.096C6.92131 38.9701 7.067 40.4999 6.19286 41.4469C5.31871 42.3938 3.78895 42.5395 2.84196 41.6654C1.82212 40.7912 1.74927 39.3343 2.62342 38.3145Z" fill="#0C7373"/>
<path d="M89.933 65.7316C90.8071 64.7846 92.3369 64.6389 93.2839 65.5131C94.2309 66.3872 94.3766 67.917 93.5024 68.864C92.6283 69.811 91.0985 69.9566 90.1515 69.0825C89.1317 68.2084 89.0588 66.7514 89.933 65.7316Z" fill="#FBB921"/>
<path d="M79.516 56.5531C80.3901 55.6061 81.9199 55.4605 82.8669 56.3346C83.8867 57.2087 83.9596 58.6657 83.0854 59.6855C82.2113 60.6325 80.6815 60.7782 79.7345 59.904C78.7875 59.0299 78.6419 57.5001 79.516 56.5531Z" fill="#0C7373"/>
<path d="M58.7551 38.0505C59.6293 37.1035 61.159 36.9578 62.106 37.8319C63.053 38.7061 63.1987 40.2358 62.3246 41.1828C61.4504 42.1298 59.9207 42.2755 58.9737 41.4014C57.9538 40.5272 57.881 38.9974 58.7551 38.0505Z" fill="#FBB921"/>
<path d="M48.4109 28.799C49.285 27.852 50.8148 27.7063 51.7618 28.5805C52.7088 29.4546 52.8545 30.9844 51.9803 31.9314C51.1062 32.8783 49.5764 33.024 48.6294 32.1499C47.6096 31.2757 47.5367 29.8188 48.4109 28.799Z" fill="#0C7373"/>
<path d="M71.1387 65.9504C72.0128 65.0034 73.5426 64.8577 74.4896 65.7318C75.4366 66.606 75.5823 68.1357 74.7081 69.0827C73.834 70.0297 72.3042 70.1754 71.3572 69.3013C70.3374 68.4271 70.2645 66.8973 71.1387 65.9504Z" fill="#FBB921"/>
<path d="M60.7947 56.6988C61.6688 55.7518 63.1986 55.6061 64.1456 56.4802C65.0926 57.3544 65.2383 58.8841 64.3641 59.8311C63.49 60.7781 61.9602 60.9238 61.0132 60.0497C59.9934 59.1755 59.9205 57.7186 60.7947 56.6988Z" fill="#FBB921"/>
<path d="M50.3779 47.4475C51.252 46.5006 52.7818 46.3549 53.7288 47.229C54.6758 48.1032 54.8215 49.6329 53.9473 50.5799C53.0732 51.5269 51.5434 51.6726 50.5964 50.7984C49.6494 49.9243 49.5037 48.4674 50.3779 47.4475Z" fill="#0C7373"/>
<path d="M62.7615 75.3473C63.6357 74.4003 65.1654 74.2546 66.1124 75.1288C67.0594 76.0029 67.2051 77.5327 66.331 78.4797C65.4568 79.4267 63.9271 79.5724 62.9801 78.6982C61.9602 77.8969 61.8874 76.3672 62.7615 75.3473Z" fill="#0C7373"/>
<path d="M52.4174 66.1687C53.2916 65.1489 54.7485 65.0761 55.7683 65.9502C56.7153 66.8244 56.861 68.3541 55.9869 69.3011C55.1127 70.2481 53.583 70.3938 52.636 69.5196C51.6161 68.6455 51.5433 67.1157 52.4174 66.1687Z" fill="#FBB921"/>
<path d="M42.0003 56.9174C42.8745 55.9704 44.4042 55.8247 45.3512 56.6989C46.2982 57.573 46.4439 59.1028 45.5697 60.0498C44.6956 60.9967 43.1658 61.1424 42.2189 60.2683C41.199 59.3941 41.1262 57.8644 42.0003 56.9174Z" fill="#FBB921"/>
<path d="M31.5836 47.6659C32.4578 46.7189 33.9875 46.5732 34.9345 47.4474C35.8815 48.3215 36.0272 49.8513 35.1531 50.7983C34.2789 51.7453 32.7492 51.891 31.8022 51.0168C30.8552 50.1427 30.7095 48.6129 31.5836 47.6659Z" fill="#FBB921"/>
<path d="M64.8013 94.0686C65.6754 93.0488 67.1323 92.976 68.1522 93.8501C69.0992 94.7243 69.2449 96.254 68.3707 97.201C67.4966 98.148 65.9668 98.2937 65.0198 97.4195C64 96.5454 63.9271 95.0156 64.8013 94.0686Z" fill="#0C7373"/>
<path d="M43.9674 75.5657C44.8415 74.6187 46.3713 74.473 47.3183 75.3472C48.2652 76.2213 48.4109 77.7511 47.5368 78.6981C46.6626 79.6451 45.1329 79.7908 44.1859 78.9166C43.2389 78.0425 43.0932 76.5856 43.9674 75.5657Z" fill="#FBB921"/>
<path d="M33.6234 66.3145C34.4976 65.3675 36.0273 65.2218 36.9743 66.096C37.9213 66.9701 38.067 68.4999 37.1929 69.4469C36.3187 70.3938 34.789 70.5395 33.842 69.6654C32.8221 68.7912 32.7493 67.3343 33.6234 66.3145Z" fill="#0C7373"/>
</svg>
