<svg width="20" height="21" viewBox="0 0 20 21" fill="none" xmlns="http://www.w3.org/2000/svg">
<rect x="0.000244141" y="0.5" width="20" height="20" fill="white"/>
<path fill-rule="evenodd" clip-rule="evenodd" d="M15.0002 4.5H5.00024H4.00024V5.5V6.5V7.5H5.00024H15.0002H16.0002V6.5V5.5V4.5H15.0002ZM15.0002 5.5H5.00024V6.5H15.0002V5.5Z" fill="#8A8A8A"/>
<path fill-rule="evenodd" clip-rule="evenodd" d="M16.0002 9H4.00024V9.5V10V11V11.5V12H16.0002V11.5V11V10V9.5V9ZM15.0002 10H5.00024V11H15.0002V10Z" fill="#8A8A8A"/>
<path fill-rule="evenodd" clip-rule="evenodd" d="M15.0002 13.5H5.00024H4.00024V14.5V15.5V16.5H5.00024H15.0002H16.0002V15.5V14.5V13.5H15.0002ZM15.0002 14.5H5.00024V15.5H15.0002V14.5Z" fill="#8A8A8A"/>
</svg>
