<svg width="95" height="98" fill="none" xmlns="http://www.w3.org/2000/svg"><path d="M58.933 37.732c.874-.947 2.404-1.093 3.35-.219.948.874 1.094 2.404.22 3.351-.875.947-2.404 1.093-3.352.219-1.02-.875-1.092-2.332-.218-3.351z" fill="#FBB921"/><path d="M48.516 28.553c.874-.947 2.404-1.093 3.35-.218 1.02.874 1.094 2.33.22 3.35-.875.948-2.404 1.093-3.352.219-.947-.874-1.092-2.404-.218-3.35z" fill="#0C7373"/><path d="M27.755 10.05c.874-.947 2.404-1.092 3.351-.218.947.874 1.093 2.404.219 3.35-.875.948-2.404 1.093-3.351.22-1.02-.875-1.093-2.405-.219-3.351z" fill="#FBB921"/><path d="M17.41.799c.875-.947 2.405-1.093 3.352-.219.947.875 1.093 2.404.218 3.351-.874.947-2.404 1.093-3.35.219-1.02-.874-1.093-2.331-.22-3.351z" fill="#0C7373"/><path d="M40.139 37.95c.874-.947 2.404-1.092 3.35-.218.948.874 1.093 2.404.22 3.35-.875.948-2.405 1.093-3.352.22-1.02-.875-1.093-2.405-.218-3.352zm-10.344-9.251c.874-.947 2.404-1.093 3.35-.219.948.874 1.093 2.404.22 3.351-.875.947-2.405 1.093-3.352.219-1.02-.874-1.093-2.331-.218-3.351z" fill="#FBB921"/><path d="M19.378 19.448c.874-.947 2.404-1.093 3.35-.219.948.874 1.093 2.404.22 3.35-.875.948-2.405 1.094-3.352.22-.947-.875-1.092-2.332-.218-3.351zm12.384 27.899c.874-.947 2.403-1.092 3.35-.218.947.874 1.093 2.404.219 3.35-.874.948-2.404 1.093-3.35.22-1.02-.802-1.094-2.332-.22-3.352z" fill="#0C7373"/><path d="M21.417 38.169c.875-1.02 2.331-1.093 3.351-.219.947.874 1.093 2.404.219 3.351-.874.947-2.404 1.093-3.351.219-1.02-.875-1.093-2.404-.219-3.351zM11 28.917c.874-.947 2.404-1.092 3.351-.218.947.874 1.093 2.404.219 3.35-.874.948-2.404 1.093-3.351.22-1.02-.875-1.093-2.405-.219-3.352zM.584 19.666c.874-.947 2.404-1.093 3.35-.219.948.875 1.093 2.404.22 3.351-.875.947-2.405 1.093-3.352.219-.947-.874-1.093-2.404-.218-3.351z" fill="#FBB921"/><path d="M33.801 66.069c.874-1.02 2.331-1.093 3.351-.219.947.874 1.093 2.404.219 3.351-.874.947-2.404 1.093-3.351.219-1.02-.875-1.093-2.404-.219-3.351z" fill="#0C7373"/><path d="M12.967 47.566c.874-.947 2.404-1.093 3.351-.219.947.874 1.093 2.404.219 3.351-.874.947-2.404 1.093-3.351.219-.947-.875-1.093-2.331-.219-3.351z" fill="#FBB921"/><path d="M2.623 38.315c.875-.947 2.404-1.093 3.351-.219.947.874 1.093 2.404.219 3.35-.874.948-2.404 1.093-3.351.22-1.02-.875-1.093-2.332-.219-3.351z" fill="#0C7373"/><path d="M89.933 65.732c.874-.947 2.404-1.093 3.35-.219.948.874 1.094 2.404.22 3.351-.875.947-2.404 1.093-3.352.218-1.02-.874-1.092-2.33-.218-3.35z" fill="#FBB921"/><path d="M79.516 56.553c.874-.947 2.404-1.092 3.35-.218 1.02.874 1.094 2.33.22 3.35-.875.947-2.404 1.093-3.352.219-.947-.874-1.092-2.404-.218-3.35z" fill="#0C7373"/><path d="M58.755 38.05c.874-.947 2.404-1.092 3.351-.218.947.874 1.093 2.404.219 3.35-.875.948-2.404 1.093-3.351.22-1.02-.875-1.093-2.405-.219-3.352z" fill="#FBB921"/><path d="M48.41 28.799c.875-.947 2.405-1.093 3.352-.218.947.874 1.093 2.403.218 3.35-.874.947-2.404 1.093-3.35.219-1.02-.874-1.093-2.331-.22-3.351z" fill="#0C7373"/><path d="M71.139 65.95c.874-.947 2.404-1.092 3.35-.218.948.874 1.093 2.404.22 3.35-.875.948-2.405 1.093-3.352.22-1.02-.875-1.093-2.405-.218-3.352zm-10.344-9.251c.874-.947 2.404-1.093 3.35-.219.948.874 1.093 2.404.22 3.351-.875.947-2.405 1.093-3.352.219-1.02-.874-1.093-2.331-.218-3.351z" fill="#FBB921"/><path d="M50.378 47.447c.874-.946 2.404-1.092 3.35-.218.948.874 1.093 2.404.22 3.35-.875.948-2.405 1.094-3.352.22-.947-.875-1.092-2.332-.218-3.352zm12.383 27.9c.875-.947 2.404-1.092 3.351-.218.947.874 1.093 2.404.219 3.35-.874.948-2.404 1.093-3.35.22-1.02-.802-1.094-2.332-.22-3.352z" fill="#0C7373"/><path d="M52.417 66.169c.875-1.02 2.331-1.093 3.351-.219.947.874 1.093 2.404.219 3.351-.874.947-2.404 1.093-3.351.219-1.02-.874-1.093-2.404-.219-3.351zM42 56.917c.874-.947 2.404-1.092 3.351-.218.947.874 1.093 2.404.219 3.35-.874.948-2.404 1.093-3.351.22-1.02-.875-1.093-2.405-.219-3.352zm-10.416-9.251c.874-.947 2.403-1.093 3.35-.219.948.874 1.093 2.404.22 3.351-.875.947-2.405 1.093-3.352.219-.947-.874-1.093-2.404-.218-3.351z" fill="#FBB921"/><path d="M64.801 94.069c.874-1.02 2.331-1.093 3.351-.219.947.874 1.093 2.404.219 3.351-.874.947-2.404 1.093-3.351.219-1.02-.875-1.093-2.404-.219-3.351z" fill="#0C7373"/><path d="M43.967 75.566c.875-.947 2.404-1.093 3.351-.219.947.874 1.093 2.404.219 3.351-.874.947-2.404 1.093-3.351.219-.947-.874-1.093-2.331-.219-3.351z" fill="#FBB921"/><path d="M33.623 66.314c.875-.946 2.404-1.092 3.351-.218.947.874 1.093 2.404.219 3.35-.874.948-2.404 1.094-3.351.22-1.02-.875-1.093-2.332-.219-3.352z" fill="#0C7373"/></svg>